<svg width="129" height="129" viewBox="0 0 129 129" fill="none" xmlns="http://www.w3.org/2000/svg">
<path d="M64.5 0C28.9402 0 0 28.9402 0 64.5C0 100.06 28.9402 129 64.5 129C100.06 129 129 100.06 129 64.5C129 28.9402 100.06 0 64.5 0ZM94.7758 39.5873C97.0794 41.4644 97.4231 44.8551 95.5425 47.1569L61.6961 88.6447C59.6751 91.121 55.9533 91.2973 53.7074 89.0226L33.8031 68.9078C31.7083 66.7968 31.7281 63.3848 33.8463 61.2968C35.9573 59.2092 39.3588 59.229 41.4463 61.34L57.152 77.213L87.2081 40.354C89.5297 37.6815 92.6197 37.892 94.7758 39.5873Z" fill="url(#paint0_linear_878_3756)"/>
<defs>
<linearGradient id="paint0_linear_878_3756" x1="-2.64165e-06" y1="13.5575" x2="131.285" y2="15.1428" gradientUnits="userSpaceOnUse">
<stop stop-color="#53B7E8"/>
<stop offset="1" stop-color="#003974"/>
</linearGradient>
</defs>
</svg>
