<svg width="1260" height="197" viewBox="0 0 1260 197" fill="none" xmlns="http://www.w3.org/2000/svg">
<g filter="url(#filter0_ddd_5493_25864)">
<g clip-path="url(#clip0_5493_25864)">
<path d="M50 46C50 42.6863 52.6863 40 56 40H1204C1207.31 40 1210 42.6863 1210 46V151C1210 154.314 1207.31 157 1204 157H56C52.6863 157 50 154.314 50 151V46Z" fill="url(#paint0_radial_5493_25864)"/>
<g opacity="0.1">
<path fill-rule="evenodd" clip-rule="evenodd" d="M67 64.6291C53.5403 64.6291 42.6291 75.5403 42.6291 89C42.6291 102.46 53.5403 113.371 67 113.371C80.4596 113.371 91.3709 102.46 91.3709 89C91.3709 75.5403 80.4596 64.6291 67 64.6291ZM43.6887 89C43.6887 76.1255 54.1255 65.6887 67 65.6887C79.8745 65.6887 90.3113 76.1255 90.3113 89C90.3113 101.874 79.8745 112.311 67 112.311C54.1255 112.311 43.6887 101.874 43.6887 89Z" fill="#E00007"/>
<path fill-rule="evenodd" clip-rule="evenodd" d="M67 60.6556C51.3458 60.6556 38.6556 73.3458 38.6556 89C38.6556 104.654 51.3458 117.344 67 117.344C82.6542 117.344 95.3444 104.654 95.3444 89C95.3444 73.3458 82.6542 60.6556 67 60.6556ZM39.7152 89C39.7152 73.931 51.931 61.7152 67 61.7152C82.069 61.7152 94.2848 73.931 94.2848 89C94.2848 104.069 82.069 116.285 67 116.285C51.931 116.285 39.7152 104.069 39.7152 89Z" fill="#E00007"/>
<path fill-rule="evenodd" clip-rule="evenodd" d="M34.6821 89C34.6821 71.1513 49.1513 56.6821 67 56.6821C84.8487 56.6821 99.3179 71.1513 99.3179 89C99.3179 106.849 84.8487 121.318 67 121.318C49.1513 121.318 34.6821 106.849 34.6821 89ZM67 57.7417C49.7365 57.7417 35.7417 71.7365 35.7417 89C35.7417 106.263 49.7365 120.258 67 120.258C84.2635 120.258 98.2583 106.263 98.2583 89C98.2583 71.7365 84.2635 57.7417 67 57.7417Z" fill="#E00007"/>
<path fill-rule="evenodd" clip-rule="evenodd" d="M30.7086 89C30.7086 68.9568 46.9568 52.7086 67 52.7086C87.0432 52.7086 103.291 68.9568 103.291 89C103.291 109.043 87.0432 125.291 67 125.291C46.9568 125.291 30.7086 109.043 30.7086 89ZM67 53.7682C47.542 53.7682 31.7682 69.542 31.7682 89C31.7682 108.458 47.542 124.232 67 124.232C86.458 124.232 102.232 108.458 102.232 89C102.232 69.542 86.458 53.7682 67 53.7682Z" fill="#E00007"/>
<path fill-rule="evenodd" clip-rule="evenodd" d="M26.7351 89C26.7351 66.7623 44.7623 48.7351 67 48.7351C89.2377 48.7351 107.265 66.7623 107.265 89C107.265 111.238 89.2377 129.265 67 129.265C44.7623 129.265 26.7351 111.238 26.7351 89ZM67 49.7947C45.3475 49.7947 27.7947 67.3475 27.7947 89C27.7947 110.652 45.3475 128.205 67 128.205C88.6525 128.205 106.205 110.652 106.205 89C106.205 67.3475 88.6525 49.7947 67 49.7947Z" fill="#E00007"/>
<path fill-rule="evenodd" clip-rule="evenodd" d="M67 44.7616C42.5678 44.7616 22.7616 64.5678 22.7616 89C22.7616 113.432 42.5678 133.238 67 133.238C91.4322 133.238 111.238 113.432 111.238 89C111.238 64.5678 91.4322 44.7616 67 44.7616ZM23.8212 89C23.8212 65.153 43.153 45.8212 67 45.8212C90.847 45.8212 110.179 65.153 110.179 89C110.179 112.847 90.847 132.179 67 132.179C43.153 132.179 23.8212 112.847 23.8212 89Z" fill="#E00007"/>
<path fill-rule="evenodd" clip-rule="evenodd" d="M18.7881 89C18.7881 62.3733 40.3733 40.7881 67 40.7881C93.6267 40.7881 115.212 62.3733 115.212 89C115.212 115.627 93.6267 137.212 67 137.212C40.3733 137.212 18.7881 115.627 18.7881 89ZM67 41.8477C40.9585 41.8477 19.8477 62.9585 19.8477 89C19.8477 115.041 40.9585 136.152 67 136.152C93.0415 136.152 114.152 115.041 114.152 89C114.152 62.9585 93.0415 41.8477 67 41.8477Z" fill="#E00007"/>
<path fill-rule="evenodd" clip-rule="evenodd" d="M67 36.8146C38.1788 36.8146 14.8146 60.1788 14.8146 89C14.8146 117.821 38.1788 141.185 67 141.185C95.8212 141.185 119.185 117.821 119.185 89C119.185 60.1788 95.8212 36.8146 67 36.8146ZM15.8742 89C15.8742 60.764 38.764 37.8742 67 37.8742C95.236 37.8742 118.126 60.764 118.126 89C118.126 117.236 95.236 140.126 67 140.126C38.764 140.126 15.8742 117.236 15.8742 89Z" fill="#E00007"/>
<path fill-rule="evenodd" clip-rule="evenodd" d="M10.8411 89C10.8411 57.9843 35.9843 32.8411 67 32.8411C98.0157 32.8411 123.159 57.9843 123.159 89C123.159 120.016 98.0157 145.159 67 145.159C35.9843 145.159 10.8411 120.016 10.8411 89ZM67 33.9007C36.5695 33.9007 11.9007 58.5695 11.9007 89C11.9007 119.431 36.5695 144.099 67 144.099C97.4305 144.099 122.099 119.431 122.099 89C122.099 58.5695 97.4305 33.9007 67 33.9007Z" fill="#E00007"/>
<path fill-rule="evenodd" clip-rule="evenodd" d="M67 28.8675C33.7898 28.8675 6.86755 55.7898 6.86755 89C6.86755 122.21 33.7898 149.132 67 149.132C100.21 149.132 127.132 122.21 127.132 89C127.132 55.7898 100.21 28.8675 67 28.8675ZM7.92715 89C7.92715 56.375 34.375 29.9272 67 29.9272C99.625 29.9272 126.073 56.375 126.073 89C126.073 121.625 99.625 148.073 67 148.073C34.375 148.073 7.92715 121.625 7.92715 89Z" fill="#E00007"/>
<path fill-rule="evenodd" clip-rule="evenodd" d="M2.89404 89C2.89404 53.5953 31.5953 24.894 67 24.894C102.405 24.894 131.106 53.5953 131.106 89C131.106 124.405 102.405 153.106 67 153.106C31.5953 153.106 2.89404 124.405 2.89404 89ZM67 25.9536C32.1805 25.9536 3.95364 54.1805 3.95364 89C3.95364 123.82 32.1805 152.046 67 152.046C101.82 152.046 130.046 123.82 130.046 89C130.046 54.1805 101.82 25.9536 67 25.9536Z" fill="#E00007"/>
<path fill-rule="evenodd" clip-rule="evenodd" d="M67 20.9205C29.4007 20.9205 -1.07947 51.4007 -1.07947 89C-1.07947 126.599 29.4007 157.079 67 157.079C104.599 157.079 135.079 126.599 135.079 89C135.079 51.4007 104.599 20.9205 67 20.9205ZM-0.0198679 89C-0.0198679 51.9859 29.9859 21.9801 67 21.9801C104.014 21.9801 134.02 51.9859 134.02 89C134.02 126.014 104.014 156.02 67 156.02C29.9859 156.02 -0.0198679 126.014 -0.0198679 89Z" fill="#E00007"/>
<path fill-rule="evenodd" clip-rule="evenodd" d="M-5.05298 89C-5.05298 49.2062 27.2062 16.947 67 16.947C106.794 16.947 139.053 49.2062 139.053 89C139.053 128.794 106.794 161.053 67 161.053C27.2062 161.053 -5.05298 128.794 -5.05298 89ZM67 18.0066C27.7914 18.0066 -3.99338 49.7914 -3.99338 89C-3.99338 128.209 27.7914 159.993 67 159.993C106.209 159.993 137.993 128.209 137.993 89C137.993 49.7914 106.209 18.0066 67 18.0066Z" fill="#E00007"/>
<path fill-rule="evenodd" clip-rule="evenodd" d="M67 12.9735C25.0117 12.9735 -9.02649 47.0117 -9.02649 89C-9.02649 130.988 25.0117 165.026 67 165.026C108.988 165.026 143.026 130.988 143.026 89C143.026 47.0117 108.988 12.9735 67 12.9735ZM-7.96689 89C-7.96689 47.5969 25.5969 14.0331 67 14.0331C108.403 14.0331 141.967 47.5969 141.967 89C141.967 130.403 108.403 163.967 67 163.967C25.5969 163.967 -7.96689 130.403 -7.96689 89Z" fill="#E00007"/>
<path fill-rule="evenodd" clip-rule="evenodd" d="M-13 89C-13 44.8172 22.8172 9 67 9C111.183 9 147 44.8172 147 89C147 133.183 111.183 169 67 169C22.8172 169 -13 133.183 -13 89ZM67 10.0596C23.4024 10.0596 -11.9404 45.4024 -11.9404 89C-11.9404 132.598 23.4024 167.94 67 167.94C110.598 167.94 145.94 132.598 145.94 89C145.94 45.4024 110.598 10.0596 67 10.0596Z" fill="#E00007"/>
</g>
<g opacity="0.2" clip-path="url(#clip1_5493_25864)">
<path opacity="0.4" d="M1178.16 116.558L1175.52 110.893L1187.23 105.435L1189.87 111.099L1178.16 116.558ZM1191.33 135.521L1178.72 132.94L1180.01 126.823L1192.61 129.405L1191.33 135.521ZM1168.81 102.806L1163.3 99.8596L1169.42 88.5442L1174.93 91.4909L1168.81 102.806ZM1147.89 152.192L1142.36 140.335L1139.4 141.714C1137.77 142.473 1136.12 142.55 1134.44 141.946C1132.76 141.341 1131.55 140.239 1130.81 138.64L1128.17 132.975C1127.4 131.339 1127.33 129.681 1127.94 128.001C1128.55 126.322 1129.67 125.1 1131.31 124.337L1142.56 119.09L1153.06 103.532L1169.33 138.425L1150.66 136.461L1148.02 137.693L1153.55 149.551L1147.89 152.192ZM1158.98 131.021L1152.11 116.293L1146.79 124.015L1133.73 130.107L1136.54 136.149L1149.61 130.057L1158.98 131.021ZM1169.92 128.859L1160.77 109.223C1162.65 109.784 1164.37 110.722 1165.92 112.038C1167.47 113.355 1168.71 115.02 1169.65 117.034C1170.59 119.048 1171.06 121.071 1171.08 123.103C1171.09 125.135 1170.71 127.054 1169.92 128.859Z" fill="#E00007"/>
</g>
<path opacity="0.1" d="M187 67.9086C303.599 52.295 342.632 127 426.11 127C509.587 127 540.18 61.4834 623.657 61.4834C707.135 61.4834 749.786 76.8107 833.263 76.8107C916.74 76.8107 918.696 34.3569 1048 67.9088" stroke="#E00007" stroke-linecap="round" stroke-dasharray="8 8"/>
</g>
</g>
<defs>
<filter id="filter0_ddd_5493_25864" x="0" y="0" width="1260" height="197" filterUnits="userSpaceOnUse" color-interpolation-filters="sRGB">
<feFlood flood-opacity="0" result="BackgroundImageFix"/>
<feColorMatrix in="SourceAlpha" type="matrix" values="0 0 0 0 0 0 0 0 0 0 0 0 0 0 0 0 0 0 127 0" result="hardAlpha"/>
<feOffset dy="2"/>
<feGaussianBlur stdDeviation="7.5"/>
<feColorMatrix type="matrix" values="0 0 0 0 0.0392157 0 0 0 0 0.188235 0 0 0 0 0.4 0 0 0 0.04 0"/>
<feBlend mode="normal" in2="BackgroundImageFix" result="effect1_dropShadow_5493_25864"/>
<feColorMatrix in="SourceAlpha" type="matrix" values="0 0 0 0 0 0 0 0 0 0 0 0 0 0 0 0 0 0 127 0" result="hardAlpha"/>
<feOffset dx="10"/>
<feGaussianBlur stdDeviation="20"/>
<feColorMatrix type="matrix" values="0 0 0 0 0.0392157 0 0 0 0 0.188235 0 0 0 0 0.4 0 0 0 0.04 0"/>
<feBlend mode="normal" in2="effect1_dropShadow_5493_25864" result="effect2_dropShadow_5493_25864"/>
<feColorMatrix in="SourceAlpha" type="matrix" values="0 0 0 0 0 0 0 0 0 0 0 0 0 0 0 0 0 0 127 0" result="hardAlpha"/>
<feOffset dx="-10"/>
<feGaussianBlur stdDeviation="20"/>
<feColorMatrix type="matrix" values="0 0 0 0 0.0392157 0 0 0 0 0.188235 0 0 0 0 0.4 0 0 0 0.04 0"/>
<feBlend mode="normal" in2="effect2_dropShadow_5493_25864" result="effect3_dropShadow_5493_25864"/>
<feBlend mode="normal" in="SourceGraphic" in2="effect3_dropShadow_5493_25864" result="shape"/>
</filter>
<radialGradient id="paint0_radial_5493_25864" cx="0" cy="0" r="1" gradientUnits="userSpaceOnUse" gradientTransform="translate(630 98.5) scale(1786 180.14)">
<stop offset="0.158596" stop-color="white"/>
<stop offset="1" stop-color="#FCE6E6"/>
</radialGradient>
<clipPath id="clip0_5493_25864">
<path d="M50 46C50 42.6863 52.6863 40 56 40H1204C1207.31 40 1210 42.6863 1210 46V151C1210 154.314 1207.31 157 1204 157H56C52.6863 157 50 154.314 50 151V46Z" fill="white"/>
</clipPath>
<clipPath id="clip1_5493_25864">
<rect width="80" height="80" fill="white" transform="translate(1119 82)"/>
</clipPath>
</defs>
</svg>
