<svg width="130" height="130" viewBox="0 0 130 130" fill="none" xmlns="http://www.w3.org/2000/svg">
<path fill-rule="evenodd" clip-rule="evenodd" d="M65 0.5C29.4402 0.5 0.5 29.4402 0.5 65C0.5 100.56 29.4402 129.5 65 129.5C100.56 129.5 129.5 100.56 129.5 65C129.5 29.4402 100.56 0.5 65 0.5ZM60.7031 82.2227H69.3457L71.6895 32.6133H58.3594L60.7031 82.2227ZM59.8242 92.3301C58.457 93.4043 57.7734 95.276 57.7734 97.9453C57.7734 100.549 58.457 102.438 59.8242 103.609C61.224 104.749 62.9329 105.318 64.9512 105.318C66.9369 105.318 68.6296 104.749 70.0293 103.609C71.429 102.438 72.1289 100.549 72.1289 97.9453C72.1289 95.276 71.429 93.4043 70.0293 92.3301C68.6296 91.2233 66.9369 90.6699 64.9512 90.6699C62.9329 90.6699 61.224 91.2233 59.8242 92.3301Z" fill="url(#paint0_linear_3950_25626)"/>
<defs>
<linearGradient id="paint0_linear_3950_25626" x1="0.5" y1="65" x2="129.5" y2="65" gradientUnits="userSpaceOnUse">
<stop stop-color="#EBD511"/>
<stop offset="1" stop-color="#FF8A00"/>
</linearGradient>
</defs>
</svg>
