<svg width="184" height="171" viewBox="0 0 184 171" fill="none" xmlns="http://www.w3.org/2000/svg">
<g clip-path="url(#clip0_3634_14828)">
<path d="M10.4903 71.7422L23.3524 76.2649L20.106 78.1348L11.1188 83.2387L8.22656 84.8872L10.4903 71.7422Z" fill="#EBEBEB"/>
<path d="M66.4932 141.903L74.5056 138.293L57.0684 108.761L49.2071 115.707L35.3822 91.6194L27.7756 96.739L15.3988 74.5645L10.8516 76.47L25.9654 106.369L34.5428 98.9846L47.572 125.876L55.3537 117.482L66.4932 141.903Z" fill="#EBEBEB"/>
<path d="M182.197 124.754L172.533 124.406L174.18 126.482L178.763 132.171L180.239 134.005L182.197 124.754Z" fill="#F5F5F5"/>
<path d="M126.881 156.489L122.549 152.033L141.788 137.089L145.146 143.703L160.578 131.408L164.246 136.753L178.218 125.344L180.717 127.779L162.913 143.569L159.194 136.48L143.559 150.827L140.627 143.28L126.881 156.489Z" fill="#F5F5F5"/>
<path d="M163.824 39.2617L150.914 46.0932L154.654 47.5638L164.998 51.5489L168.327 52.8377L163.824 39.2617Z" fill="#E0E0E0"/>
<path d="M115.698 122.485L106.631 119.927L120.384 85.8682L129.825 91.988L140.622 64.2669L149.506 68.493L159.074 43.0332L164.194 44.3339L152.967 78.4121L142.687 71.9444L133.187 102.504L123.595 94.8424L115.698 122.485Z" fill="#E0E0E0"/>
<path d="M182.679 170.898C182.679 170.953 141.781 171.001 91.3436 171.001C40.9057 171.001 0 170.953 0 170.898C0 170.842 40.8898 170.795 91.3436 170.795C141.797 170.795 182.679 170.842 182.679 170.898Z" fill="#263238"/>
<path d="M106.281 170.799H116.096V154.839H106.281V170.799Z" fill="#E8543F"/>
<path d="M145.855 170.799H155.67V143.722H145.855V170.799Z" fill="#E8543F"/>
<path d="M165.642 170.803H175.457V160.967H165.642V170.803Z" fill="#E8543F"/>
<path d="M126.07 170.803H135.885V147.26H126.07V170.803Z" fill="#E8543F"/>
<path d="M86.4978 170.799H96.3125V141.465H86.4978V170.799Z" fill="#E8543F"/>
<path d="M66.7127 170.803H76.5273V133.068H66.7127V170.803Z" fill="#E8543F"/>
<path d="M46.9197 170.799H56.7344L56.7344 123.71H46.9197L46.9197 170.799Z" fill="#E8543F"/>
<path d="M27.1365 170.803H36.9512L36.9512 111.027H27.1365L27.1365 170.803Z" fill="#E8543F"/>
<path d="M7.34745 170.803H17.1621L17.1621 92.2251H7.34745L7.34745 170.803Z" fill="#E8543F"/>
<path d="M158.303 160.227C155.18 154.158 148.564 150.031 141.705 149.865C145.867 145.291 146.686 138.214 144.287 132.529C141.888 126.844 136.605 122.606 130.681 120.776C124.757 118.945 118.269 119.376 112.365 121.27C113.049 116.822 108.577 112.387 104.102 113.079C105.852 111.877 106.449 109.287 105.398 107.449C104.352 105.611 101.81 104.788 99.8725 105.662L100.135 73.0742H80.641L80.9036 105.662C78.9661 104.788 76.4279 105.611 75.3776 107.449C74.3313 109.287 74.9281 111.877 76.6746 113.079C72.2029 112.387 67.7272 116.826 68.4115 121.27C62.5076 119.376 56.0188 118.949 50.095 120.776C44.1712 122.602 38.8879 126.844 36.489 132.529C34.09 138.214 34.9095 145.291 39.0709 149.865C32.2162 150.027 25.5962 154.158 22.4731 160.227C20.659 163.753 20.4919 168.96 24.0167 170.802H156.755C160.28 168.96 160.113 163.749 158.299 160.227H158.303Z" fill="#EBEBEB"/>
<path d="M24.0206 170.801C24.0206 170.801 23.8615 170.71 23.5472 170.517C23.2408 170.323 22.8112 169.967 22.3696 169.406C21.9399 168.833 21.5461 168.01 21.3392 166.974C21.1243 165.939 21.1323 164.697 21.379 163.341C21.6216 161.981 22.1826 160.519 23.0738 159.08C23.953 157.633 25.1266 156.182 26.6185 154.849C28.1104 153.529 29.9006 152.292 32.0092 151.398C32.2718 151.287 32.5383 151.177 32.8049 151.062C33.0794 150.967 33.3539 150.872 33.6363 150.773C33.9109 150.671 34.1973 150.588 34.4877 150.513C34.7781 150.437 35.0646 150.347 35.363 150.279C36.5485 150.01 37.7898 149.852 39.0748 149.801L39.031 149.904C37.8176 148.56 36.827 146.923 36.1348 145.1C35.4584 143.274 35.0964 141.254 35.0924 139.17C35.1083 137.087 35.4624 134.932 36.282 132.869C36.6878 131.837 37.189 130.825 37.8057 129.868C38.4104 128.903 39.1066 127.974 39.8983 127.112C43.0412 123.641 47.5288 121.044 52.5933 120.06C55.1196 119.546 57.7692 119.415 60.4387 119.601C63.1082 119.807 65.8015 120.34 68.4472 121.178L68.3278 121.281C68.1687 120.23 68.292 119.127 68.6699 118.099C69.0439 117.067 69.6566 116.11 70.4403 115.3C71.2241 114.489 72.1829 113.825 73.261 113.398C74.3352 112.971 75.5326 112.797 76.6983 112.979L76.6267 113.153C74.9359 111.991 74.2357 109.484 75.2303 107.531C76.2328 105.59 78.8705 104.645 80.9512 105.566L80.812 105.657C80.7284 95.2797 80.6369 84.3368 80.5454 73.0696V72.9668H80.6488C83.74 72.9668 87.054 72.9668 90.3879 72.9668C93.6661 72.9668 96.9204 72.9668 100.143 72.9668H100.246V73.0696C100.155 84.3091 100.063 95.2165 99.9798 105.657L99.8405 105.566C101.881 104.661 104.475 105.551 105.522 107.456C106.556 109.374 105.92 111.939 104.165 113.153L104.093 112.979C105.247 112.801 106.429 112.967 107.495 113.382C108.561 113.797 109.516 114.45 110.304 115.248C111.091 116.047 111.716 117 112.102 118.035C112.492 119.071 112.627 120.198 112.46 121.281L112.341 121.178C114.982 120.34 117.676 119.807 120.345 119.601C123.015 119.415 125.66 119.542 128.183 120.056C133.243 121.036 137.727 123.63 140.87 127.089C141.665 127.947 142.357 128.876 142.966 129.84C143.583 130.797 144.084 131.809 144.494 132.837C144.92 133.861 145.182 134.928 145.401 135.98C145.592 137.039 145.687 138.095 145.695 139.139C145.695 141.222 145.333 143.242 144.661 145.077C143.973 146.907 142.978 148.548 141.757 149.9L141.713 149.797C142.998 149.848 144.243 150.007 145.429 150.275C145.727 150.343 146.014 150.43 146.304 150.509C146.594 150.584 146.881 150.667 147.155 150.77C147.434 150.864 147.712 150.963 147.987 151.058C148.253 151.173 148.52 151.283 148.787 151.394C150.899 152.288 152.685 153.529 154.177 154.849C155.665 156.182 156.843 157.633 157.718 159.08C158.609 160.519 159.17 161.985 159.409 163.341C159.659 164.697 159.659 165.939 159.445 166.971C159.238 168.006 158.844 168.825 158.414 169.398C157.969 169.959 157.543 170.311 157.237 170.509C156.926 170.699 156.763 170.793 156.763 170.793C156.763 170.793 156.918 170.691 157.225 170.497C157.527 170.299 157.949 169.944 158.382 169.382C158.804 168.809 159.19 167.994 159.389 166.963C159.596 165.935 159.588 164.701 159.337 163.357C159.095 162.005 158.534 160.558 157.642 159.123C156.763 157.684 155.59 156.241 154.106 154.921C152.618 153.608 150.835 152.379 148.735 151.493C148.472 151.382 148.206 151.272 147.939 151.161C147.665 151.066 147.39 150.971 147.112 150.876C146.837 150.774 146.551 150.69 146.264 150.619C145.978 150.544 145.687 150.457 145.393 150.39C144.215 150.125 142.978 149.967 141.701 149.92H141.566L141.653 149.817C142.859 148.477 143.841 146.844 144.522 145.033C145.186 143.215 145.544 141.21 145.54 139.143C145.532 138.107 145.433 137.059 145.242 136.008C145.027 134.964 144.764 133.908 144.339 132.892C143.929 131.872 143.436 130.868 142.823 129.919C142.222 128.963 141.53 128.042 140.742 127.192C137.619 123.76 133.167 121.19 128.139 120.222C125.632 119.712 123.003 119.589 120.349 119.775C117.696 119.981 115.018 120.514 112.388 121.348L112.245 121.396L112.269 121.25C112.428 120.198 112.297 119.107 111.915 118.099C111.537 117.087 110.928 116.158 110.156 115.379C109.385 114.6 108.45 113.963 107.411 113.56C106.377 113.157 105.227 112.995 104.109 113.169L103.692 113.232L104.038 112.991C105.709 111.84 106.321 109.362 105.335 107.547C104.344 105.736 101.842 104.879 99.9082 105.744L99.765 105.808V105.653C99.8485 95.2165 99.936 84.3091 100.024 73.0656L100.127 73.1684C96.9045 73.1684 93.6502 73.1684 90.372 73.1684C87.0341 73.1684 83.7241 73.1684 80.6329 73.1684L80.7364 73.0656C80.8239 84.3328 80.9114 95.2718 80.995 105.653V105.808L80.8557 105.744C78.8864 104.863 76.3403 105.776 75.3934 107.618C74.4426 109.468 75.1189 111.892 76.7262 112.991L77.0763 113.232L76.6585 113.169C75.5287 112.995 74.367 113.161 73.3207 113.576C72.2744 113.991 71.3355 114.64 70.5676 115.43C69.028 117 68.1846 119.202 68.5029 121.254L68.5267 121.4L68.3835 121.352C65.7538 120.514 63.0763 119.984 60.4188 119.779C57.7652 119.593 55.1275 119.72 52.6212 120.226C47.5925 121.198 43.1327 123.776 40.0097 127.215C39.222 128.069 38.5297 128.99 37.929 129.947C37.3163 130.9 36.819 131.904 36.4172 132.924C35.6017 134.968 35.2476 137.107 35.2277 139.17C35.2277 141.238 35.5857 143.238 36.2541 145.053C36.9344 146.864 37.9171 148.484 39.1146 149.821L39.2021 149.92H39.0668C37.7937 149.975 36.5605 150.129 35.3789 150.394C35.0845 150.457 34.798 150.548 34.5116 150.623C34.2251 150.698 33.9387 150.777 33.6642 150.88C33.3857 150.975 33.1112 151.07 32.8407 151.165C32.5741 151.276 32.3115 151.386 32.049 151.497C29.9484 152.383 28.1661 153.608 26.6782 154.921C25.1942 156.241 24.0206 157.684 23.1374 159.119C22.2462 160.55 21.6813 162.001 21.4386 163.353C21.184 164.701 21.1761 165.935 21.3829 166.963C21.5819 167.994 21.9678 168.813 22.3895 169.386C22.8271 169.951 23.2488 170.303 23.5512 170.505C23.8575 170.699 24.0126 170.801 24.0126 170.801H24.0206Z" fill="#263238"/>
<path d="M65.0977 28.4012L89.6522 0L113.244 28.4012H104.038V74.7151H75.4574V28.4486L65.0977 28.4012Z" fill="#E8543F"/>
<path d="M181.704 74.5488L164.322 79.8543L168.543 82.5031L180.236 89.7298L183.999 92.0663L181.704 74.5488Z" fill="#E8543F"/>
<path d="M103.266 164.433L92.7949 159.234L117.636 121.072L127.725 130.683L147.458 99.5338L157.308 106.713L175.008 78.0234L180.96 80.7869L159.194 119.558L148.17 109.326L129.348 144.223L119.438 132.707L103.266 164.433Z" fill="#E8543F"/>
<g opacity="0.3">
<path d="M113.52 154.6C111.137 153.031 108.054 152.861 105.249 153.41C104.322 153.592 103.296 153.83 102.484 153.347C101.68 152.869 101.406 151.869 101.084 150.995C99.4445 146.52 94.9489 143.452 90.2186 142.669C85.4923 141.886 81.693 142.262 77.4082 144.397C74.8501 145.67 72.2085 147.449 69.9647 150.774C69.3202 151.726 68.1545 153.667 68.1545 153.667C67.2992 154.296 66.1653 154.336 65.115 154.506C60.7786 155.205 57.0389 158.708 56.0762 162.966L116.174 161.997C117.303 159.388 115.903 156.174 113.52 154.604V154.6Z" fill="black"/>
</g>
<path d="M52.7812 166.86C54.659 160.25 62.0668 155.712 68.8539 157.012C70.2861 149.817 77.2284 144.105 84.6083 144.049C91.9882 143.994 99.018 149.596 100.562 156.767C104.639 155.834 109.028 155.138 112.918 156.665C116.813 158.191 119.793 162.725 118.182 166.564" fill="#EBEBEB"/>
<path d="M118.186 166.56C118.186 166.56 118.194 166.521 118.218 166.445C118.241 166.366 118.277 166.256 118.321 166.117C118.369 165.975 118.432 165.797 118.464 165.572C118.5 165.35 118.572 165.101 118.572 164.805C118.671 163.654 118.397 161.856 117.123 160.069C116.495 159.183 115.64 158.309 114.546 157.59C113.463 156.851 112.103 156.376 110.619 156.092C109.131 155.823 107.512 155.787 105.825 155.945C104.138 156.099 102.388 156.439 100.581 156.851L100.49 156.87L100.47 156.779C99.8255 153.937 98.2779 151.063 95.875 148.794C93.4919 146.528 90.3092 144.805 86.7804 144.303C84.5843 143.998 82.3525 144.168 80.3195 144.816C78.2826 145.449 76.4247 146.461 74.8373 147.706C73.2499 148.956 71.9291 150.434 70.9385 152.031C69.9439 153.629 69.2795 155.332 68.9374 157.017L68.9215 157.1L68.8379 157.084C67.3222 156.799 65.8263 156.819 64.4418 157.029C63.7456 157.112 63.0852 157.305 62.4447 157.471C62.1304 157.582 61.8201 157.689 61.5177 157.792C61.2114 157.886 60.9289 158.045 60.6425 158.163C60.0616 158.396 59.5524 158.725 59.0352 158.997C58.7925 159.159 58.5538 159.318 58.3191 159.472C58.2037 159.551 58.0883 159.626 57.973 159.705C57.8616 159.788 57.7581 159.875 57.6507 159.958C57.4399 160.128 57.233 160.29 57.0301 160.452C56.8312 160.614 56.6561 160.8 56.4731 160.966C56.2981 161.14 56.1151 161.298 55.9559 161.468C55.8008 161.646 55.6496 161.816 55.5024 161.986C54.3367 163.342 53.6843 164.603 53.3023 165.473C53.1074 165.908 53.0119 166.264 52.9204 166.493C52.8369 166.726 52.7852 166.841 52.7852 166.841C52.7852 166.841 52.9164 166.347 53.2506 165.453C53.6206 164.572 54.2611 163.299 55.4228 161.923C55.57 161.753 55.7212 161.579 55.8764 161.401C56.0355 161.227 56.2185 161.065 56.3935 160.891C56.5766 160.721 56.7516 160.535 56.9505 160.369C57.1534 160.207 57.3603 160.037 57.5712 159.867C57.6786 159.784 57.782 159.693 57.8934 159.61C58.0088 159.531 58.1241 159.452 58.2435 159.373C58.4782 159.215 58.7169 159.053 58.9596 158.891C59.4768 158.614 59.99 158.278 60.5748 158.041C60.8652 157.918 61.1477 157.76 61.458 157.661C61.7644 157.554 62.0787 157.444 62.3929 157.333C63.0414 157.159 63.7058 156.961 64.41 156.874C65.8104 156.657 67.3261 156.633 68.8658 156.918L68.7623 156.985C69.1005 155.281 69.7728 153.553 70.7754 151.937C71.774 150.32 73.1107 148.821 74.71 147.556C76.3133 146.295 78.1911 145.267 80.2559 144.623C82.3127 143.963 84.5764 143.789 86.8043 144.097C90.3808 144.607 93.6033 146.354 96.0063 148.647C98.4331 150.944 99.9966 153.858 100.645 156.736L100.534 156.665C102.344 156.254 104.102 155.918 105.805 155.767C107.504 155.613 109.139 155.653 110.643 155.929C112.139 156.222 113.519 156.712 114.613 157.467C115.715 158.203 116.578 159.092 117.207 159.994C118.48 161.808 118.743 163.635 118.623 164.797C118.615 165.093 118.544 165.346 118.5 165.568C118.464 165.789 118.397 165.967 118.341 166.113C118.289 166.252 118.249 166.359 118.222 166.438C118.194 166.509 118.178 166.548 118.178 166.544L118.186 166.56Z" fill="#263238"/>
<path d="M80.7645 65.0955C81.0191 80.9763 68.2883 94.1015 52.3828 94.3545C36.4772 94.6115 23.3287 81.8974 23.0741 66.0206C22.8194 50.1398 35.5503 37.0145 51.4558 36.7615C67.3614 36.5085 80.5099 49.2187 80.7645 65.0955ZM38.1243 65.7794C38.2476 73.3699 44.5334 79.4502 52.1401 79.3277C59.7468 79.2051 65.8337 72.9311 65.7104 65.3366C65.587 57.7461 59.3012 51.6658 51.6945 51.7884C44.0879 51.9109 38.0009 58.185 38.1243 65.7794Z" fill="#E0E0E0"/>
<path d="M80.7658 65.0916C81.0204 80.9723 68.2896 94.0976 52.3841 94.3506L52.1414 79.3238C59.748 79.2012 65.835 72.9272 65.7116 65.3327C65.5883 57.7422 59.3025 51.6619 51.6958 51.7845L51.4531 36.7576C67.3587 36.5046 80.5072 49.2148 80.7618 65.0916H80.7658Z" fill="#455A64"/>
<path d="M52.1848 94.5568L51.9382 79.1346H52.1371C59.6324 79.0121 65.6318 72.825 65.5124 65.3413C65.4527 61.7239 63.9847 58.3398 61.3709 55.8136C58.7611 53.2874 55.3317 51.9353 51.6995 51.9867H51.5006L51.2539 36.5645H51.4528C59.2027 36.438 66.5388 39.3398 72.1205 44.7362C77.7022 50.1326 80.8411 57.3594 80.9684 65.0922C81.227 81.0797 68.4047 94.2959 52.3877 94.5529H52.1888L52.1848 94.5568ZM52.34 79.5221L52.5747 94.1575C68.2774 93.7978 80.8172 80.8069 80.5626 65.1001C80.4393 57.474 77.3401 50.3421 71.838 45.0208C66.3797 39.747 59.2186 36.8887 51.6557 36.9559L51.8904 51.5914C55.5386 51.5874 59.0078 52.979 61.6454 55.5289C64.3348 58.1263 65.8466 61.6092 65.9063 65.3333C66.0296 72.9673 59.9586 79.2928 52.34 79.5221Z" fill="#455A64"/>
<path d="M54.9733 96.6678C36.3624 96.9643 21.5191 82.6135 21.2207 64.0365L38.833 63.7559C38.9762 72.6391 45.7792 78.2292 54.6749 78.0869L54.9733 96.6678Z" fill="#E8543F"/>
<path d="M31.337 64.3378C31.4484 64.4129 29.7854 67.0103 27.6172 70.1296C25.453 73.2527 23.607 75.7236 23.4916 75.6445C23.3802 75.5694 25.0432 72.976 27.2114 69.8489C29.3756 66.7257 31.2216 64.2548 31.333 64.3339L31.337 64.3378Z" fill="#263238"/>
<path d="M38.9916 65.8039C39.103 65.879 36.6404 69.6229 33.4935 74.1653C30.3426 78.7078 27.701 82.3291 27.5896 82.25C27.4782 82.1749 29.9408 78.431 33.0917 73.8886C36.2386 69.3461 38.8842 65.7288 38.9956 65.8039H38.9916Z" fill="#263238"/>
<path d="M42.7201 73.5833C42.8315 73.6584 40.6156 77.0504 37.771 81.154C34.9225 85.2616 32.5275 88.5232 32.4161 88.448C32.3047 88.3729 34.5207 84.9809 37.3692 80.8773C40.2138 76.7737 42.6127 73.5082 42.7241 73.5833H42.7201Z" fill="#263238"/>
<path d="M49.2045 77.8899C49.3159 77.9651 47.0999 81.3571 44.2554 85.4607C41.4069 89.5683 39.0119 92.8298 38.9005 92.7547C38.7891 92.6796 41.0051 89.2876 43.8536 85.1839C46.6981 81.0803 49.0971 77.8148 49.2085 77.8899H49.2045Z" fill="#263238"/>
<path d="M54.7586 83.3535C54.8699 83.4286 53.0598 86.2355 50.7125 89.6196C48.3653 93.0037 46.3721 95.6841 46.2607 95.609C46.1493 95.5339 47.9595 92.727 50.3067 89.3429C52.654 85.9588 54.6432 83.2784 54.7586 83.3575V83.3535Z" fill="#263238"/>
<path d="M146.612 10.2582C146.612 10.2582 148.35 6.28105 148.434 5.65641C148.517 5.03573 148.342 3.65204 147.893 3.27251C147.443 2.89299 146.862 2.81787 146.46 3.0788C146.46 3.0788 146.397 2.20905 145.51 2.04301C144.622 1.87697 144.646 2.69532 144.646 2.69532C144.646 2.69532 144.686 2.09045 144.042 1.92836C143.727 1.84929 143.365 2.0272 143.365 2.0272C143.365 2.0272 142.518 1.27605 141.949 1.74255C141.384 2.20905 142.037 9.45562 142.037 9.45562L146.612 10.2542V10.2582Z" fill="#FFBF9D"/>
<path d="M141.921 8.62932C141.921 8.62932 140.369 5.97264 140.377 5.24917C140.385 4.5257 141.256 2.88504 141.742 2.67946C142.227 2.47389 144.145 2.04297 144.145 2.04297C144.145 2.04297 144.928 2.77435 143.771 3.49782L142.434 4.24501C142.434 4.24501 144.566 4.95267 144.499 7.11912" fill="#FFBF9D"/>
<path d="M144.495 7.11844C144.459 7.11844 144.507 6.73496 144.296 6.11823C144.181 5.81778 143.986 5.46593 143.672 5.14175C143.357 4.82152 142.92 4.52106 142.403 4.32735L142.228 4.26014L142.391 4.16921C142.812 3.92806 143.266 3.67109 143.747 3.3983C143.97 3.25993 144.181 3.06622 144.268 2.82901C144.356 2.59181 144.265 2.30717 144.078 2.12136L144.169 2.14508C143.839 2.22414 143.497 2.30321 143.143 2.38623C142.868 2.45344 142.602 2.52065 142.335 2.59576C142.204 2.63134 142.072 2.67088 141.949 2.71041C141.885 2.73018 141.822 2.7539 141.77 2.77762C141.722 2.80134 141.679 2.83692 141.631 2.87645C141.273 3.22435 141.022 3.6869 140.815 4.11387C140.716 4.3313 140.624 4.54874 140.557 4.76222C140.497 4.9757 140.437 5.19314 140.473 5.3829C140.557 5.78615 140.728 6.16172 140.871 6.49381C141.173 7.16193 141.452 7.68773 141.639 8.0554C141.826 8.42306 141.929 8.62469 141.917 8.63259C141.905 8.6405 141.778 8.45074 141.567 8.09493C141.356 7.73913 141.062 7.22123 140.74 6.55706C140.585 6.22102 140.405 5.85731 140.306 5.41453C140.262 5.17337 140.322 4.94012 140.386 4.71478C140.449 4.48944 140.541 4.26409 140.644 4.03875C140.859 3.59202 141.094 3.12947 141.496 2.73018C141.547 2.68274 141.607 2.6353 141.683 2.59972C141.75 2.56809 141.814 2.54437 141.881 2.5246C142.013 2.48111 142.144 2.44158 142.279 2.40205C142.546 2.32693 142.816 2.25972 143.091 2.18856C143.445 2.10554 143.791 2.02252 144.121 1.94741L144.177 1.93555L144.217 1.97508C144.455 2.21228 144.575 2.576 144.459 2.89622C144.34 3.20854 144.093 3.41016 143.851 3.56434C143.365 3.83317 142.904 4.08619 142.478 4.3234L142.462 4.16526C143.015 4.3827 143.457 4.70292 143.779 5.04687C144.101 5.39476 144.292 5.76638 144.4 6.08661C144.444 6.2487 144.487 6.39102 144.495 6.52148C144.515 6.65194 144.527 6.75868 144.519 6.84961C144.519 7.02751 144.511 7.1224 144.499 7.1224L144.495 7.11844Z" fill="#FF9A6C"/>
<path d="M144.486 2.73438C144.272 3.50529 144.192 4.31178 144.256 5.10641C144.276 5.37524 144.323 5.66384 144.514 5.86151C144.693 6.04732 144.976 6.11452 145.234 6.06708C145.493 6.01964 145.716 5.87337 145.899 5.68756" fill="#FFBF9D"/>
<path d="M145.899 5.68796C145.899 5.68796 145.771 5.96074 145.326 6.11887C145.107 6.19004 144.793 6.19399 144.526 6.00027C144.248 5.7947 144.172 5.42308 144.152 5.0989C144.041 3.75475 144.443 2.71105 144.486 2.73477C144.55 2.74663 144.252 3.78637 144.359 5.08309C144.379 5.40331 144.447 5.69982 144.646 5.854C144.841 6.00818 145.099 6.02795 145.29 5.98051C145.684 5.87772 145.875 5.65633 145.899 5.68796Z" fill="#FF9A6C"/>
<path d="M142.775 4.16602C142.64 4.50996 142.688 4.66414 142.712 5.03181C142.731 5.40343 142.958 5.78691 143.32 5.87388C143.623 5.94504 144.013 5.54575 144.192 5.12669" fill="#FFBF9D"/>
<path d="M144.192 5.13098C144.216 5.13889 144.18 5.32865 144.005 5.57771C143.914 5.70027 143.794 5.84259 143.592 5.93747C143.496 5.98491 143.341 6.00073 143.226 5.95329C143.11 5.9177 143.003 5.84654 142.915 5.75562C142.736 5.57771 142.653 5.34842 142.625 5.14284C142.609 4.93331 142.605 4.77913 142.609 4.62099C142.629 4.30867 142.756 4.15449 142.772 4.1624C142.804 4.17426 142.736 4.34821 142.756 4.62099C142.776 4.79099 142.796 4.95703 142.816 5.11517C142.848 5.28516 142.927 5.47097 143.062 5.60934C143.13 5.67655 143.21 5.7319 143.293 5.75957C143.377 5.7912 143.436 5.78724 143.52 5.75957C143.671 5.70027 143.798 5.58167 143.89 5.48283C144.081 5.27726 144.16 5.11517 144.188 5.12703L144.192 5.13098Z" fill="#FF9A6C"/>
<path d="M146.604 3.125C146.171 3.59545 145.848 4.1687 145.677 4.78542C145.59 5.1096 145.558 5.50494 145.809 5.73029C146.071 5.96749 146.493 5.88051 146.795 5.6947C147.249 5.41401 147.579 4.93565 147.678 4.41381" fill="#FFBF9D"/>
<path d="M147.674 4.41073C147.694 4.41073 147.702 4.75072 147.42 5.19745C147.276 5.41489 147.062 5.65209 146.751 5.82604C146.592 5.90907 146.409 5.97232 146.202 5.97232C145.999 5.97627 145.761 5.88139 145.637 5.68372C145.51 5.48605 145.502 5.26466 145.522 5.0749C145.542 4.88118 145.598 4.70723 145.653 4.5491C145.769 4.22887 145.912 3.95609 146.055 3.73865C146.341 3.30773 146.592 3.11006 146.608 3.12588C146.632 3.1496 146.421 3.38285 146.182 3.81377C146.063 4.0312 145.936 4.29608 145.836 4.6084C145.788 4.76258 145.741 4.92862 145.725 5.09467C145.709 5.26071 145.725 5.43861 145.812 5.56907C145.991 5.84976 146.401 5.79442 146.668 5.65605C146.946 5.51373 147.161 5.3042 147.304 5.11048C147.599 4.71909 147.646 4.39887 147.682 4.40678L147.674 4.41073Z" fill="#FF9A6C"/>
<path d="M125.01 35.7302C125.01 35.7302 127.166 33.4175 128.017 32.8996C128.869 32.3817 134.478 25.7361 135.071 23.9887C135.664 22.2413 141.166 8.20277 141.055 8.39253C140.959 8.55067 148.041 9.87901 148.041 9.87901C148.041 9.87901 142.769 26.0681 142.125 27.9223C140.963 31.2787 135.206 38.0746 131.924 42.1505C130.528 43.8861 128.594 49.4445 128.594 49.4445L125.01 35.7342V35.7302Z" fill="#263238"/>
<path d="M130.155 44.4479C130.127 44.4479 130.039 43.9696 129.952 43.1789C129.86 42.3921 129.777 41.2971 129.757 40.0873C129.737 38.8776 129.781 37.7785 129.844 36.9879C129.908 36.1972 129.98 35.7109 130.003 35.7149C130.035 35.7149 130.015 36.2051 129.988 36.9958C129.964 37.7864 129.94 38.8776 129.96 40.0834C129.98 41.2892 130.039 42.3803 130.095 43.167C130.147 43.9577 130.182 44.444 130.155 44.4479Z" fill="#455A64"/>
<path d="M94.6024 126.963L91.5709 133.102L91.185 134.605C91.185 134.605 93.206 143.729 91.9448 144.626L82.9219 130.153L85.2453 128.698L88.1336 122.562L94.6024 126.963Z" fill="#455A64"/>
<path d="M82.918 130.156L84.0598 129.504L92.2831 143.621C92.2831 143.621 92.4183 144.432 91.9409 144.626L82.918 130.152V130.156Z" fill="#263238"/>
<path d="M91.3993 134.799C91.3317 134.838 91.081 134.502 90.6474 134.289C90.2177 134.063 89.8159 134.063 89.8 133.984C89.7722 133.909 90.2416 133.767 90.7628 134.036C91.2839 134.301 91.4709 134.775 91.3993 134.799Z" fill="#263238"/>
<path d="M91.7451 136.684C91.6894 136.739 91.3831 136.506 90.9495 136.443C90.5158 136.367 90.1697 136.494 90.1299 136.423C90.0782 136.364 90.4402 136.071 90.9813 136.162C91.5223 136.249 91.8088 136.644 91.7451 136.688V136.684Z" fill="#263238"/>
<path d="M90.552 138.617C90.4963 138.562 90.7709 138.254 91.2562 138.21C91.7376 138.159 92.0917 138.404 92.0519 138.467C92.0201 138.542 91.6899 138.447 91.296 138.495C90.8982 138.53 90.6038 138.685 90.552 138.617Z" fill="#263238"/>
<path d="M125.51 81.7951C125.211 82.4948 109.99 105.65 106.867 108.224C103.744 110.797 93.0858 131.916 93.0858 131.916C93.0858 131.916 84.3771 127.718 84.1822 128.176C83.9872 128.635 90.289 113.268 94.0485 106.958C97.8081 100.649 99.5626 98.2096 99.5626 98.2096L107.042 78.3952C107.042 78.3952 107.197 71.8681 108.16 69.3261C109.123 66.788 111.935 64.582 111.935 64.582L125.51 81.7991V81.7951Z" fill="#263238"/>
<path d="M111.796 109.777L103.704 110.355C103.704 110.355 101.624 119.171 100.14 119.428L98.3613 103.021L110.929 101.578L111.796 109.774V109.777Z" fill="#455A64"/>
<path d="M103.832 105.207C103.716 104.899 103.35 104.717 103.052 104.824C102.754 104.93 102.579 105.314 102.69 105.626C102.801 105.939 103.231 106.168 103.518 106.029C103.8 105.887 103.987 105.425 103.804 105.152" fill="#E0E0E0"/>
<path d="M98.3574 103.025L99.6305 102.93L100.86 118.692C100.86 118.692 100.637 119.455 100.136 119.427L98.3574 103.021V103.025Z" fill="#263238"/>
<path d="M103.811 110.611C103.736 110.615 103.656 110.219 103.37 109.852C103.091 109.476 102.737 109.31 102.761 109.231C102.769 109.156 103.238 109.227 103.58 109.678C103.927 110.124 103.887 110.619 103.815 110.611H103.811Z" fill="#263238"/>
<path d="M103.319 112.406C103.248 112.434 103.08 112.102 102.726 111.865C102.38 111.616 102.022 111.588 102.018 111.505C101.998 111.43 102.44 111.327 102.874 111.631C103.307 111.932 103.391 112.398 103.319 112.406Z" fill="#263238"/>
<path d="M101.46 113.596C101.436 113.525 101.806 113.37 102.248 113.532C102.689 113.691 102.896 114.05 102.837 114.09C102.777 114.141 102.526 113.924 102.164 113.797C101.802 113.663 101.48 113.675 101.464 113.596H101.46Z" fill="#263238"/>
<path d="M105.641 110.264C105.57 110.236 105.633 109.861 105.554 109.41C105.482 108.959 105.299 108.623 105.363 108.572C105.415 108.521 105.733 108.833 105.82 109.363C105.908 109.892 105.709 110.296 105.641 110.264Z" fill="#263238"/>
<path d="M104.712 75.7274C104.712 75.7274 104.688 83.4405 108.213 86.0497C111.738 88.655 123.959 98.4554 123.959 98.4554L104.445 101.768L105.901 110.758C105.901 110.758 132.242 108.118 135.465 107.046C138.687 105.975 141.007 100.555 138.484 96.7871C137.215 94.8934 124.102 76.3718 124.102 76.3718L123.709 71.3984L107.178 72.4382L104.704 75.7234L104.712 75.7274Z" fill="#263238"/>
<path d="M105.905 110.762C105.905 110.762 105.889 110.71 105.869 110.604C105.849 110.489 105.817 110.335 105.782 110.137C105.71 109.714 105.603 109.117 105.471 108.35C105.209 106.785 104.835 104.543 104.373 101.78L104.361 101.704L104.437 101.693C109.127 100.89 115.389 99.8147 122.252 98.6406C122.833 98.5418 123.406 98.4429 123.943 98.352L123.895 98.5338C121.146 96.2765 118.528 94.1535 116.149 92.2401C114.952 91.2912 113.818 90.3938 112.76 89.5517C111.697 88.7176 110.679 87.9704 109.836 87.1837C108.141 85.6221 107.031 84.1198 106.358 83.0366C106.02 82.4949 105.798 82.0522 105.654 81.7517C105.583 81.6015 105.535 81.4829 105.503 81.4038C105.471 81.3247 105.459 81.2812 105.463 81.2812C105.467 81.2812 105.487 81.3208 105.523 81.3959C105.563 81.471 105.615 81.5857 105.694 81.7359C105.849 82.0324 106.084 82.4633 106.426 82.997C107.114 84.0605 108.236 85.543 109.931 87.0809C110.774 87.8518 111.793 88.5871 112.863 89.4213C113.933 90.2515 115.071 91.145 116.269 92.0977C118.66 93.9993 121.281 96.1183 124.03 98.3757L124.205 98.518L123.983 98.5576C123.446 98.6485 122.869 98.7473 122.292 98.8462C115.425 100.005 109.159 101.056 104.469 101.847L104.532 101.76C104.966 104.523 105.32 106.769 105.563 108.338C105.678 109.109 105.77 109.71 105.833 110.133C105.861 110.331 105.881 110.485 105.897 110.6C105.909 110.706 105.917 110.762 105.913 110.762H105.905Z" fill="#455A64"/>
<path d="M129.226 99.0115C129.206 99.0708 128.068 98.7387 126.616 98.5885C125.168 98.4304 123.982 98.5213 123.979 98.4581C123.979 98.4304 124.269 98.375 124.754 98.3434C125.236 98.3118 125.908 98.3078 126.64 98.3869C127.376 98.466 128.029 98.6083 128.494 98.7387C128.959 98.8732 129.234 98.9878 129.226 99.0115Z" fill="#455A64"/>
<path d="M117.175 10.9975C117.394 10.2819 118.114 9.75214 118.862 9.75609C119.59 8.92984 120.923 8.7124 121.878 9.26983C122.45 8.7717 123.29 8.60566 124.01 8.84286C124.73 9.08007 125.307 9.71261 125.478 10.4519C126.202 10.1989 127.077 10.4558 127.547 11.0647C128.016 11.6735 128.048 12.5828 127.618 13.2193C128.478 13.3379 129.182 14.1681 129.154 15.0339C129.126 15.8997 128.37 16.6824 127.503 16.7417L117.867 12.9742C117.247 12.5551 116.948 11.7091 117.171 10.9935L117.175 10.9975Z" fill="#263238"/>
<path d="M127.806 16.9436C126.795 13.1602 123.043 10.7803 119.188 11.4761L118.807 11.5433C114.721 12.5316 114.112 16.568 115.222 20.6242L118.385 35.8764L125.984 40.3595L126.899 37.0308L126.891 31.5988C126.891 31.5988 130.75 30.2665 130.073 26.2894C129.747 24.3681 128.752 20.4661 127.81 16.9476L127.806 16.9436Z" fill="#FFBF9D"/>
<path d="M126.918 31.5831C126.918 31.5831 124.411 32.1919 121.436 31.002C121.436 31.002 122.991 33.8563 126.886 32.7849L126.914 31.5871L126.918 31.5831Z" fill="#FF9A6C"/>
<path d="M127.316 20.6787C127.379 20.9752 127.184 21.2757 126.874 21.3508C126.564 21.4219 126.261 21.244 126.198 20.9436C126.134 20.6471 126.329 20.3466 126.639 20.2715C126.949 20.2003 127.252 20.3782 127.319 20.6787H127.316Z" fill="#263238"/>
<path d="M127.388 19.232C127.332 19.319 126.843 19.0779 126.234 19.1886C125.621 19.2913 125.231 19.6867 125.152 19.6234C125.112 19.5958 125.16 19.4495 125.331 19.2716C125.498 19.0937 125.8 18.9 126.178 18.8327C126.56 18.7655 126.902 18.8486 127.113 18.9593C127.328 19.07 127.416 19.1925 127.388 19.232Z" fill="#263238"/>
<path d="M121.985 21.8773C122.049 22.1738 121.854 22.4742 121.544 22.5493C121.234 22.6244 120.931 22.4426 120.868 22.1421C120.804 21.8456 120.999 21.5452 121.309 21.4701C121.619 21.3949 121.922 21.5768 121.989 21.8773H121.985Z" fill="#263238"/>
<path d="M121.536 20.2008C121.48 20.2878 120.991 20.0466 120.382 20.1573C119.774 20.2601 119.38 20.6554 119.3 20.5922C119.26 20.5645 119.308 20.4182 119.479 20.2403C119.646 20.0624 119.949 19.8687 120.327 19.8015C120.709 19.7343 121.051 19.8173 121.262 19.928C121.476 20.0387 121.564 20.1613 121.536 20.2008Z" fill="#263238"/>
<path d="M124.371 24.3556C124.364 24.3201 124.73 24.1856 125.33 23.9998C125.481 23.9563 125.625 23.897 125.633 23.7863C125.649 23.6677 125.553 23.5096 125.446 23.3436C125.231 22.9917 125.004 22.624 124.769 22.2406C123.822 20.6671 123.102 19.3625 123.166 19.3269C123.23 19.2913 124.049 20.5327 125 22.1062C125.231 22.4936 125.45 22.8652 125.66 23.221C125.752 23.3871 125.891 23.5689 125.851 23.818C125.832 23.9405 125.732 24.0473 125.637 24.0908C125.541 24.1382 125.454 24.158 125.378 24.1738C124.765 24.3201 124.383 24.3912 124.375 24.3556H124.371Z" fill="#263238"/>
<path d="M122.652 25.1041C122.752 25.0804 122.871 25.7406 123.524 26.1083C124.176 26.476 124.868 26.2743 124.888 26.3692C124.904 26.4088 124.753 26.5274 124.459 26.5867C124.168 26.6499 123.723 26.6341 123.325 26.4088C122.927 26.1834 122.708 25.8237 122.637 25.5588C122.561 25.286 122.605 25.1081 122.652 25.1041Z" fill="#263238"/>
<path d="M121.224 18.4566C121.18 18.6266 120.627 18.5792 119.991 18.7057C119.35 18.8164 118.845 19.0615 118.754 18.9152C118.71 18.844 118.793 18.682 118.992 18.508C119.191 18.3341 119.513 18.1601 119.895 18.089C120.277 18.0178 120.635 18.0652 120.874 18.1601C121.117 18.255 121.244 18.3775 121.224 18.4606V18.4566Z" fill="#263238"/>
<path d="M126.945 17.5844C126.878 17.7465 126.424 17.7188 125.927 17.8413C125.425 17.9481 125.036 18.1774 124.9 18.0588C124.841 17.9995 124.868 17.8453 125.02 17.6713C125.167 17.4934 125.441 17.3076 125.784 17.2286C126.126 17.1495 126.456 17.193 126.667 17.2879C126.878 17.3827 126.973 17.5053 126.945 17.5844Z" fill="#263238"/>
<path d="M127.089 15.192C127.089 15.192 125.589 12.8951 124.284 12.5314C122.705 12.0926 122.371 13.7965 120.919 13.6581C119.467 13.5197 117.955 13.0967 116.737 14.4211C115.405 15.872 116.28 16.5599 116.507 18.3389C117.422 25.546 116.487 27.8033 115.504 24.5062C115.397 24.1465 114.319 24.0358 113.885 22.5098C113.32 20.5252 112.795 18.0899 112.982 16.5757C113.141 15.2988 113.678 14.342 114.744 13.1995C116.427 11.3968 119.101 10.8828 120.951 10.7366C122.801 10.5903 126.691 12.0491 127.093 15.192H127.089Z" fill="#263238"/>
<path d="M116.237 24.2649C116.102 23.656 115.485 23.2686 114.884 23.4386C114.156 23.6442 113.408 24.2135 113.739 25.7316C114.319 28.4278 116.909 27.2932 116.897 27.2141C116.889 27.1627 116.492 25.3916 116.237 24.2649Z" fill="#FFBF9D"/>
<path d="M116.089 26.3244C116.089 26.3244 116.049 26.3679 115.978 26.4193C115.906 26.4707 115.779 26.526 115.628 26.5023C115.321 26.4588 114.983 26.0595 114.864 25.5732C114.804 25.3281 114.804 25.083 114.852 24.8735C114.892 24.66 114.991 24.494 115.126 24.4386C115.262 24.3754 115.381 24.4386 115.433 24.5098C115.484 24.577 115.48 24.6363 115.496 24.6363C115.504 24.6402 115.544 24.577 115.496 24.4702C115.472 24.4188 115.429 24.3635 115.353 24.324C115.277 24.2844 115.174 24.2805 115.079 24.3121C114.872 24.3714 114.728 24.6007 114.677 24.8339C114.617 25.0712 114.609 25.3479 114.677 25.6207C114.812 26.1623 115.198 26.609 115.616 26.6406C115.815 26.6486 115.962 26.5576 116.029 26.4786C116.097 26.3955 116.101 26.3323 116.089 26.3283V26.3244Z" fill="#FF9A6C"/>
<path d="M114.829 19.0863C115.226 19.2642 115.644 19.4421 116.074 19.4105C116.507 19.3749 116.949 19.0429 116.941 18.6119C116.941 18.4182 116.854 18.2047 116.949 18.0387C117.064 17.8371 117.347 17.845 117.582 17.8252C118.385 17.7659 119.093 17.0622 119.153 16.2597C119.408 16.5245 119.877 16.4257 120.144 16.1766C120.414 15.9236 120.55 15.5678 120.736 15.2515C120.923 14.9353 121.214 14.6309 121.584 14.619C121.791 14.6111 121.998 14.6981 122.197 14.6427C122.547 14.5478 122.646 14.0972 122.634 13.7334C122.622 13.3697 122.59 12.9507 122.857 12.7016C123.104 12.4723 123.486 12.5118 123.824 12.5C124.162 12.4881 124.572 12.3339 124.596 11.9979C124.607 11.82 124.504 11.6579 124.385 11.5275C123.84 10.9384 122.865 10.8079 122.189 11.2349C121.759 10.3849 120.792 9.83936 119.845 9.91052C118.898 9.98168 118.023 10.6617 117.729 11.563C117.06 11.1479 116.185 11.0768 115.461 11.3851C114.737 11.6935 114.184 12.3695 114.021 13.1404C113.329 13.0851 112.625 13.4765 112.302 14.0932C111.984 14.7099 112.068 15.5125 112.509 16.0462C112.072 16.4138 111.741 16.9713 111.837 17.5366C111.928 18.1019 112.581 18.5605 113.094 18.3154C112.955 18.7938 113.241 19.3552 113.711 19.5212C114.18 19.6873 114.757 19.4382 114.952 18.9796" fill="#263238"/>
<path d="M112.899 18.3514C112.899 18.3514 112.891 18.5886 113.161 18.8416C113.296 18.9602 113.507 19.0709 113.766 19.0669C114.016 19.0669 114.307 18.9483 114.498 18.7032H114.379C114.554 18.9167 114.776 19.1223 115.043 19.2844C115.214 19.3872 115.401 19.4702 115.592 19.5018C115.783 19.5414 115.986 19.5097 116.149 19.4544C116.487 19.3555 116.754 19.1144 116.849 18.8653C116.953 18.6163 116.961 18.4028 116.964 18.2605C116.964 18.1181 116.957 18.0391 116.945 18.0391C116.933 18.0391 116.925 18.1181 116.901 18.2565C116.877 18.3949 116.853 18.6004 116.746 18.8179C116.559 19.2528 115.759 19.6046 115.122 19.15C114.872 18.9997 114.661 18.806 114.49 18.6084L114.426 18.5372L114.371 18.6123C114.215 18.8218 113.973 18.9286 113.754 18.9404C113.535 18.9523 113.344 18.8693 113.217 18.7704C112.954 18.5609 112.914 18.3395 112.891 18.3514H112.899Z" fill="#455A64"/>
<path d="M116.893 11.2268C116.893 11.2268 116.968 11.2347 117.096 11.2623C117.223 11.294 117.418 11.3651 117.581 11.543L117.625 11.5905L117.653 11.5351C117.843 11.1477 118.19 10.6337 118.77 10.2345C119.061 10.0368 119.407 9.8747 119.797 9.80749C120.183 9.73633 120.608 9.77586 121.006 9.93005C121.317 10.0486 121.591 10.2345 121.81 10.4558C122.025 10.6812 122.18 10.9461 122.259 11.2189L122.283 11.3019L122.363 11.2663C122.749 11.0805 123.178 11.0844 123.517 11.1991C123.859 11.3137 124.101 11.5391 124.253 11.7486C124.559 12.1874 124.543 12.5314 124.567 12.5235C124.575 12.5235 124.583 12.4444 124.559 12.2942C124.535 12.1479 124.475 11.9305 124.324 11.6972C124.173 11.4679 123.918 11.2149 123.552 11.0805C123.19 10.9461 122.725 10.9303 122.295 11.1319L122.399 11.1793C122.319 10.8789 122.152 10.5903 121.921 10.3452C121.687 10.104 121.392 9.90633 121.062 9.77982C120.636 9.61377 120.179 9.57424 119.769 9.65726C119.355 9.73633 118.989 9.91028 118.691 10.1198C118.09 10.5468 117.752 11.0923 117.573 11.4956L117.645 11.4837C117.454 11.294 117.239 11.2347 117.104 11.2149C116.964 11.1991 116.889 11.2149 116.889 11.2228L116.893 11.2268Z" fill="#455A64"/>
<path d="M121.428 77.1297C121.81 77.1653 123.099 77.616 124.778 74.5323C126.456 71.4487 128.068 60.0273 128.068 60.0273L121.428 77.1297Z" fill="#E0E0E0"/>
<path d="M128.674 55.6041L128.865 44.5543L126.629 36.0941C126.629 36.0941 125.061 33.6627 123.359 32.4253C121.33 30.9547 119.655 30.6226 119.655 30.6226L117.097 30.0059L116.822 32.117L124.254 40.593L128.674 55.6041Z" fill="#E0E0E0"/>
<path d="M116.854 30.7403C116.854 30.7403 122.973 31.2622 125.936 38.6076C127.528 42.5531 128.495 53.1402 128.678 54.7888C128.865 56.4413 128.244 60.2326 127.106 65.3404C126.883 66.3327 126.088 68.9459 123.903 75.2713C121.568 82.0395 119.706 87.0366 119.706 87.0366L100.141 79.5133L109.872 62.5493C109.872 62.5493 109.359 57.3269 109.382 56.8248C109.569 52.9426 108.81 50.7524 110.102 43.2844C110.488 41.0587 111.264 38.9159 112.43 36.963C113.659 34.9033 114.574 34.2905 116.663 32.7368L116.85 30.7324L116.854 30.7403Z" fill="#263238"/>
<path d="M118.962 77.084L119.475 72.9804L110.15 69.2207L108.447 73.1385L118.962 77.084Z" fill="#263238"/>
<path d="M118.963 77.0836C118.963 77.0836 118.887 77.048 118.752 76.9927C118.597 76.9334 118.402 76.8543 118.155 76.7555C117.618 76.5459 116.878 76.2573 115.955 75.9015C114.077 75.182 111.475 74.1897 108.484 73.0472L108.543 73.1816C109.001 72.13 109.486 71.0152 109.991 69.8608C110.079 69.6591 110.166 69.4575 110.25 69.2638L110.111 69.3191C113.779 70.7819 117.069 72.0984 119.452 73.0472L119.408 72.9721C119.269 74.2213 119.158 75.2334 119.074 75.9608C119.038 76.3048 119.01 76.5776 118.986 76.7871C118.967 76.9769 118.959 77.0797 118.963 77.0876C118.963 77.0955 118.983 77.0006 119.01 76.8227C119.042 76.6211 119.078 76.3522 119.13 76.0201C119.233 75.2848 119.376 74.2609 119.551 72.9958L119.559 72.9404L119.508 72.9207C117.129 71.9521 113.85 70.6198 110.19 69.1294L110.095 69.0898L110.055 69.1847C109.971 69.3784 109.884 69.5801 109.796 69.7817C109.295 70.9361 108.81 72.0549 108.356 73.1025L108.312 73.2014L108.412 73.237C111.447 74.3518 114.085 75.3243 115.995 76.028C116.914 76.3601 117.654 76.629 118.187 76.8187C118.426 76.9017 118.616 76.969 118.768 77.0243C118.899 77.0678 118.967 77.0915 118.963 77.0836Z" fill="#455A64"/>
<path d="M126.693 66.7132C126.693 66.7132 126.689 66.7488 126.669 66.82C126.645 66.899 126.613 67.0018 126.573 67.1283C126.482 67.413 126.354 67.8044 126.191 68.3025C125.845 69.3343 125.352 70.801 124.747 72.6038C123.506 76.2449 121.795 81.2459 119.909 86.7727C119.874 86.8755 119.838 86.9783 119.806 87.0732L119.77 87.176L119.671 87.1365C114.264 85.0451 109.383 83.1554 105.834 81.7836C104.083 81.0957 102.659 80.5382 101.661 80.1429C101.179 79.9492 100.805 79.799 100.531 79.6883C100.411 79.6369 100.316 79.5973 100.24 79.5657C100.177 79.538 100.141 79.5222 100.145 79.5183C100.145 79.5183 100.181 79.5262 100.248 79.5459C100.328 79.5736 100.423 79.6092 100.547 79.6487C100.821 79.7515 101.203 79.8899 101.688 80.0678C102.695 80.4473 104.123 80.985 105.886 81.6452C109.438 83.0012 114.328 84.8712 119.742 86.9388L119.607 87.002C119.639 86.9072 119.675 86.8044 119.71 86.7016C121.62 81.1826 123.347 76.1856 124.604 72.5524C125.236 70.7576 125.75 69.2988 126.112 68.2709C126.291 67.7767 126.43 67.3893 126.529 67.1086C126.577 66.986 126.613 66.8872 126.645 66.8081C126.673 66.7409 126.689 66.7053 126.689 66.7093L126.693 66.7132Z" fill="#455A64"/>
<path d="M97.9316 88.3815C97.9316 88.3815 100.247 80.8938 102.212 80.3878C104.178 79.8817 106.784 79.7987 107.245 81.0717C107.707 82.3447 108.08 84.2067 108.001 86.0886C107.921 87.9704 107.225 90.7338 107.225 90.7338L105.216 90.1171C105.216 90.1171 106.788 82.5147 106.382 81.2694C105.976 80.0241 102.638 80.3285 102.029 81.6173C101.421 82.91 99.4872 88.8559 99.4872 88.8559L97.9356 88.3815H97.9316Z" fill="#455A64"/>
<path d="M88.7021 97.797C89.4063 94.662 91.0533 87.7673 91.7774 84.735C91.9763 83.9088 92.7959 83.3869 93.6353 83.549L112.489 87.2573C113.328 87.4233 113.889 88.2219 113.75 89.064L111.622 102.086C111.478 102.964 110.635 103.549 109.76 103.387L89.9672 99.6986C89.084 99.5326 88.5111 98.6707 88.7061 97.801L88.7021 97.797Z" fill="#455A64"/>
<path d="M111.808 92.0534C111.808 92.0534 111.804 92.1009 111.784 92.1918C111.764 92.2906 111.741 92.429 111.705 92.6109C111.633 92.9864 111.526 93.528 111.386 94.2278C111.104 95.6431 110.698 97.687 110.197 100.205C110.165 100.363 110.133 100.522 110.101 100.684C110.078 100.846 110.014 101.024 109.895 101.158C109.779 101.293 109.616 101.395 109.437 101.439C109.258 101.49 109.063 101.451 108.896 101.415C108.204 101.281 107.484 101.142 106.74 101C105.248 100.711 103.656 100.407 101.982 100.083C100.307 99.7586 98.5443 99.4186 96.7222 99.0667C95.8111 98.8888 94.8842 98.7109 93.9413 98.5291C93.4718 98.4382 92.9944 98.3472 92.517 98.2523L92.159 98.1812C92.0436 98.1575 91.9163 98.1456 91.789 98.0863C91.5463 97.9796 91.3553 97.7582 91.2917 97.4972C91.2638 97.3866 91.2559 97.2719 91.2718 97.1573C91.2917 97.0426 91.3155 96.9477 91.3354 96.8449C91.3792 96.6394 91.423 96.4377 91.4667 96.2322C91.5542 95.825 91.6418 95.4217 91.7293 95.0185C91.9004 94.2159 92.0714 93.4213 92.2425 92.6425C92.5807 91.0809 92.9029 89.5746 93.2172 88.1317L93.2331 88.0645L93.3008 88.0803C98.6596 89.4402 103.294 90.4167 106.585 91.0611C108.228 91.3813 109.537 91.6225 110.436 91.7885C110.881 91.8716 111.227 91.9348 111.466 91.9783C111.577 91.9981 111.665 92.0178 111.729 92.0297C111.788 92.0416 111.816 92.0495 111.812 92.0495C111.812 92.0495 111.78 92.0495 111.717 92.0376C111.649 92.0258 111.562 92.0139 111.45 91.9981C111.211 91.9585 110.869 91.9032 110.424 91.836C109.525 91.6858 108.212 91.4565 106.565 91.1481C103.271 90.5274 98.6278 89.5707 93.2649 88.2186L93.3485 88.1672C93.0382 89.6102 92.7159 91.1204 92.3818 92.6781C92.2147 93.4569 92.0436 94.2515 91.8725 95.0541C91.785 95.4573 91.6975 95.8605 91.6099 96.2677C91.5662 96.4694 91.5224 96.6749 91.4787 96.8805C91.4349 97.09 91.3752 97.2798 91.4309 97.4696C91.4826 97.687 91.6457 97.8728 91.8486 97.9637C91.9481 98.0112 92.0635 98.0231 92.1868 98.0507L92.5449 98.1219C93.0223 98.2128 93.4957 98.3077 93.9691 98.3986C94.912 98.5805 95.839 98.7623 96.75 98.9402C98.5721 99.296 100.331 99.636 102.009 99.9642C103.684 100.292 105.276 100.601 106.768 100.893C107.512 101.039 108.232 101.178 108.924 101.316C109.099 101.356 109.258 101.387 109.417 101.344C109.576 101.308 109.716 101.217 109.819 101.099C109.926 100.976 109.978 100.834 110.006 100.672C110.038 100.51 110.074 100.352 110.105 100.197C110.627 97.6949 111.052 95.6668 111.347 94.2594C111.494 93.5597 111.609 93.0141 111.689 92.6346C111.729 92.4527 111.76 92.3104 111.78 92.2116C111.8 92.1167 111.816 92.0653 111.816 92.0653L111.808 92.0534Z" fill="#263238"/>
<path d="M104.784 99.3421C104.784 99.3421 104.899 99.3619 105.122 99.3619C105.341 99.354 105.679 99.3026 106.025 99.0693C106.375 98.84 106.685 98.3933 106.749 97.7924C106.864 97.2033 106.996 96.5352 107.143 95.7959C107.214 95.4243 107.294 95.0369 107.374 94.6336C107.477 94.2383 107.461 93.8074 107.258 93.4239C107.063 93.0404 106.693 92.7321 106.252 92.6174C105.794 92.5186 105.309 92.4276 104.819 92.3288C102.85 91.9374 100.69 91.5065 98.4182 91.0558C97.8731 90.9451 97.2883 91.1388 96.9303 91.546C96.7473 91.7437 96.6239 91.9888 96.5603 92.2458C96.5046 92.5146 96.4489 92.7834 96.3932 93.0483C96.2858 93.582 96.1784 94.1039 96.0749 94.6139C96.0232 94.8708 95.9715 95.1239 95.9198 95.3729C95.872 95.622 95.8044 95.875 95.7885 96.1083C95.7606 96.5866 95.9675 97.0571 96.3096 97.3615C96.4767 97.5157 96.6796 97.6303 96.8905 97.6975C97.1013 97.7608 97.3321 97.7964 97.5469 97.8438C98.4222 98.0217 99.2338 98.1877 99.9777 98.338C101.458 98.6424 102.655 98.8914 103.499 99.0654C103.904 99.1524 104.227 99.2196 104.453 99.271C104.557 99.2947 104.636 99.3145 104.7 99.3263C104.756 99.3382 104.784 99.35 104.784 99.35C104.784 99.35 104.756 99.35 104.696 99.3421C104.632 99.3303 104.549 99.3184 104.445 99.2986C104.215 99.2552 103.896 99.1959 103.487 99.1207C102.643 98.9586 101.442 98.7254 99.9578 98.4368C99.2139 98.2905 98.3983 98.1324 97.5231 97.9584C97.3042 97.911 97.0854 97.8833 96.8507 97.8161C96.6239 97.745 96.4051 97.6224 96.2261 97.4564C95.8561 97.1322 95.6293 96.6262 95.6612 96.1043C95.6771 95.8394 95.7447 95.6022 95.7925 95.3492C95.8442 95.1001 95.8919 94.8471 95.9436 94.5902C96.0471 94.0802 96.1505 93.5544 96.2579 93.0246C96.3136 92.7597 96.3693 92.4909 96.425 92.2181C96.4926 91.9374 96.6239 91.6686 96.8268 91.4551C97.2167 91.0123 97.8572 90.8028 98.45 90.9214C100.718 91.376 102.882 91.8109 104.847 92.2063C105.341 92.309 105.814 92.396 106.287 92.5028C106.765 92.6293 107.163 92.9653 107.37 93.3765C107.584 93.7837 107.596 94.266 107.485 94.6613C107.401 95.0646 107.322 95.452 107.246 95.8197C107.091 96.555 106.956 97.2231 106.832 97.8122C106.801 97.9584 106.773 98.1008 106.733 98.2391C106.685 98.3735 106.63 98.5001 106.558 98.6108C106.419 98.8321 106.24 99.0021 106.061 99.1207C105.695 99.3579 105.349 99.3975 105.126 99.3975C104.899 99.3896 104.788 99.35 104.788 99.35L104.784 99.3421Z" fill="#263238"/>
<g opacity="0.3">
<path d="M91.7168 98.0137C96.9802 100.765 103.071 101.943 108.991 101.346L91.7168 98.0137Z" fill="black"/>
</g>
<path d="M103.562 94.1084L101.338 93.6656C100.988 93.5945 100.765 93.2584 100.832 92.9145C100.904 92.5666 101.242 92.3452 101.588 92.4124L103.812 92.8552C104.162 92.9263 104.385 93.2624 104.317 93.6063C104.246 93.9542 103.908 94.1756 103.562 94.1084Z" fill="#E0E0E0"/>
<path d="M107.093 78.7031C107.093 78.7031 107.666 79.5808 107.801 80.1145C107.937 80.6482 107.849 82.7909 107.849 82.7909C107.849 82.7909 107.384 83.0242 107.006 81.7789C106.628 80.5335 106.58 79.9484 106.58 79.9484L107.089 78.7031H107.093Z" fill="#FFBF9D"/>
<path d="M107.034 82.6761L107.126 78.7582L105.606 75.8644L100.784 75.7734L100.613 80.5215C100.613 80.5215 101.321 82.5575 101.66 82.9449C101.998 83.3284 102.674 83.0437 102.674 83.0437C103.04 83.6091 104.039 83.4035 104.039 83.4035C104.532 83.9846 105.292 83.4391 105.292 83.4391C105.292 83.4391 105.96 84.0479 106.271 84.0084C106.378 83.9965 106.489 83.9135 106.593 83.8028C106.879 83.5023 107.03 83.0991 107.038 82.684L107.034 82.6761Z" fill="#FFBF9D"/>
<path d="M102.3 82.0204C102.347 82.0046 102.459 82.2141 102.55 82.4869C102.646 82.7597 102.682 82.9969 102.638 83.0087C102.594 83.0245 102.479 82.815 102.387 82.5422C102.292 82.2694 102.256 82.0322 102.3 82.0204Z" fill="#FF9A6C"/>
<path d="M103.553 81.965C103.6 81.9571 103.684 82.2931 103.803 82.6924C103.923 83.0956 104.034 83.4159 103.99 83.4396C103.946 83.4594 103.759 83.1589 103.636 82.7438C103.513 82.3287 103.505 81.9729 103.553 81.965Z" fill="#FF9A6C"/>
<path d="M104.977 82.0918C105.025 82.0918 105.064 82.3883 105.132 82.752C105.2 83.1118 105.271 83.4043 105.224 83.4241C105.18 83.4399 105.029 83.1632 104.961 82.7836C104.889 82.4041 104.929 82.0918 104.977 82.0918Z" fill="#FF9A6C"/>
<path d="M107.066 79.9883C107.114 79.9883 107.146 80.6564 107.134 81.4787C107.122 82.301 107.074 82.9652 107.027 82.9652C106.979 82.9652 106.948 82.2971 106.96 81.4748C106.971 80.6524 107.019 79.9883 107.066 79.9883Z" fill="#FF9A6C"/>
<path d="M102.232 81.2328C102.232 81.2328 102.217 81.308 102.129 81.3594C102.045 81.4108 101.902 81.4503 101.747 81.4187C101.592 81.387 101.477 81.2921 101.421 81.2131C101.365 81.1301 101.357 81.0668 101.377 81.0589C101.417 81.0352 101.552 81.2052 101.783 81.2526C102.01 81.304 102.205 81.2012 102.232 81.2408V81.2328Z" fill="#FF9A6C"/>
<path d="M103.689 81.4702C103.689 81.4702 103.661 81.5454 103.562 81.5888C103.466 81.6363 103.315 81.664 103.152 81.6323C102.989 81.6007 102.862 81.5137 102.79 81.4347C102.719 81.3556 102.703 81.2884 102.719 81.2765C102.758 81.2489 102.921 81.4149 103.184 81.4623C103.447 81.5216 103.657 81.4307 103.685 81.4702H103.689Z" fill="#FF9A6C"/>
<path d="M106.473 81.1817C106.489 81.162 106.585 81.2885 106.473 81.4545C106.362 81.6047 106.143 81.7115 105.884 81.7352C105.626 81.7589 105.395 81.6798 105.256 81.5929C105.117 81.5019 105.061 81.411 105.077 81.3992C105.105 81.3596 105.419 81.6087 105.869 81.5652C106.083 81.5454 106.286 81.4624 106.378 81.3794C106.473 81.2885 106.453 81.1936 106.473 81.1857V81.1817Z" fill="#FF9A6C"/>
<path d="M121.488 44.3329C119.594 46.2938 107.834 57.7665 107.834 57.7665C107.834 57.7665 107.15 76.304 106.812 76.387C106.47 76.47 99.7105 75.9165 99.7105 75.9165C99.7105 75.9165 98.7637 56.2642 99.5514 54.0226C100.339 51.7811 110.4 38.6756 110.615 38.4028C110.834 38.13 111.988 36.1256 115.835 35.1412C120.342 33.9908 122.232 36.1375 122.992 38.3435C123.644 40.2411 122.399 43.1904 121.795 43.985C121.699 44.1115 121.6 44.2301 121.488 44.3408V44.3329Z" fill="#263238"/>
<path d="M121.488 44.3324C121.488 44.3324 121.543 44.2573 121.659 44.115C121.782 43.9805 121.933 43.7513 122.1 43.435C122.419 42.8024 122.848 41.818 123.059 40.4818C123.155 39.8176 123.19 39.0467 122.916 38.2718C122.637 37.5049 122.204 36.6944 121.496 36.05C121.146 35.7259 120.716 35.4649 120.25 35.2633C119.781 35.0577 119.256 34.9629 118.719 34.9036C117.629 34.8245 116.475 35.0182 115.313 35.3582C114.156 35.7061 112.974 36.2359 111.952 37.0661C111.434 37.4812 111.001 37.9793 110.603 38.5525C110.185 39.1021 109.759 39.6595 109.326 40.2288C107.603 42.5099 105.769 44.957 103.891 47.5623C102.952 48.8669 101.998 50.2071 101.071 51.6106C100.613 52.3143 100.14 53.0259 99.7737 53.781C99.7339 53.8759 99.6782 53.9708 99.6464 54.0656L99.5827 54.3701C99.531 54.5717 99.5111 54.7852 99.4952 54.9986L99.4355 55.6431L99.4077 56.2954C99.2804 59.7783 99.3838 63.3957 99.4833 67.096C99.5708 70.1006 99.6862 73.0459 99.8175 75.9042L99.722 75.8093C100.947 75.9042 102.157 75.9991 103.354 76.0939C103.951 76.1374 104.544 76.177 105.137 76.2165C105.431 76.2323 105.725 76.2521 106.016 76.2679L106.453 76.2877H106.668H106.76C106.76 76.2956 106.823 76.2718 106.752 76.3035C106.732 76.3311 106.752 76.2916 106.752 76.2916C106.859 75.754 106.887 75.1609 106.939 74.5996C106.979 74.0303 107.014 73.4689 107.054 72.9075C107.118 71.7887 107.177 70.6897 107.237 69.6104C107.456 65.2933 107.619 61.3083 107.758 57.7542V57.7225L107.782 57.6988C111.987 53.5833 115.409 50.2348 117.78 47.9102C118.965 46.7558 119.888 45.8584 120.521 45.2456C120.831 44.9452 121.074 44.7159 121.241 44.5538C121.404 44.3996 121.492 44.3245 121.492 44.3245C121.492 44.3245 121.416 44.4115 121.257 44.5696C121.094 44.7356 120.859 44.9689 120.557 45.2773C119.932 45.8979 119.017 46.8072 117.847 47.9735C115.484 50.3099 112.079 53.6743 107.894 57.8135L107.917 57.7621C107.79 61.3122 107.635 65.3012 107.424 69.6183C107.364 70.6976 107.309 71.7966 107.245 72.9194C107.209 73.4808 107.17 74.0421 107.134 74.6114C107.082 75.1847 107.062 75.746 106.943 76.343C106.927 76.3746 106.943 76.3746 106.899 76.43C106.867 76.4656 106.823 76.4774 106.823 76.4735H106.792L106.664 76.4814H106.441L106 76.4577C105.705 76.4418 105.411 76.4221 105.117 76.4063C104.528 76.3667 103.931 76.3232 103.334 76.2837C102.137 76.1928 100.927 76.0979 99.7021 76.003L99.6106 75.9951V75.9042C99.4714 73.0459 99.356 70.1006 99.2685 67.096C99.169 63.3957 99.0695 59.7783 99.1968 56.2835L99.2287 55.6312L99.2884 54.9789C99.3043 54.7614 99.3281 54.544 99.3838 54.3266L99.4515 54.0024C99.4873 53.8996 99.539 53.8008 99.5827 53.7019C99.9647 52.9152 100.438 52.2076 100.9 51.4999C101.831 50.0964 102.789 48.7523 103.732 47.4477C105.618 44.8424 107.452 42.3992 109.183 40.122C109.616 39.5527 110.046 38.9953 110.464 38.4458C110.67 38.1809 110.865 37.8844 111.1 37.6354C111.331 37.3784 111.582 37.153 111.84 36.9356C112.89 36.0896 114.092 35.5598 115.262 35.208C116.435 34.864 117.609 34.6743 118.723 34.7612C119.272 34.8284 119.813 34.9233 120.294 35.1408C120.776 35.3503 121.213 35.6191 121.571 35.9552C122.295 36.6233 122.733 37.4495 123.007 38.2284C123.282 39.0269 123.238 39.8137 123.139 40.4818C122.912 41.8299 122.47 42.8103 122.14 43.4429C121.969 43.7592 121.81 43.9845 121.679 44.115C121.555 44.2533 121.492 44.3205 121.492 44.3205L121.488 44.3324Z" fill="#455A64"/>
<path d="M128.156 52.8209C128.156 52.8209 128.12 52.7458 128.076 52.5995C128.024 52.4334 127.961 52.22 127.881 51.9551C127.714 51.366 127.479 50.5556 127.193 49.5593C126.62 47.4996 125.836 44.6769 124.957 41.5023L124.945 41.4588L124.969 41.4193C125.192 41.0793 125.422 40.7156 125.661 40.3519L125.84 40.0751L125.916 40.2333C125.466 40.1898 125.021 40.1503 124.599 40.1107L124.531 40.1028L124.511 40.0396C124.265 39.2805 123.994 38.5491 123.692 37.8652C123.394 37.1813 123.067 36.5369 122.669 35.9952C122.276 35.4576 121.695 35.1334 121.182 34.825C120.656 34.5285 120.151 34.2795 119.69 34.062C118.763 33.6272 117.999 33.3148 117.474 33.0974C117.227 32.9946 117.028 32.9116 116.869 32.8483C116.73 32.789 116.662 32.7574 116.662 32.7535C116.662 32.7456 116.742 32.7693 116.881 32.8128C117.024 32.8602 117.231 32.9314 117.498 33.0302C118.031 33.2279 118.802 33.5244 119.741 33.9395C120.211 34.153 120.72 34.3941 121.257 34.6867C121.778 34.9911 122.379 35.3113 122.813 35.8845C123.234 36.4459 123.565 37.0982 123.871 37.7861C124.177 38.478 124.456 39.2093 124.706 39.9803L124.619 39.9091C125.045 39.9486 125.486 39.9882 125.936 40.0317L126.107 40.0475L126.015 40.1898L125.836 40.4665C125.598 40.8342 125.363 41.194 125.144 41.5339L125.156 41.4509C126.011 44.6294 126.771 47.4601 127.328 49.5237C127.591 50.5279 127.802 51.3463 127.957 51.9393C128.02 52.2081 128.076 52.4255 128.116 52.5955C128.152 52.7458 128.164 52.8248 128.16 52.8248L128.156 52.8209Z" fill="#455A64"/>
<path d="M126.784 41.0073C124.476 42.3594 122.602 42.3515 118.751 42.0273C116.082 41.8019 113.743 41.0429 111.065 40.9599C107.206 40.8413 104.314 42.0115 100.797 43.5968L98.207 46.6409L103.073 48.1037C103.073 48.1037 107.739 45.4667 113.727 45.7909C119.71 46.1151 125.296 44.4982 127.277 42.9959L127.957 41.118L127.699 40.1415L126.879 40.0664L126.784 41.0113V41.0073Z" fill="#E8543F"/>
<path d="M126.783 41.0077C126.783 41.0077 126.783 40.9207 126.795 40.7626C126.807 40.5965 126.827 40.3633 126.851 40.0589V40.0352H126.879C127.109 40.0549 127.384 40.0747 127.698 40.1024H127.722L127.73 40.1261C127.81 40.4107 127.897 40.7389 127.997 41.1026V41.1144V41.1263C127.802 41.6758 127.579 42.3044 127.328 43.0081V43.0239L127.308 43.0318C126.783 43.4351 126.135 43.7632 125.423 44.0637C124.706 44.3641 123.923 44.6409 123.067 44.8741C121.365 45.3485 119.411 45.7004 117.267 45.8466C116.197 45.9099 115.079 45.9455 113.925 45.8862C112.779 45.8387 111.598 45.8506 110.388 45.9969C109.183 46.1352 107.953 46.3883 106.732 46.752C105.515 47.1157 104.281 47.5743 103.12 48.191L103.08 48.2108L103.04 48.1989C102.133 47.9261 101.166 47.6375 100.192 47.345C99.5153 47.1394 98.839 46.9378 98.1746 46.7401L98.0234 46.6966L98.1269 46.578C99.0101 45.5422 99.8734 44.5262 100.721 43.5339L100.737 43.5181L100.757 43.5102C102.491 42.7314 104.194 41.996 105.913 41.5177C107.627 41.0314 109.342 40.8258 110.961 40.8772C112.584 40.9168 114.088 41.2133 115.481 41.4702C116.873 41.7391 118.166 41.9367 119.359 42.0158C120.549 42.1107 121.623 42.1819 122.562 42.1502C123.501 42.1265 124.297 41.9921 124.925 41.8023C125.554 41.6165 126.011 41.3951 126.322 41.2488C126.465 41.1737 126.58 41.1144 126.664 41.0709C126.743 41.0314 126.783 41.0116 126.787 41.0116C126.787 41.0116 126.751 41.0354 126.68 41.0828C126.604 41.1263 126.493 41.1975 126.338 41.2805C126.031 41.4386 125.578 41.6719 124.945 41.8695C124.317 42.0712 123.509 42.2174 122.566 42.2491C121.619 42.2886 120.541 42.2293 119.352 42.1423C118.158 42.0712 116.849 41.8774 115.457 41.6205C114.064 41.3714 112.564 41.0828 110.961 41.0512C109.358 41.0077 107.667 41.2172 105.972 41.6995C104.273 42.1779 102.579 42.9093 100.848 43.692L100.884 43.6644C100.04 44.6567 99.1772 45.6727 98.294 46.7124L98.2462 46.5464C98.9106 46.748 99.5869 46.9496 100.263 47.1513C101.238 47.4438 102.205 47.7364 103.112 48.0092L103.032 48.0171C104.222 47.3885 105.455 46.9299 106.688 46.5622C107.922 46.1985 109.159 45.9455 110.376 45.8071C111.594 45.6648 112.795 45.6569 113.945 45.7043C115.091 45.7676 116.201 45.7359 117.267 45.6766C119.395 45.5383 121.345 45.1983 123.039 44.7397C123.891 44.5143 124.671 44.2416 125.383 43.953C126.091 43.6565 126.735 43.3402 127.253 42.9528L127.233 42.9765C127.491 42.2767 127.722 41.6481 127.925 41.1026V41.1263C127.829 40.7626 127.746 40.4345 127.674 40.1459L127.702 40.1696C127.388 40.1379 127.113 40.1103 126.883 40.0866L126.91 40.0628C126.875 40.3672 126.847 40.6005 126.827 40.7705C126.807 40.9286 126.791 41.0037 126.791 41.0037L126.783 41.0077Z" fill="#263238"/>
<path d="M117.669 65.6773C117.649 65.7327 115.89 65.1555 113.746 64.3885C111.598 63.6255 109.871 62.9614 109.891 62.906C109.911 62.8507 111.665 63.4279 113.817 64.1948C115.966 64.9578 117.692 65.622 117.673 65.6773H117.669Z" fill="#455A64"/>
</g>
<defs>
<clipPath id="clip0_3634_14828">
<rect width="184" height="171" fill="white"/>
</clipPath>
</defs>
</svg>
