<svg width="210" height="185" viewBox="0 0 210 185" fill="none" xmlns="http://www.w3.org/2000/svg">
<g style="mix-blend-mode:multiply" opacity="0.3">
<g style="mix-blend-mode:multiply" opacity="0.5">
<path d="M104.998 185.001C162.986 185.001 209.995 170.976 209.995 153.675C209.995 136.375 162.986 122.35 104.998 122.35C47.009 122.35 0 136.375 0 153.675C0 170.976 47.009 185.001 104.998 185.001Z" fill="#C8C8C8"/>
</g>
<g style="mix-blend-mode:multiply" opacity="0.5">
<path d="M104.998 159.675C157.928 159.675 200.836 152.295 200.836 143.191C200.836 134.087 157.928 126.707 104.998 126.707C52.0683 126.707 9.16016 134.087 9.16016 143.191C9.16016 152.295 52.0683 159.675 104.998 159.675Z" fill="#C8C8C8"/>
</g>
</g>
<path d="M39.7672 38.0352H170.23C173.693 38.0352 176.505 40.8432 176.505 44.3022V140.543H33.4922V44.3022C33.4922 40.8432 36.3038 38.0352 39.7672 38.0352Z" fill="#252525"/>
<path d="M176.504 140.543H33.4916L19.3898 159.077C18.5774 160.146 18.1348 161.453 18.1348 162.793C18.1348 165.014 19.9346 166.811 22.1576 166.811H187.833C190.056 166.811 191.856 165.014 191.856 162.793C191.856 161.453 191.414 160.146 190.601 159.077L176.499 140.543H176.504Z" fill="#F2F2F2"/>
<path d="M175.946 140.543H34.0566V44.4912C34.0566 41.2945 36.6494 38.7051 39.8501 38.7051H170.147C173.348 38.7051 175.941 41.2945 175.941 44.4912V140.543H175.946Z" fill="#B1B1B1"/>
<path d="M18.5035 160.725C18.2651 161.385 18.1387 162.085 18.1387 162.794C18.1387 165.014 19.9385 166.812 22.1615 166.812H187.837C190.06 166.812 191.86 165.014 191.86 162.794C191.86 162.085 191.734 161.385 191.495 160.725H18.5035Z" fill="#D9D9D9"/>
<g style="mix-blend-mode:multiply">
<path d="M187.837 164.737H22.1615C19.9385 164.737 18.1387 162.789 18.1387 162.789C18.1387 165.009 19.9385 166.807 22.1615 166.807H187.837C190.06 166.807 191.86 165.009 191.86 162.789C191.86 162.789 190.06 164.737 187.837 164.737Z" fill="#D9D9D9"/>
</g>
<g style="mix-blend-mode:multiply">
<path d="M117.723 162.667H92.2729C91.1979 162.667 90.3223 161.797 90.3223 160.719H119.669C119.669 161.792 118.798 162.667 117.718 162.667H117.723Z" fill="#D9D9D9"/>
</g>
<path d="M175.031 138.852H34.9707V44.2877C34.9707 41.6934 37.111 39.5898 39.7524 39.5898H170.244C172.886 39.5898 175.026 41.6934 175.026 44.2877V138.857L175.031 138.852Z" fill="#252525"/>
<path d="M41.6887 42.8691H168.308C170.123 42.8691 171.597 44.3412 171.597 46.1533V134.48H38.4004V46.1581C38.4004 44.346 39.8743 42.874 41.6887 42.874V42.8691Z" fill="#DFDFDF"/>
<g style="mix-blend-mode:screen" opacity="0.3">
<path d="M171.602 134.48H38.4004V46.0513C38.4004 44.2926 39.9229 42.8691 41.7957 42.8691H137.945L171.602 134.48Z" fill="#B6B6B6"/>
</g>
<g style="mix-blend-mode:screen" opacity="0.3">
<path d="M164.193 134.48H38.4004V46.0513C38.4004 44.2926 39.9229 42.8691 41.7957 42.8691H130.537L164.193 134.48Z" fill="#B6B6B6"/>
</g>
<g style="mix-blend-mode:multiply">
<path d="M112.524 134.48H38.4004V46.0513C38.4004 44.2926 39.9229 42.8691 41.7957 42.8691H70.6998L112.524 134.48Z" fill="#B6B6B6"/>
</g>
<g style="mix-blend-mode:multiply">
<path d="M87.1658 134.48H38.4004V46.0513C38.4004 44.2926 39.9229 42.8691 41.7957 42.8691H45.337L87.1609 134.48H87.1658Z" fill="#B6B6B6"/>
</g>
<g style="mix-blend-mode:multiply">
<path d="M172.919 152.014H37.0814C35.9772 152.014 35.4032 150.654 36.0744 149.634L40.2238 143.342C40.5059 142.92 40.9485 142.662 41.4107 142.662H168.59C169.052 142.662 169.499 142.92 169.777 143.342L173.926 149.634C174.597 150.654 174.023 152.014 172.919 152.014Z" fill="#D9D9D9"/>
</g>
<g style="mix-blend-mode:multiply">
<path d="M122.864 158.085H87.1355C86.0556 158.085 85.3454 156.958 85.8076 155.986L86.8729 153.752C87.1161 153.242 87.6317 152.916 88.2008 152.916H121.799C122.363 152.916 122.884 153.242 123.127 153.752L124.192 155.986C124.654 156.958 123.944 158.085 122.864 158.085Z" fill="#D9D9D9"/>
</g>
<path d="M51.3287 143.69H44.5672C44.1684 143.69 43.9592 143.506 44.1051 143.277C44.2511 143.049 44.6888 142.869 45.0877 142.869H51.7908C52.1897 142.869 52.4086 143.054 52.2821 143.277C52.1557 143.506 51.7276 143.69 51.3287 143.69Z" fill="#505050"/>
<path d="M61.7044 143.69H54.9429C54.544 143.69 54.3154 143.506 54.437 143.277C54.5586 143.049 54.9769 142.869 55.3709 142.869H62.074C62.4729 142.869 62.7113 143.054 62.6091 143.277C62.507 143.506 62.1032 143.69 61.6995 143.69H61.7044Z" fill="#505050"/>
<path d="M72.0764 143.69H65.3149C64.9161 143.69 64.668 143.506 64.7653 143.277C64.8626 143.049 65.2614 142.869 65.6555 142.869H72.3586C72.7574 142.869 73.0153 143.054 72.9374 143.277C72.8596 143.506 72.4753 143.69 72.0716 143.69H72.0764Z" fill="#505050"/>
<path d="M82.447 143.69H75.6855C75.2867 143.69 75.0191 143.506 75.0921 143.277C75.165 143.049 75.5445 142.869 75.9385 142.869H82.6416C83.0405 142.869 83.3177 143.054 83.2642 143.277C83.2107 143.506 82.8459 143.69 82.447 143.69Z" fill="#505050"/>
<path d="M92.8221 143.69H86.0606C85.6617 143.69 85.3747 143.506 85.4233 143.277C85.472 143.049 85.8271 142.869 86.226 142.869H92.9291C93.328 142.869 93.6247 143.054 93.6004 143.277C93.5712 143.506 93.2258 143.69 92.8269 143.69H92.8221Z" fill="#505050"/>
<path d="M103.192 143.69H96.4309C96.032 143.69 95.7256 143.506 95.745 143.277C95.7693 143.049 96.105 142.869 96.5039 142.869H103.207C103.606 142.869 103.922 143.054 103.922 143.277C103.922 143.506 103.591 143.69 103.192 143.69Z" fill="#505050"/>
<path d="M113.569 143.69H106.808C106.409 143.69 106.083 143.506 106.078 143.277C106.078 143.049 106.394 142.869 106.793 142.869H113.496C113.895 142.869 114.231 143.054 114.255 143.277C114.279 143.506 113.973 143.69 113.569 143.69Z" fill="#505050"/>
<path d="M123.939 143.69H117.178C116.779 143.69 116.433 143.506 116.404 143.277C116.375 143.049 116.677 142.869 117.076 142.869H123.779C124.178 142.869 124.533 143.054 124.581 143.277C124.63 143.506 124.343 143.69 123.944 143.69H123.939Z" fill="#505050"/>
<path d="M134.31 143.69H127.548C127.149 143.69 126.78 143.506 126.731 143.277C126.678 143.049 126.96 142.869 127.354 142.869H134.057C134.456 142.869 134.83 143.054 134.903 143.277C134.976 143.506 134.709 143.69 134.31 143.69Z" fill="#505050"/>
<path d="M144.686 143.69H137.924C137.526 143.69 137.136 143.506 137.059 143.277C136.981 143.049 137.243 142.869 137.637 142.869H144.341C144.739 142.869 145.138 143.054 145.231 143.277C145.328 143.506 145.08 143.69 144.681 143.69H144.686Z" fill="#505050"/>
<path d="M155.058 143.69H148.296C147.897 143.69 147.489 143.506 147.387 143.277C147.284 143.049 147.528 142.869 147.922 142.869H154.625C155.024 142.869 155.442 143.054 155.559 143.277C155.68 143.506 155.452 143.69 155.053 143.69H155.058Z" fill="#505050"/>
<path d="M165.428 143.69H158.667C158.268 143.69 157.84 143.506 157.714 143.277C157.587 143.049 157.806 142.869 158.205 142.869H164.908C165.307 142.869 165.745 143.054 165.891 143.277C166.037 143.506 165.832 143.69 165.428 143.69Z" fill="#505050"/>
<path d="M50.0589 145.356H43.8471C43.2536 145.356 42.952 145.079 43.1709 144.734L43.278 144.569C43.492 144.229 44.1438 143.957 44.7275 143.957H50.8469C51.4307 143.957 51.7517 144.229 51.5669 144.569L51.4744 144.734C51.2847 145.074 50.6524 145.356 50.0589 145.356Z" fill="#505050"/>
<path d="M53.0324 147.106H42.8999C42.214 147.106 41.8686 146.78 42.1264 146.377C42.3794 145.979 43.1333 145.658 43.8095 145.658H53.7961C54.4722 145.658 54.8516 145.979 54.6473 146.377C54.443 146.78 53.7182 147.106 53.0324 147.106Z" fill="#505050"/>
<path d="M60.6105 145.356H54.3987C53.8053 145.356 53.4745 145.079 53.6545 144.734L53.742 144.569C53.922 144.229 54.5398 143.957 55.1235 143.957H61.2429C61.8266 143.957 62.1769 144.229 62.0261 144.569L61.9531 144.734C61.8023 145.074 61.1991 145.356 60.6057 145.356H60.6105Z" fill="#505050"/>
<path d="M71.167 145.356H64.9552C64.3617 145.356 64.0017 145.079 64.1477 144.734L64.2158 144.569C64.3568 144.229 64.9454 143.957 65.5292 143.957H71.6485C72.2323 143.957 72.6117 144.229 72.4998 144.569L72.4414 144.734C72.3247 145.074 71.7507 145.356 71.1621 145.356H71.167Z" fill="#505050"/>
<path d="M81.7223 145.356H75.5105C74.917 145.356 74.5279 145.079 74.6349 144.734L74.6884 144.569C74.7954 144.229 75.3548 143.957 75.9385 143.957H82.0579C82.6417 143.957 83.0503 144.229 82.9773 144.569L82.9384 144.734C82.8605 145.074 82.3157 145.356 81.7223 145.356Z" fill="#505050"/>
<path d="M92.2731 145.356H86.0612C85.4678 145.356 85.0446 145.079 85.1176 144.734L85.1516 144.569C85.2197 144.229 85.7499 143.957 86.3337 143.957H92.453C93.0368 143.957 93.4794 144.229 93.4356 144.569L93.4162 144.734C93.3773 145.074 92.8616 145.356 92.2682 145.356H92.2731Z" fill="#505050"/>
<path d="M102.829 145.356H96.6171C96.0237 145.356 95.5713 145.079 95.6053 144.734L95.6199 144.569C95.654 144.229 96.1501 143.957 96.7339 143.957H102.853C103.437 143.957 103.909 144.229 103.904 144.569V144.734C103.899 145.074 103.413 145.356 102.824 145.356H102.829Z" fill="#505050"/>
<path d="M113.38 145.356H107.168C106.574 145.356 106.093 145.079 106.088 144.734V144.569C106.083 144.229 106.55 143.957 107.134 143.957H113.253C113.837 143.957 114.338 144.229 114.367 144.569L114.382 144.734C114.416 145.074 113.963 145.356 113.37 145.356H113.38Z" fill="#505050"/>
<path d="M123.934 145.356H117.723C117.129 145.356 116.618 145.079 116.575 144.734L116.555 144.569C116.516 144.229 116.954 143.957 117.538 143.957H123.657C124.241 143.957 124.771 144.229 124.839 144.569L124.873 144.734C124.941 145.074 124.523 145.356 123.93 145.356H123.934Z" fill="#505050"/>
<path d="M134.49 145.356H128.278C127.685 145.356 127.145 145.079 127.062 144.734L127.023 144.569C126.945 144.229 127.359 143.957 127.942 143.957H134.062C134.646 143.957 135.205 144.229 135.312 144.569L135.365 144.734C135.473 145.074 135.078 145.356 134.49 145.356Z" fill="#505050"/>
<path d="M145.042 145.356H138.83C138.236 145.356 137.662 145.079 137.551 144.734L137.492 144.569C137.38 144.229 137.76 143.957 138.343 143.957H144.463C145.047 143.957 145.635 144.229 145.776 144.569L145.849 144.734C145.995 145.074 145.63 145.356 145.042 145.356Z" fill="#505050"/>
<path d="M155.597 145.356H149.385C148.792 145.356 148.188 145.079 148.038 144.734L147.965 144.569C147.814 144.229 148.164 143.957 148.748 143.957H154.867C155.451 143.957 156.069 144.229 156.249 144.569L156.336 144.734C156.516 145.074 156.185 145.356 155.592 145.356H155.597Z" fill="#505050"/>
<path d="M166.153 145.356H159.941C159.347 145.356 158.715 145.079 158.525 144.734L158.433 144.569C158.243 144.229 158.569 143.957 159.153 143.957H165.272C165.856 143.957 166.503 144.229 166.722 144.569L166.829 144.734C167.048 145.074 166.746 145.356 166.153 145.356Z" fill="#505050"/>
<path d="M46.9416 150.871H40.3796C39.7521 150.871 39.4456 150.56 39.6888 150.181L39.8056 149.997C40.0488 149.618 40.7396 149.316 41.3573 149.316H47.8221C48.4399 149.316 48.7706 149.618 48.5615 149.997L48.4593 150.181C48.2502 150.56 47.5691 150.871 46.9416 150.871Z" fill="#505050"/>
<path d="M58.096 150.871H51.5339C50.9064 150.871 50.5659 150.56 50.7702 150.181L50.8675 149.997C51.0669 149.618 51.7285 149.316 52.3463 149.316H58.811C59.4288 149.316 59.7936 149.618 59.6234 149.997L59.5407 150.181C59.3704 150.56 58.7235 150.871 58.1008 150.871H58.096Z" fill="#505050"/>
<path d="M69.2454 150.871H62.6834C62.0559 150.871 61.6813 150.56 61.8418 150.181L61.9197 149.997C62.0802 149.618 62.7077 149.316 63.3255 149.316H69.7902C70.408 149.316 70.802 149.618 70.6755 149.997L70.6123 150.181C70.4858 150.56 69.8729 150.871 69.2454 150.871Z" fill="#505050"/>
<path d="M147.312 150.871H140.75C140.123 150.871 139.515 150.56 139.384 150.181L139.32 149.997C139.194 149.618 139.593 149.316 140.206 149.316H146.665C147.283 149.316 147.911 149.618 148.071 149.997L148.149 150.181C148.31 150.56 147.935 150.871 147.308 150.871H147.312Z" fill="#505050"/>
<path d="M158.466 150.871H151.904C151.277 150.871 150.635 150.56 150.464 150.181L150.382 149.997C150.211 149.618 150.576 149.316 151.194 149.316H157.654C158.272 149.316 158.933 149.618 159.133 149.997L159.23 150.181C159.434 150.56 159.089 150.871 158.466 150.871Z" fill="#505050"/>
<path d="M169.622 150.871H163.06C162.432 150.871 161.756 150.56 161.542 150.181L161.44 149.997C161.231 149.618 161.561 149.316 162.179 149.316H168.639C169.257 149.316 169.947 149.618 170.191 149.997L170.307 150.181C170.551 150.56 170.244 150.871 169.617 150.871H169.622Z" fill="#505050"/>
<path d="M64.0644 147.106H57.7455C57.1423 147.106 56.797 146.819 56.9672 146.465L57.0499 146.29C57.2202 145.94 57.838 145.658 58.4363 145.658H64.6627C65.2561 145.658 65.6258 145.94 65.4847 146.29L65.4166 146.465C65.2756 146.819 64.6675 147.106 64.0644 147.106Z" fill="#505050"/>
<path d="M74.8101 147.106H68.4913C67.8881 147.106 67.5087 146.819 67.6449 146.465L67.7081 146.29C67.8395 145.94 68.428 145.658 69.0215 145.658H75.2479C75.8414 145.658 76.2402 145.94 76.1381 146.29L76.0894 146.465C75.9873 146.819 75.4133 147.106 74.8101 147.106Z" fill="#505050"/>
<path d="M85.5543 147.106H79.2355C78.6323 147.106 78.2237 146.819 78.321 146.465L78.3696 146.29C78.4669 145.94 79.0214 145.658 79.6149 145.658H85.8413C86.4347 145.658 86.8628 145.94 86.7996 146.29L86.7655 146.465C86.7023 146.819 86.1575 147.106 85.5543 147.106Z" fill="#505050"/>
<path d="M96.2958 147.106H89.977C89.3738 147.106 88.9312 146.819 88.9895 146.465L89.0187 146.29C89.0771 145.94 89.6025 145.658 90.1959 145.658H96.4223C97.0158 145.658 97.4779 145.94 97.4487 146.29L97.4341 146.465C97.4049 146.819 96.8942 147.106 96.291 147.106H96.2958Z" fill="#505050"/>
<path d="M107.041 147.106H100.722C100.119 147.106 99.6471 146.819 99.6666 146.465L99.6763 146.29C99.6958 145.94 100.192 145.658 100.785 145.658H107.012C107.605 145.658 108.097 145.94 108.106 146.29V146.465C108.121 146.819 107.644 147.106 107.041 147.106Z" fill="#505050"/>
<path d="M117.786 147.106H111.467C110.864 147.106 110.358 146.819 110.338 146.465L110.329 146.29C110.309 145.94 110.776 145.658 111.37 145.658H117.596C118.19 145.658 118.71 145.94 118.759 146.29L118.783 146.465C118.832 146.819 118.384 147.106 117.781 147.106H117.786Z" fill="#505050"/>
<path d="M128.526 147.106H122.208C121.604 147.106 121.069 146.819 121.011 146.465L120.982 146.29C120.923 145.94 121.361 145.658 121.955 145.658H128.181C128.775 145.658 129.324 145.94 129.412 146.29L129.456 146.465C129.543 146.819 129.125 147.106 128.526 147.106Z" fill="#505050"/>
<path d="M139.272 147.106H132.953C132.35 147.106 131.785 146.819 131.688 146.465L131.639 146.29C131.542 145.94 131.951 145.658 132.544 145.658H138.771C139.364 145.658 139.948 145.94 140.074 146.29L140.137 146.465C140.264 146.819 139.88 147.106 139.276 147.106H139.272Z" fill="#505050"/>
<path d="M150.014 147.106H143.695C143.092 147.106 142.493 146.819 142.357 146.465L142.294 146.29C142.162 145.94 142.537 145.658 143.13 145.658H149.357C149.95 145.658 150.563 145.94 150.729 146.29L150.811 146.465C150.977 146.819 150.622 147.106 150.018 147.106H150.014Z" fill="#505050"/>
<path d="M167.102 147.106H155.106C154.42 147.106 153.705 146.78 153.506 146.377C153.311 145.979 153.695 145.658 154.371 145.658H166.192C166.868 145.658 167.617 145.979 167.875 146.377C168.133 146.78 167.787 147.106 167.102 147.106Z" fill="#505050"/>
<path d="M58.9219 148.912H41.6777C41.0259 148.912 40.7 148.597 40.9529 148.208L41.0162 148.111C41.2643 147.727 41.9793 147.416 42.6214 147.416H59.6078C60.2499 147.416 60.6293 147.727 60.4591 148.111L60.4153 148.208C60.2402 148.597 59.5738 148.912 58.9219 148.912Z" fill="#505050"/>
<path d="M69.926 148.913H63.4905C62.8776 148.913 62.5079 148.612 62.6587 148.248L62.7365 148.068C62.8922 147.704 63.5051 147.412 64.1082 147.412H70.4514C71.0546 147.412 71.4486 147.704 71.327 148.068L71.2686 148.248C71.147 148.617 70.5487 148.913 69.9309 148.913H69.926Z" fill="#505050"/>
<path d="M80.8653 148.913H74.4298C73.8169 148.913 73.4131 148.612 73.5299 148.248L73.5882 148.068C73.7001 147.704 74.2838 147.412 74.887 147.412H81.2302C81.8334 147.412 82.2566 147.704 82.1739 148.068L82.135 148.248C82.0523 148.617 81.4831 148.913 80.8702 148.913H80.8653Z" fill="#505050"/>
<path d="M91.8061 148.913H85.3705C84.7576 148.913 84.3198 148.612 84.3976 148.248L84.4366 148.068C84.5095 147.704 85.0592 147.412 85.6672 147.412H92.0104C92.6136 147.412 93.0708 147.704 93.027 148.068L93.0076 148.248C92.9638 148.617 92.4287 148.913 91.8158 148.913H91.8061Z" fill="#505050"/>
<path d="M102.745 148.913H96.3093C95.6964 148.913 95.2294 148.612 95.2635 148.248L95.2829 148.068C95.317 147.704 95.8375 147.412 96.4406 147.412H102.784C103.387 147.412 103.873 147.704 103.873 148.068V148.248C103.869 148.617 103.368 148.913 102.755 148.913H102.745Z" fill="#505050"/>
<path d="M113.691 148.913H107.256C106.643 148.913 106.142 148.612 106.137 148.248V148.068C106.132 147.704 106.618 147.412 107.222 147.412H113.565C114.168 147.412 114.688 147.704 114.722 148.068L114.742 148.248C114.776 148.617 114.309 148.913 113.696 148.913H113.691Z" fill="#505050"/>
<path d="M124.63 148.913H118.195C117.582 148.913 117.047 148.612 117.003 148.248L116.983 148.068C116.94 147.704 117.397 147.412 118 147.412H124.343C124.946 147.412 125.496 147.704 125.574 148.068L125.613 148.248C125.691 148.617 125.253 148.913 124.64 148.913H124.63Z" fill="#505050"/>
<path d="M135.57 148.913H129.134C128.521 148.913 127.952 148.612 127.87 148.248L127.831 148.068C127.748 147.704 128.171 147.412 128.774 147.412H135.117C135.721 147.412 136.304 147.704 136.416 148.068L136.475 148.248C136.591 148.617 136.188 148.913 135.575 148.913H135.57Z" fill="#505050"/>
<path d="M146.9 148.913H140.464C139.851 148.913 139.253 148.612 139.126 148.248L139.063 148.068C138.942 147.704 139.331 147.412 139.934 147.412H146.277C146.88 147.412 147.498 147.704 147.654 148.068L147.732 148.248C147.887 148.617 147.518 148.913 146.905 148.913H146.9Z" fill="#505050"/>
<path d="M168.429 148.913H151.72C151.127 148.913 150.519 148.627 150.358 148.272L150.256 148.044C150.096 147.694 150.441 147.412 151.025 147.412H167.486C168.069 147.412 168.721 147.694 168.945 148.044L169.091 148.272C169.32 148.627 169.023 148.913 168.429 148.913Z" fill="#505050"/>
<path d="M134.836 149.311H75.1649C74.0753 149.311 73.1414 149.481 73.0732 149.694L72.83 150.477C72.7619 150.695 73.6035 150.87 74.7077 150.87H135.298C136.403 150.87 137.244 150.695 137.176 150.477L136.933 149.694C136.865 149.481 135.931 149.311 134.841 149.311H134.836Z" fill="#505050"/>
<path d="M131.98 82.5548C131.28 82.5353 125.136 85.9507 125.734 88.4283C126.337 90.906 133.761 103.615 134.797 104.081C135.833 104.548 141.407 103.1 141.407 103.1C141.407 103.1 136.086 82.6617 131.98 82.5548Z" fill="#EFC3A1"/>
<g style="mix-blend-mode:multiply" opacity="0.2">
<path d="M135.896 91.3721C135.754 91.3721 131.649 84.0848 131.26 84.2549C132.252 88.3989 135.716 102.706 135.356 104.173C137.102 104.217 141.407 103.1 141.407 103.1C141.407 103.1 140.006 91.479 135.9 91.3721H135.896Z" fill="#EFB996"/>
</g>
<path d="M153.841 92.0863C153.087 91.1195 149.201 86.0524 147.333 85.7852C145.465 85.518 135.527 77.0842 132.72 76.817C129.913 76.5498 118.2 78.017 118.467 79.217C118.735 80.4169 120.068 82.6857 123.142 82.9529C126.216 83.2201 130.687 83.0209 130.687 83.0209C130.687 83.0209 134.369 91.139 135.77 91.6394C136.66 91.9551 137.02 97.2894 137.954 98.6254C137.954 98.6254 137.186 102.23 134.972 99.3882C134.748 99.1015 134.534 98.7809 134.32 98.4457C134.301 98.5283 134.286 98.6157 134.267 98.6983C134.267 98.7518 134.267 98.8101 134.267 98.8635C134.189 102.575 131.159 104.101 127.992 103.688C128.799 105.879 129.261 107.526 129.631 108.405C130.935 111.509 134.335 112.836 136.339 115.274C138.426 117.825 140.163 122.095 140.163 122.761H156.984C156.984 122.761 156.351 95.2927 153.846 92.0912L153.841 92.0863Z" fill="#F7D1AF"/>
<path d="M125.676 83.0788C126.371 83.0934 127.062 83.0934 127.699 83.0934C127.68 83.0497 127.665 83.0254 127.665 83.0254C127.665 83.0254 126.848 83.0594 125.676 83.0837V83.0788Z" fill="#FDDEC8"/>
<path d="M153.84 92.0867C153.086 91.12 149.2 86.0529 147.332 85.7857C145.464 85.5185 135.526 77.0846 132.719 76.8174C132.13 76.7591 131.143 76.7834 129.961 76.8612C133.069 77.5607 142.496 85.5282 144.316 85.7857C146.184 86.0529 151.165 91.6495 151.919 92.6114C154.424 95.813 155.299 122.752 155.299 122.752H156.978C156.978 122.752 156.345 95.2834 153.84 92.0819V92.0867Z" fill="#FDDEC8"/>
<path d="M157.611 121.293C156.356 121.186 153.248 120.973 148.242 120.973C143.237 120.973 140.124 121.186 138.874 121.293C138.514 121.322 138.236 121.624 138.236 121.983V125.35H158.248V121.983C158.248 121.624 157.971 121.322 157.611 121.293Z" fill="white"/>
<path d="M138.23 122.757V125.356H158.243V124.311C156.589 124.185 153.261 123.991 148.236 123.991C144.793 123.991 138.766 123.16 138.23 122.752V122.757Z" fill="#E2E3E4"/>
<path d="M159.522 125.279C158.155 125.079 154.045 124.574 148.032 124.574C142.02 124.574 138.25 125.075 136.951 125.274C136.669 125.318 136.455 125.56 136.455 125.847V134.48H160.018V125.857C160.018 125.565 159.804 125.322 159.517 125.279H159.522Z" fill="#46474C"/>
<path d="M139.583 126.445C138.645 126.445 137.881 127.208 137.881 128.146C137.881 129.083 138.645 129.846 139.583 129.846C140.522 129.846 141.286 129.083 141.286 128.146C141.286 127.208 140.522 126.445 139.583 126.445Z" fill="#E8543F"/>
<g style="mix-blend-mode:multiply" opacity="0.3">
<path d="M136.455 126.445V134.481H160.018V131.925C160.018 131.634 142.156 134.058 136.455 126.445Z" fill="#393E45"/>
</g>
<g style="mix-blend-mode:multiply" opacity="0.2">
<path d="M122.811 122.801L43.8965 112.094L54.4035 42.8691H131.261L122.811 122.801Z" fill="#BFBFBB"/>
</g>
<path d="M145.442 11.2996L63.5 0.00195312L48.6284 107.591L130.57 118.889L145.442 11.2996Z" fill="white"/>
<path d="M84.8683 25.9473L60.375 22.5703L48.6226 107.594L73.1159 110.971L84.8683 25.9473Z" fill="#E8543F"/>
<g style="mix-blend-mode:multiply">
<path d="M145.438 11.3028L87.9941 3.38281L84.8749 25.9489L142.318 33.8689L145.438 11.3028Z" fill="#B6B6B6"/>
</g>
<path d="M142.316 33.8692L84.873 25.9492L84.5611 28.2063L142.004 36.1263L142.316 33.8692Z" fill="#E8543F"/>
<path d="M130.959 116.66L73.5156 108.74L73.2036 110.997L130.647 118.917L130.959 116.66Z" fill="#E8543F"/>
<path d="M104.474 17.1442L95.0666 15.847C93.8213 15.677 92.9506 14.5305 93.1209 13.2868C93.2911 12.0431 94.4391 11.1735 95.6844 11.3435L105.092 12.6406C106.337 12.8107 107.208 13.9572 107.038 15.2009C106.868 16.4446 105.72 17.3142 104.474 17.1442Z" fill="white"/>
<path d="M124.062 19.8445L110.549 17.9838C109.304 17.8137 108.433 16.6672 108.603 15.4235C108.774 14.1798 109.922 13.3102 111.167 13.4802L124.68 15.3409C125.925 15.5109 126.796 16.6575 126.626 17.9012C126.456 19.1449 125.308 20.0145 124.062 19.8445Z" fill="white"/>
<path d="M102.712 20.6572L92.7257 19.2823C92.4922 19.2483 92.3317 19.0346 92.3608 18.8014C92.3949 18.5682 92.6089 18.4079 92.8424 18.437L102.829 19.8119C103.062 19.8459 103.223 20.0596 103.194 20.2928C103.16 20.526 102.946 20.6864 102.712 20.6572Z" fill="white"/>
<path d="M114.839 22.3291L104.853 20.9542C104.619 20.9202 104.459 20.7064 104.488 20.4733C104.522 20.2401 104.736 20.0797 104.969 20.1089L114.956 21.4838C115.189 21.5178 115.35 21.7315 115.321 21.9647C115.287 22.1979 115.073 22.3582 114.839 22.3291Z" fill="white"/>
<path d="M125.389 23.7806L117.271 22.6632C117.037 22.6292 116.877 22.4154 116.906 22.1822C116.94 21.949 117.154 21.7887 117.387 21.8179L125.506 22.9353C125.739 22.9693 125.9 23.183 125.871 23.4162C125.837 23.6494 125.623 23.8097 125.389 23.7806Z" fill="white"/>
<path d="M97.6335 22.5668L92.3702 21.8429C92.1367 21.8089 91.9762 21.5951 92.0054 21.3619C92.0394 21.1287 92.2535 20.9684 92.487 20.9976L97.7502 21.7214C97.9837 21.7554 98.1442 21.9692 98.115 22.2024C98.081 22.4356 97.867 22.5959 97.6335 22.5668Z" fill="white"/>
<path d="M105.411 23.641L100.148 22.9171C99.9141 22.8831 99.7535 22.6693 99.7827 22.4361C99.8168 22.2029 100.031 22.0426 100.264 22.0718L105.528 22.7956C105.761 22.8297 105.922 23.0434 105.892 23.2766C105.858 23.5098 105.644 23.6701 105.411 23.641Z" fill="white"/>
<path d="M118.263 25.4092L108.286 24.0343C108.053 24.0003 107.892 23.7865 107.921 23.5533C107.955 23.3201 108.169 23.1598 108.403 23.189L118.38 24.5638C118.613 24.5978 118.774 24.8116 118.745 25.0448C118.711 25.278 118.497 25.4383 118.263 25.4092Z" fill="white"/>
<path d="M125.034 26.3419L120.86 25.7687C120.627 25.7347 120.466 25.5209 120.496 25.2877C120.53 25.0545 120.744 24.8942 120.977 24.9233L125.151 25.4966C125.384 25.5306 125.545 25.7444 125.516 25.9776C125.482 26.2108 125.268 26.3711 125.034 26.3419Z" fill="white"/>
<path d="M100.861 41.9651L89.8819 40.4542C89.6484 40.4202 89.4879 40.2064 89.5171 39.9733C89.5511 39.7401 89.7652 39.5797 89.9987 39.6089L100.978 41.1198C101.211 41.1538 101.372 41.3676 101.342 41.6007C101.308 41.8339 101.094 41.9943 100.861 41.9651Z" fill="#6DAFDC"/>
<path d="M107.165 42.8354L103.458 42.3253C103.225 42.2913 103.064 42.0775 103.093 41.8443C103.127 41.6112 103.341 41.4508 103.575 41.48L107.281 41.9901C107.515 42.0241 107.676 42.2379 107.646 42.4711C107.612 42.7042 107.398 42.8646 107.165 42.8354Z" fill="#6DAFDC"/>
<path d="M118.947 44.4615L109.763 43.1984C109.529 43.1643 109.369 42.9506 109.398 42.7174C109.432 42.4842 109.646 42.3239 109.88 42.353L119.063 43.6162C119.297 43.6502 119.457 43.8639 119.428 44.0971C119.394 44.3303 119.18 44.4906 118.947 44.4615Z" fill="#6DAFDC"/>
<path d="M127.235 45.6048L121.962 44.8761C121.729 44.8421 121.568 44.6283 121.597 44.3951C121.631 44.1619 121.845 44.0016 122.079 44.0308L127.352 44.7595C127.585 44.7935 127.746 45.0073 127.717 45.2405C127.683 45.4736 127.468 45.634 127.235 45.6048Z" fill="#6DAFDC"/>
<path d="M99.1964 47.0185L89.1612 45.6339C88.9277 45.5999 88.7672 45.3861 88.7964 45.1529C88.8304 44.9197 89.0445 44.7594 89.278 44.7886L99.3132 46.1732C99.5467 46.2072 99.7072 46.4209 99.678 46.6541C99.644 46.8873 99.4299 47.0476 99.1964 47.0185Z" fill="#6DAFDC"/>
<path d="M104.995 47.82L101.653 47.3585C101.42 47.3245 101.259 47.1107 101.289 46.8775C101.323 46.6444 101.537 46.484 101.77 46.5132L105.112 46.9747C105.345 47.0087 105.506 47.2225 105.477 47.4557C105.443 47.6889 105.229 47.8492 104.995 47.82Z" fill="#6DAFDC"/>
<path d="M115.834 49.3116L107.452 48.1554C107.219 48.1214 107.058 47.9076 107.087 47.6744C107.121 47.4412 107.335 47.2809 107.569 47.3101L115.95 48.4663C116.184 48.5003 116.344 48.7141 116.315 48.9473C116.281 49.1805 116.067 49.3408 115.834 49.3116Z" fill="#6DAFDC"/>
<path d="M122.68 46.6636L127.005 47.2611C127.238 47.2951 127.399 47.5089 127.37 47.7421C127.336 47.9753 127.121 48.1356 126.888 48.1065L122.564 47.5089C122.33 47.4749 122.17 47.2611 122.199 47.0279C122.233 46.7947 122.447 46.6344 122.68 46.6636Z" fill="#6DAFDC"/>
<path d="M114.786 45.5757L119.64 46.2461C119.874 46.2801 120.034 46.4939 120.005 46.7271C119.971 46.9603 119.757 47.1206 119.524 47.0914L114.669 46.421C114.436 46.387 114.275 46.1732 114.304 45.94C114.338 45.7069 114.552 45.5465 114.786 45.5757Z" fill="#6DAFDC"/>
<path d="M100.028 43.5386L111.741 45.1515C111.975 45.1855 112.135 45.3993 112.106 45.6325C112.072 45.8656 111.858 46.026 111.625 45.9968L99.9112 44.3839C99.6777 44.3499 99.5172 44.1361 99.5464 43.9029C99.5804 43.6697 99.7945 43.5094 100.028 43.5386Z" fill="#6DAFDC"/>
<path d="M89.6471 42.1108L97.0847 43.1359C97.3182 43.1699 97.4788 43.3837 97.4496 43.6169C97.4155 43.8501 97.2015 44.0104 96.968 43.9812L89.5304 42.9562C89.2969 42.9222 89.1363 42.7084 89.1655 42.4752C89.1996 42.242 89.4136 42.0817 89.6471 42.1108Z" fill="#6DAFDC"/>
<path d="M101.342 38.7538L90.9322 37.3207C90.3631 37.2429 89.9691 36.7183 90.0469 36.1498C90.1247 35.5814 90.6501 35.1879 91.6084 35.2656L102.018 36.6988C102.193 36.7765 102.592 37.3012 102.514 37.8696C102.436 38.438 101.911 38.8316 101.342 38.7538Z" fill="#6D95B8"/>
<path d="M111.571 40.1139L104.97 39.2054C104.012 39.1277 103.613 38.603 103.691 38.0346C103.769 37.4662 104.294 37.0727 104.863 37.1504L111.464 38.0589C112.034 38.1366 112.428 38.6613 112.35 39.2297C112.272 39.7981 111.747 40.1916 111.571 40.1139Z" fill="#6D95B8"/>
<path d="M98.2866 60.5706L87.3077 59.0597C87.0742 59.0257 86.9137 58.8119 86.9429 58.5787C86.9769 58.3455 87.191 58.1852 87.4245 58.2144L98.4033 59.7253C98.6368 59.7593 98.7974 59.973 98.7682 60.2062C98.7341 60.4394 98.5201 60.5997 98.2866 60.5706Z" fill="#6DAFDC"/>
<path d="M104.591 61.435L100.884 60.9249C100.65 60.8909 100.49 60.6771 100.519 60.444C100.553 60.2108 100.767 60.0504 101.001 60.0796L104.707 60.5897C104.941 60.6237 105.101 60.8375 105.072 61.0707C105.038 61.3039 104.824 61.4642 104.591 61.435Z" fill="#6DAFDC"/>
<path d="M116.373 63.063L107.189 61.7999C106.955 61.7659 106.795 61.5521 106.824 61.319C106.858 61.0858 107.072 60.9254 107.305 60.9546L116.489 62.2177C116.723 62.2517 116.883 62.4655 116.854 62.6987C116.82 62.9319 116.606 63.0922 116.373 63.063Z" fill="#6DAFDC"/>
<path d="M124.661 64.2044L119.388 63.4757C119.154 63.4417 118.994 63.2279 119.023 62.9947C119.057 62.7615 119.271 62.6012 119.505 62.6304L124.778 63.3591C125.011 63.3931 125.172 63.6069 125.142 63.8401C125.108 64.0733 124.894 64.2336 124.661 64.2044Z" fill="#6DAFDC"/>
<path d="M120.108 65.2651L124.432 65.8627C124.666 65.8967 124.826 66.1105 124.797 66.3437C124.763 66.5769 124.549 66.7372 124.316 66.708L119.991 66.1105C119.758 66.0765 119.597 65.8627 119.626 65.6295C119.661 65.3963 119.875 65.236 120.108 65.2651Z" fill="#6DAFDC"/>
<path d="M112.214 64.1772L117.068 64.8477C117.302 64.8817 117.462 65.0954 117.433 65.3286C117.399 65.5618 117.185 65.7221 116.951 65.693L112.097 65.0226C111.863 64.9886 111.703 64.7748 111.732 64.5416C111.766 64.3084 111.98 64.1481 112.214 64.1772Z" fill="#6DAFDC"/>
<path d="M97.4596 62.1401L109.173 63.7531C109.407 63.7871 109.567 64.0008 109.538 64.234C109.504 64.4672 109.29 64.6275 109.056 64.5984L97.3429 62.9855C97.1094 62.9515 96.9488 62.7377 96.978 62.5045C97.0121 62.2713 97.2261 62.111 97.4596 62.1401Z" fill="#6DAFDC"/>
<path d="M87.0787 60.7124L94.5164 61.7375C94.7499 61.7715 94.9104 61.9853 94.8812 62.2184C94.8472 62.4516 94.6331 62.612 94.3996 62.5828L86.962 61.5577C86.7285 61.5237 86.568 61.31 86.5972 61.0768C86.6312 60.8436 86.8453 60.6833 87.0787 60.7124Z" fill="#6DAFDC"/>
<path d="M98.8755 55.2266L109.285 56.6598C109.854 56.7375 110.248 57.2622 110.171 57.8306C110.093 58.399 109.567 58.7925 108.998 58.7148L98.5885 57.2816C98.0193 57.2039 97.6253 56.6792 97.7032 56.1108C97.781 55.5424 98.3063 55.1489 98.8755 55.2266Z" fill="#6D95B8"/>
<path d="M89.0342 53.8672L95.6351 54.7757C95.8102 54.8534 96.2091 55.3781 96.1313 55.9465C96.0534 56.5149 95.5281 56.9084 94.959 56.8307L88.358 55.9222C87.7889 55.8445 87.3949 55.3198 87.4727 54.7514C87.5505 54.183 88.0759 53.7895 89.0342 53.8672Z" fill="#6D95B8"/>
<path d="M96.0874 76.4886L85.1085 74.9777C84.875 74.9436 84.7145 74.7299 84.7437 74.4967C84.7777 74.2635 84.9917 74.1032 85.2252 74.1323L96.2041 75.6432C96.4376 75.6772 96.5981 75.891 96.569 76.1242C96.5349 76.3574 96.3209 76.5177 96.0874 76.4886Z" fill="#6DAFDC"/>
<path d="M102.391 77.3589L98.6847 76.8487C98.4512 76.8147 98.2906 76.601 98.3198 76.3678C98.3539 76.1346 98.5679 75.9743 98.8014 76.0034L102.508 76.5135C102.742 76.5475 102.902 76.7613 102.873 76.9945C102.839 77.2277 102.625 77.388 102.391 77.3589Z" fill="#6DAFDC"/>
<path d="M114.173 78.981L104.989 77.7179C104.756 77.6839 104.595 77.4701 104.625 77.2369C104.659 77.0037 104.873 76.8434 105.106 76.8726L114.29 78.1357C114.524 78.1697 114.684 78.3835 114.655 78.6167C114.621 78.8498 114.407 79.0102 114.173 78.981Z" fill="#6DAFDC"/>
<path d="M122.462 80.1224L117.189 79.3937C116.955 79.3597 116.795 79.1459 116.824 78.9127C116.858 78.6795 117.072 78.5192 117.305 78.5483L122.578 79.2771C122.812 79.3111 122.972 79.5248 122.943 79.758C122.909 79.9912 122.695 80.1515 122.462 80.1224Z" fill="#6DAFDC"/>
<path d="M94.423 81.5419L84.3878 80.1573C84.1543 80.1233 83.9938 79.9096 84.023 79.6764C84.057 79.4432 84.271 79.2829 84.5045 79.312L94.5397 80.6966C94.7732 80.7306 94.9338 80.9444 94.9046 81.1776C94.8705 81.4107 94.6565 81.5711 94.423 81.5419Z" fill="#6DAFDC"/>
<path d="M100.226 82.3396L96.8839 81.878C96.6504 81.844 96.4899 81.6303 96.519 81.3971C96.5531 81.1639 96.7671 81.0036 97.0006 81.0327L100.342 81.4942C100.576 81.5283 100.736 81.742 100.707 81.9752C100.673 82.2084 100.459 82.3687 100.226 82.3396Z" fill="#6DAFDC"/>
<path d="M111.064 83.8351L102.683 82.6788C102.449 82.6448 102.289 82.4311 102.318 82.1979C102.352 81.9647 102.566 81.8043 102.799 81.8335L111.181 82.9897C111.414 83.0238 111.575 83.2375 111.546 83.4707C111.512 83.7039 111.298 83.8642 111.064 83.8351Z" fill="#6DAFDC"/>
<path d="M117.909 81.1831L122.233 81.7807C122.467 81.8147 122.627 82.0284 122.598 82.2616C122.564 82.4948 122.35 82.6551 122.117 82.626L117.792 82.0284C117.559 81.9944 117.398 81.7807 117.427 81.5475C117.461 81.3143 117.675 81.154 117.909 81.1831Z" fill="#6DAFDC"/>
<path d="M110.014 80.0952L114.869 80.7656C115.102 80.7997 115.263 81.0134 115.234 81.2466C115.2 81.4798 114.986 81.6401 114.752 81.611L109.898 80.9405C109.664 80.9065 109.504 80.6928 109.533 80.4596C109.567 80.2264 109.781 80.0661 110.014 80.0952Z" fill="#6DAFDC"/>
<path d="M95.2604 78.0581L106.974 79.671C107.207 79.705 107.368 79.9188 107.339 80.152C107.305 80.3852 107.091 80.5455 106.857 80.5164L95.1436 78.9034C94.9102 78.8694 94.7496 78.6557 94.7788 78.4225C94.8129 78.1893 95.0269 78.029 95.2604 78.0581Z" fill="#6DAFDC"/>
<path d="M84.8795 76.6304L92.3172 77.6555C92.5506 77.6895 92.7112 77.9032 92.682 78.1364C92.6479 78.3696 92.4339 78.5299 92.2004 78.5008L84.7628 77.4757C84.5293 77.4417 84.3688 77.2279 84.398 76.9947C84.432 76.7615 84.646 76.6012 84.8795 76.6304Z" fill="#6DAFDC"/>
<path d="M96.9631 73.2773L86.5533 71.8441C85.9842 71.7664 85.5902 71.2417 85.668 70.6733C85.7458 70.1049 86.2712 69.7114 86.8403 69.7891L97.2501 71.2223C97.8192 71.3 98.2132 71.8247 98.1354 72.3931C98.0576 72.9615 97.5322 73.355 96.9631 73.2773Z" fill="#6D95B8"/>
<path d="M106.41 74.6334L99.8092 73.725C99.24 73.6472 98.846 73.1225 98.9239 72.5541C99.0017 71.9857 99.527 71.5922 100.096 71.6699L106.697 72.5784C107.266 72.6562 107.66 73.1808 107.582 73.7493C107.505 74.3177 106.979 74.7112 106.41 74.6334Z" fill="#6D95B8"/>
<path d="M93.6323 94.2737L82.6534 92.7628C82.4199 92.7288 82.2594 92.515 82.2886 92.2818C82.3226 92.0487 82.5367 91.8883 82.7701 91.9175L93.749 93.4284C93.9825 93.4624 94.1431 93.6761 94.1139 93.9093C94.0798 94.1425 93.8658 94.3029 93.6323 94.2737Z" fill="#6DAFDC"/>
<path d="M99.9362 95.144L96.2296 94.6339C95.9961 94.5999 95.8356 94.3861 95.8648 94.1529C95.8988 93.9197 96.1128 93.7594 96.3463 93.7886L100.053 94.2987C100.286 94.3327 100.447 94.5464 100.418 94.7796C100.384 95.0128 100.17 95.1732 99.9362 95.144Z" fill="#6DAFDC"/>
<path d="M111.718 96.7662L102.534 95.503C102.301 95.469 102.14 95.2553 102.169 95.0221C102.203 94.7889 102.418 94.6286 102.651 94.6577L111.835 95.9208C112.068 95.9549 112.229 96.1686 112.2 96.4018C112.166 96.635 111.952 96.7953 111.718 96.7662Z" fill="#6DAFDC"/>
<path d="M120.006 97.9076L114.733 97.1788C114.5 97.1448 114.339 96.9311 114.369 96.6979C114.403 96.4647 114.617 96.3043 114.85 96.3335L120.123 97.0622C120.357 97.0962 120.517 97.31 120.488 97.5432C120.454 97.7764 120.24 97.9367 120.006 97.9076Z" fill="#6DAFDC"/>
<path d="M91.9679 99.3271L81.9327 97.9425C81.6992 97.9085 81.5387 97.6947 81.5679 97.4615C81.6019 97.2283 81.816 97.068 82.0495 97.0972L92.0847 98.4818C92.3182 98.5158 92.4787 98.7295 92.4495 98.9627C92.4154 99.1959 92.2014 99.3562 91.9679 99.3271Z" fill="#6DAFDC"/>
<path d="M97.7667 100.129L94.4249 99.6671C94.1914 99.6331 94.0309 99.4193 94.0601 99.1861C94.0941 98.9529 94.3081 98.7926 94.5416 98.8218L97.8835 99.2833C98.117 99.3173 98.2775 99.5311 98.2483 99.7643C98.2142 99.9975 98.0002 100.158 97.7667 100.129Z" fill="#6DAFDC"/>
<path d="M108.609 101.62L100.228 100.464C99.9941 100.43 99.8336 100.216 99.8628 99.983C99.8968 99.7498 100.111 99.5895 100.344 99.6187L108.726 100.775C108.959 100.809 109.12 101.023 109.091 101.256C109.056 101.489 108.842 101.649 108.609 101.62Z" fill="#6DAFDC"/>
<path d="M115.454 98.9683L119.778 99.5658C120.012 99.5998 120.172 99.8136 120.143 100.047C120.109 100.28 119.895 100.44 119.661 100.411L115.337 99.8136C115.104 99.7796 114.943 99.5658 114.972 99.3326C115.006 99.0994 115.22 98.9391 115.454 98.9683Z" fill="#6DAFDC"/>
<path d="M107.559 97.8804L112.414 98.5508C112.647 98.5848 112.808 98.7986 112.779 99.0318C112.745 99.265 112.531 99.4253 112.297 99.3961L107.442 98.7257C107.209 98.6917 107.048 98.4779 107.078 98.2447C107.112 98.0115 107.326 97.8512 107.559 97.8804Z" fill="#6DAFDC"/>
<path d="M92.7995 95.8491L104.513 97.462C104.746 97.4961 104.907 97.7098 104.878 97.943C104.844 98.1762 104.63 98.3365 104.396 98.3074L92.6827 96.6944C92.4492 96.6604 92.2887 96.4467 92.3179 96.2135C92.3519 95.9803 92.566 95.82 92.7995 95.8491Z" fill="#6DAFDC"/>
<path d="M82.4245 94.4155L89.8621 95.4406C90.0956 95.4746 90.2561 95.6884 90.2269 95.9216C90.1929 96.1548 89.9788 96.3151 89.7453 96.2859L82.3077 95.2609C82.0742 95.2268 81.9137 95.0131 81.9429 94.7799C81.9769 94.5467 82.191 94.3864 82.4245 94.4155Z" fill="#6DAFDC"/>
<path d="M94.1135 91.0624L83.7037 89.6293C83.1346 89.5515 82.7406 89.0268 82.8184 88.4584C82.8962 87.89 83.4216 87.4965 83.9907 87.5742L94.4005 89.0074C94.9696 89.0851 95.3636 89.6098 95.2858 90.1782C95.208 90.7466 94.6826 91.1402 94.1135 91.0624Z" fill="#6D95B8"/>
<path d="M103.955 92.4186L97.3541 91.5101C96.785 91.4324 96.391 90.9077 96.4688 90.3393C96.5466 89.7709 97.072 89.3774 97.6411 89.4551L104.242 90.3636C104.811 90.4413 105.205 90.966 105.127 91.5344C105.05 92.1028 104.524 92.4963 103.955 92.4186Z" fill="#6D95B8"/>
<path d="M74.5677 39.0849L64.5811 37.7101C64.3477 37.6761 64.1871 37.4623 64.2163 37.2291C64.2504 36.9959 64.4644 36.8356 64.6979 36.8647L74.6845 38.2396C74.9179 38.2736 75.0785 38.4874 75.0493 38.7206C75.0152 38.9538 74.8012 39.1141 74.5677 39.0849Z" fill="white"/>
<path d="M73.9544 44.167L63.9679 42.7921C63.7344 42.7581 63.5738 42.5443 63.603 42.3111C63.6371 42.0779 63.8511 41.9176 64.0846 41.9468L74.0712 43.3216C74.3047 43.3557 74.4652 43.5694 74.436 43.8026C74.4019 44.0358 74.1879 44.1961 73.9544 44.167Z" fill="white"/>
<path d="M69.4889 40.9984L64.2257 40.2745C63.9922 40.2405 63.8317 40.0268 63.8608 39.7936C63.8949 39.5604 64.1089 39.4001 64.3424 39.4292L69.6057 40.1531C69.8392 40.1871 69.9997 40.4008 69.9705 40.634C69.9365 40.8672 69.7224 41.0275 69.4889 40.9984Z" fill="white"/>
<path d="M77.2682 42.0687L72.005 41.3448C71.7715 41.3108 71.611 41.0971 71.6401 40.8639C71.6742 40.6307 71.8882 40.4704 72.1217 40.4995L77.385 41.2234C77.6185 41.2574 77.779 41.4711 77.7498 41.7043C77.7157 41.9375 77.5017 42.0979 77.2682 42.0687Z" fill="white"/>
<path d="M73.5951 46.7314L63.6183 45.3566C63.3848 45.3225 63.2242 45.1088 63.2534 44.8756C63.2875 44.6424 63.5015 44.4821 63.735 44.5112L73.7118 45.8861C73.9453 45.9201 74.1058 46.1339 74.0767 46.3671C74.0426 46.6003 73.8286 46.7606 73.5951 46.7314Z" fill="white"/>
<path d="M71.9364 34.7461L65.817 33.9007C65.2479 33.823 64.8538 33.2983 64.9317 32.7299C65.0095 32.1615 65.5349 31.768 66.104 31.8457L72.2234 32.6911C72.7925 32.7688 73.1865 33.2935 73.1087 33.8619C73.0309 34.4303 72.5055 34.8238 71.9364 34.7461Z" fill="white"/>
<path d="M72.0951 56.9678L62.1085 55.5929C61.875 55.5589 61.7145 55.3451 61.7437 55.1119C61.7777 54.8787 61.9917 54.7184 62.2252 54.7476L72.2118 56.1224C72.4453 56.1564 72.6058 56.3702 72.5766 56.6034C72.5426 56.8366 72.3285 56.9969 72.0951 56.9678Z" fill="white"/>
<path d="M71.4818 62.0498L61.4952 60.6749C61.2617 60.6409 61.1012 60.4271 61.1304 60.194C61.1644 59.9608 61.3785 59.8004 61.612 59.8296L71.5985 61.2045C71.832 61.2385 71.9925 61.4522 71.9633 61.6854C71.9293 61.9186 71.7153 62.0789 71.4818 62.0498Z" fill="white"/>
<path d="M67.0163 58.8773L61.753 58.1534C61.5195 58.1194 61.359 57.9057 61.3882 57.6725C61.4222 57.4393 61.6363 57.279 61.8698 57.3081L67.133 58.032C67.3665 58.066 67.527 58.2797 67.4978 58.5129C67.4638 58.7461 67.2498 58.9065 67.0163 58.8773Z" fill="white"/>
<path d="M74.7956 59.9515L69.5323 59.2277C69.2988 59.1936 69.1383 58.9799 69.1675 58.7467C69.2015 58.5135 69.4156 58.3532 69.6491 58.3823L74.9123 59.1062C75.1458 59.1402 75.3063 59.354 75.2771 59.5872C75.2431 59.8204 75.0291 59.9807 74.7956 59.9515Z" fill="white"/>
<path d="M71.1224 64.6103L61.1456 63.2355C60.9121 63.2015 60.7516 62.9877 60.7808 62.7545C60.8148 62.5213 61.0289 62.361 61.2623 62.3901L71.2392 63.765C71.4727 63.799 71.6332 64.0128 71.604 64.246C71.57 64.4792 71.3559 64.6395 71.1224 64.6103Z" fill="white"/>
<path d="M69.4637 52.6289L63.3443 51.7836C62.7752 51.7058 62.3812 51.1811 62.459 50.6127C62.5369 50.0443 63.0622 49.6508 63.6313 49.7285L69.7507 50.5739C70.3199 50.6516 70.7139 51.1763 70.636 51.7447C70.5582 52.3131 70.0329 52.7066 69.4637 52.6289Z" fill="white"/>
<path d="M69.6263 74.8506L59.6397 73.4757C59.4062 73.4417 59.2457 73.2279 59.2749 72.9947C59.309 72.7615 59.523 72.6012 59.7565 72.6304L69.743 74.0052C69.9765 74.0392 70.1371 74.253 70.1079 74.4862C70.0738 74.7194 69.8598 74.8797 69.6263 74.8506Z" fill="white"/>
<path d="M69.013 79.9326L59.0265 78.5577C58.793 78.5237 58.6324 78.31 58.6616 78.0768C58.6957 77.8436 58.9097 77.6833 59.1432 77.7124L69.1298 79.0873C69.3633 79.1213 69.5238 79.335 69.4946 79.5682C69.4605 79.8014 69.2465 79.9617 69.013 79.9326Z" fill="white"/>
<path d="M64.5514 76.7601L59.2882 76.0362C59.0547 76.0022 58.8942 75.7885 58.9233 75.5553C58.9574 75.3221 59.1714 75.1618 59.4049 75.1909L64.6682 75.9148C64.9017 75.9488 65.0622 76.1626 65.033 76.3957C64.999 76.6289 64.7849 76.7893 64.5514 76.7601Z" fill="white"/>
<path d="M72.3249 77.8343L67.0616 77.1105C66.8281 77.0765 66.6676 76.8627 66.6968 76.6295C66.7308 76.3963 66.9449 76.236 67.1784 76.2651L72.4416 76.989C72.6751 77.023 72.8356 77.2368 72.8064 77.47C72.7724 77.7032 72.5584 77.8635 72.3249 77.8343Z" fill="white"/>
<path d="M66.9989 70.5078L60.8795 69.6625C60.3104 69.5847 59.9163 69.06 59.9942 68.4916C60.072 67.9232 60.5974 67.5297 61.1665 67.6074L67.2859 68.4528C67.855 68.5305 68.249 69.0552 68.1712 69.6236C68.0934 70.192 67.568 70.5855 66.9989 70.5078Z" fill="white"/>
<path d="M67.4076 90.9267L57.421 89.5519C57.1875 89.5179 57.027 89.3041 57.0562 89.0709C57.0902 88.8377 57.3042 88.6774 57.5377 88.7065L67.5243 90.0814C67.7578 90.1154 67.9183 90.3292 67.8891 90.5624C67.8551 90.7956 67.641 90.9559 67.4076 90.9267Z" fill="white"/>
<path d="M66.7884 96.0127L56.8018 94.6378C56.5684 94.6038 56.4078 94.39 56.437 94.1568C56.4711 93.9237 56.6851 93.7633 56.9186 93.7925L66.9052 95.1674C67.1386 95.2014 67.2992 95.4151 67.27 95.6483C67.2359 95.8815 67.0219 96.0418 66.7884 96.0127Z" fill="white"/>
<path d="M62.3288 92.8402L57.0655 92.1163C56.832 92.0823 56.6715 91.8686 56.7007 91.6354C56.7347 91.4022 56.9488 91.2418 57.1823 91.271L62.4455 91.9949C62.679 92.0289 62.8395 92.2426 62.8103 92.4758C62.7763 92.709 62.5623 92.8693 62.3288 92.8402Z" fill="white"/>
<path d="M70.1061 93.9105L64.8429 93.1866C64.6094 93.1526 64.4488 92.9389 64.478 92.7057C64.5121 92.4725 64.7261 92.3122 64.9596 92.3413L70.2229 93.0652C70.4563 93.0992 70.6169 93.3129 70.5877 93.5461C70.5536 93.7793 70.3396 93.9397 70.1061 93.9105Z" fill="white"/>
<path d="M66.4291 98.5732L56.4522 97.1984C56.2187 97.1643 56.0582 96.9506 56.0874 96.7174C56.1215 96.4842 56.3355 96.3239 56.569 96.353L66.5458 97.7279C66.7793 97.7619 66.9398 97.9757 66.9106 98.2089C66.8766 98.442 66.6626 98.6024 66.4291 98.5732Z" fill="white"/>
<path d="M64.7743 86.5879L58.6549 85.7425C58.0858 85.6648 57.6917 85.1401 57.7696 84.5717C57.8474 84.0033 58.3727 83.6098 58.9419 83.6875L65.0613 84.5329C65.6304 84.6106 66.0244 85.1353 65.9466 85.7037C65.8688 86.2721 65.3434 86.6656 64.7743 86.5879Z" fill="white"/>
<g style="mix-blend-mode:multiply">
<path d="M68.4003 6.99135L65.8379 25.5293L79.759 27.4487L82.3215 8.91073L68.4003 6.99135Z" fill="#B6B6B6"/>
</g>
<path d="M72.6053 16.7945L72.1562 20.043L75.2065 20.4635L75.6555 17.215L72.6053 16.7945Z" fill="#EFC3A1"/>
<path d="M77.4222 14.4387C77.7918 12.8064 77.8551 11.5384 76.9017 11.2275C77.0281 10.591 76.2888 9.80401 74.3576 9.89146C72.2854 9.98862 71.4049 11.3878 71.6384 13.6371C71.2201 13.5691 70.9331 13.9821 71.0401 14.4582C71.1179 14.808 71.2784 15.08 71.439 15.2598C71.5071 15.3375 71.6238 15.3812 71.7551 15.4007C71.9108 16.2654 72.1638 16.9747 72.3291 17.3731C72.5578 17.9221 73.2388 18.2233 73.9344 18.3156C74.63 18.4127 75.3645 18.3107 75.7342 17.8395C76.0018 17.4994 76.4444 16.8873 76.8238 16.0954C76.9552 16.1148 77.0768 16.1002 77.1643 16.0419C77.3686 15.9108 77.5973 15.6921 77.7675 15.3764C77.9961 14.9488 77.8356 14.4727 77.4124 14.4242L77.4222 14.4387Z" fill="#F7D1AF"/>
<path d="M75.5021 18.2859L73.7072 20.0495L72.457 17.8633C71.669 18.0479 70.0492 20.1758 69.5919 20.5644C69.1055 20.9774 68.0742 24.9222 68.0742 24.9222L72.8754 25.5829L73.0018 25.6024L77.803 26.2631C77.803 26.2631 77.8808 22.1871 77.5257 21.6575C77.1901 21.1571 76.2075 18.6697 75.5021 18.2811V18.2859Z" fill="white"/>
<path d="M77.3103 11.0864C77.3881 10.3916 76.8482 9.00706 74.7759 9.43944C73.0102 9.80866 71.7114 10.4062 71.6044 11.8345C71.4925 13.3551 71.546 13.6418 71.546 13.6418L71.7941 14.3122C71.7941 14.3122 72.1297 11.7034 73.2437 11.7228C74.3527 11.7374 76.5368 12.2135 77.033 11.9171C77.0038 12.5487 77.213 13.0296 77.2227 13.564C77.2324 14.1422 77.1935 14.9486 77.1935 14.9486C77.1935 14.9486 77.4368 14.8126 77.5778 14.4968C77.7189 14.181 78.8863 11.6159 77.3054 11.0961L77.3103 11.0864Z" fill="#716F53"/>
<path d="M73.9839 20.6901L73.7067 20.0488L73.2591 20.5881L73.4245 20.8844L72.5781 24.7176L72.9673 25.3831L73.5267 24.8487L73.7456 20.9282L73.9839 20.6901Z" fill="#8DB6D1"/>
<path d="M68.7933 18.7871C68.1998 19.1806 66.8184 24.7578 66.8184 24.7578L72.9377 25.6032L73.1031 24.3886L72.1254 18.0195C71.1379 18.5102 69.3527 18.4179 68.7884 18.792L68.7933 18.7871Z" fill="#5F6062"/>
<path d="M71.6434 20.4088L71.0402 20.3262L70.8846 18.6016C70.6365 19.8161 70.9527 20.8898 71.2348 21.91C71.6774 23.5278 72.266 25.2864 72.266 25.2864L71.2007 20.7537L71.6385 20.404L71.6434 20.4088Z" fill="#565759"/>
<path d="M75.7744 18.5137L73.1087 24.3824L72.9434 25.5969L79.0627 26.4422C79.0627 26.4422 79.2476 20.7047 78.7806 20.1606C78.3428 19.6456 76.5965 19.257 75.7793 18.5137H75.7744Z" fill="#5F6062"/>
<path d="M76.1935 21.0357L75.5904 20.9532L75.9211 21.405L73.6641 25.481C73.6641 25.481 74.7099 23.9507 75.5758 22.5126C76.1206 21.6042 76.7189 20.6568 76.8113 19.418L76.1935 21.0357Z" fill="#565759"/>
<g style="mix-blend-mode:multiply" opacity="0.2">
<path d="M133.28 101.487C133.28 101.487 123.255 91.6932 119.66 90.7556C116.06 89.8228 111.712 90.8236 113.988 93.0972C118.609 97.7174 119.417 100.103 120.555 102.498C122.554 106.7 131.135 114.857 130.858 116.873L133.285 101.487H133.28Z" fill="#BFBFBB"/>
</g>
<path d="M135.351 114.628C136.47 115.994 137.841 117.772 138.542 119.307C139.904 118.981 140.95 118.894 142.36 118.811C142.078 118.087 141.791 117.364 141.519 116.635C140.536 114.016 139.583 111.257 139.296 108.454C138.829 107.438 138.352 106.423 137.856 105.417C136.922 103.532 135.881 101.74 135.244 99.7915C134.889 99.6846 134.47 99.3688 133.984 98.7469C132.719 97.1243 131.664 94.4912 130.452 92.9706C129.518 91.7997 125.17 88.2241 120.602 89.5795C117.211 90.5852 118.53 93.6604 120.869 95.1179C122.45 96.1041 124.931 98.0862 125.656 99.7186C127.373 103.581 128.103 106.476 128.643 107.764C129.946 110.868 133.347 112.194 135.351 114.633V114.628Z" fill="#F7D1AF"/>
<path d="M118.842 91.2886C118.526 91.9299 119.036 93.3631 119.746 94.0675C120.184 94.5048 121.016 95.355 122.344 95.8262C122.344 95.8262 121.366 93.1736 122.446 91.2206C122.67 90.8125 119.289 90.385 118.842 91.2886Z" fill="url(#paint0_linear_3634_14992)"/>
<path d="M121.4 89.4235C124.455 90.0016 126.931 92.1198 127.612 92.9651C128.823 94.4857 129.879 97.114 131.144 98.7415C132.812 100.879 133.659 99.3731 133.975 98.4937C132.788 96.8614 131.781 94.4129 130.628 92.97C129.738 91.8526 125.739 88.549 121.4 89.4284V89.4235Z" fill="#FDDEC8"/>
<defs>
<linearGradient id="paint0_linear_3634_14992" x1="118.744" y1="93.2902" x2="122.456" y2="93.2902" gradientUnits="userSpaceOnUse">
<stop stop-color="white" stop-opacity="0.7"/>
<stop offset="1" stop-color="white" stop-opacity="0.3"/>
</linearGradient>
</defs>
</svg>
