<svg width="267" height="201" viewBox="0 0 267 201" fill="none" xmlns="http://www.w3.org/2000/svg">
<path d="M11.0267 86.5034C11.9607 86.4691 12.9241 86.3925 13.8561 86.4338C14.3491 86.4563 15.0034 86.5869 15.3271 86.9961C15.553 87.2807 15.5628 87.6478 15.51 87.9933C15.4356 88.4771 15.1256 88.6832 14.7579 88.9688C14.1319 89.0719 13.4728 89.0954 12.838 89.117C12.1603 89.1406 10.9524 89.0336 10.4761 88.4958C10.3157 88.3152 10.2238 88.0875 10.2453 87.8451C10.2913 87.3279 10.6629 86.8391 11.0267 86.5034Z" fill="#C5D8F5"/>
<path d="M206.876 162.59C207.5 162.529 208.026 162.527 208.575 162.868C208.638 162.908 208.7 162.952 208.759 162.998C208.817 163.044 208.874 163.093 208.929 163.144C208.983 163.196 209.035 163.25 209.085 163.306C209.135 163.363 209.181 163.422 209.224 163.483C209.267 163.543 209.307 163.607 209.345 163.672C209.383 163.737 209.418 163.803 209.449 163.872C209.48 163.941 209.508 164.011 209.531 164.081C209.556 164.153 209.577 164.225 209.594 164.298C209.731 164.881 209.635 165.497 209.296 165.994C208.907 166.565 208.426 166.796 207.773 166.944C207.409 167.019 206.988 166.958 206.644 166.83C206.073 166.619 205.65 166.21 205.422 165.644C205.393 165.569 205.368 165.493 205.345 165.415C205.323 165.337 205.305 165.259 205.29 165.179C205.278 165.1 205.268 165.02 205.261 164.94C205.254 164.86 205.252 164.779 205.255 164.699C205.256 164.618 205.262 164.538 205.273 164.458C205.282 164.379 205.295 164.299 205.314 164.221C205.331 164.142 205.352 164.065 205.376 163.988C205.403 163.911 205.432 163.837 205.465 163.763C205.76 163.114 206.251 162.847 206.875 162.589L206.876 162.59Z" fill="#C5D8F5"/>
<path d="M65.8347 24.3515C66.2816 24.3103 66.7442 24.2681 67.1853 24.3829C67.8318 24.5517 68.444 25.009 68.7678 25.5989C68.8049 25.6656 68.8382 25.7343 68.8685 25.805C68.8988 25.8757 68.9243 25.9473 68.9468 26.0199C68.9692 26.0926 68.9878 26.1672 69.0025 26.2417C69.0172 26.3173 69.0279 26.3929 69.0348 26.4685C69.0416 26.545 69.0446 26.6206 69.0436 26.6971C69.0426 26.7737 69.0377 26.8493 69.0289 26.9258C69.0201 27.0024 69.0074 27.077 68.9908 27.1515C68.9741 27.2261 68.9536 27.2997 68.9291 27.3724C68.6553 28.2046 68.0538 28.6149 67.3262 29.0025C66.9398 29.0546 66.5349 29.0899 66.1496 29.0084C65.4601 28.8632 64.797 28.4343 64.4381 27.8179C64.1143 27.2615 64.0586 26.651 64.2288 26.0356C64.4684 25.169 65.0982 24.7549 65.8366 24.3515H65.8347Z" fill="#C5D8F5"/>
<path d="M182.796 18.3446C183.339 18.3191 183.903 18.3927 184.397 18.6263C184.485 18.6675 184.572 18.7137 184.655 18.7647C184.738 18.8148 184.819 18.8697 184.896 18.9286C184.975 18.9875 185.049 19.0493 185.12 19.1161C185.192 19.1828 185.26 19.2525 185.325 19.3251C185.389 19.3987 185.45 19.4743 185.507 19.5538C185.563 19.6333 185.616 19.7157 185.664 19.8001C185.712 19.8845 185.756 19.9719 185.796 20.0612C185.835 20.1505 185.87 20.2418 185.901 20.334C185.935 20.4361 185.963 20.5401 185.987 20.6461C186.01 20.7512 186.028 20.8581 186.041 20.9651C186.053 21.0721 186.06 21.18 186.061 21.288C186.062 21.396 186.058 21.5039 186.048 21.6109C186.039 21.7179 186.024 21.8249 186.003 21.9308C185.983 22.0368 185.956 22.1419 185.925 22.2449C185.894 22.348 185.857 22.45 185.816 22.5492C185.774 22.6483 185.728 22.7454 185.676 22.8406C185.197 23.7043 184.498 24.0802 183.594 24.3383C182.958 24.354 182.379 24.2628 181.811 23.9566C181.722 23.9094 181.635 23.8584 181.55 23.8025C181.466 23.7465 181.385 23.6867 181.307 23.6229C181.229 23.5591 181.154 23.4913 181.083 23.4197C181.012 23.3481 180.944 23.2735 180.88 23.195C180.816 23.1164 180.755 23.035 180.7 22.9516C180.644 22.8671 180.592 22.7808 180.545 22.6915C180.498 22.6022 180.455 22.5099 180.417 22.4167C180.379 22.3234 180.346 22.2272 180.317 22.1301C180.289 22.0349 180.265 21.9387 180.248 21.8415C180.229 21.7444 180.216 21.6462 180.208 21.5471C180.199 21.448 180.196 21.3489 180.198 21.2497C180.2 21.1506 180.207 21.0515 180.218 20.9533C180.23 20.8552 180.247 20.757 180.268 20.6609C180.29 20.5637 180.316 20.4685 180.347 20.3743C180.379 20.2801 180.415 20.1878 180.456 20.0975C180.497 20.0072 180.542 19.9189 180.592 19.8335C181.112 18.9443 181.862 18.6116 182.797 18.3456L182.796 18.3446Z" fill="#8285CF"/>
<path d="M44.2248 151.677C44.836 151.636 45.417 151.608 46.0067 151.819C46.1133 151.857 46.217 151.901 46.3187 151.951C46.4204 152 46.5202 152.054 46.616 152.112C46.7129 152.171 46.8058 152.235 46.8958 152.304C46.9857 152.373 47.0728 152.445 47.1549 152.522C47.2381 152.599 47.3163 152.68 47.3916 152.765C47.4659 152.851 47.5364 152.939 47.6029 153.031C47.6684 153.123 47.73 153.219 47.7867 153.317C47.8435 153.415 47.8943 153.516 47.9403 153.619C48.2943 154.416 48.3305 155.355 47.9833 156.161C47.5628 157.136 46.8019 157.605 45.8561 157.947C45.2126 158.002 44.5593 158.04 43.9412 157.813C43.8883 157.793 43.8365 157.772 43.7847 157.751C43.7328 157.729 43.682 157.706 43.6321 157.681C43.5822 157.657 43.5323 157.631 43.4834 157.604C43.4345 157.576 43.3866 157.548 43.3387 157.518C43.2908 157.489 43.2448 157.457 43.1988 157.426C43.1529 157.394 43.1079 157.36 43.0639 157.326C43.0199 157.292 42.9768 157.255 42.9348 157.219C42.8927 157.183 42.8516 157.144 42.8106 157.105C42.7705 157.066 42.7313 157.027 42.6932 156.985C42.6551 156.944 42.6179 156.903 42.5817 156.86C42.5455 156.817 42.5103 156.773 42.4771 156.728C42.4428 156.683 42.4105 156.638 42.3792 156.592C42.348 156.546 42.3176 156.499 42.2883 156.45C42.259 156.402 42.2316 156.353 42.2052 156.304C42.1788 156.255 42.1533 156.205 42.1299 156.154C42.1064 156.103 42.0839 156.052 42.0624 156C42.0213 155.9 41.9861 155.798 41.9548 155.695C41.9245 155.591 41.899 155.486 41.8785 155.38C41.858 155.274 41.8433 155.167 41.8345 155.059C41.8247 154.951 41.8208 154.843 41.8228 154.735C41.8237 154.627 41.8306 154.519 41.8433 154.411C41.856 154.304 41.8736 154.197 41.8961 154.091C41.9186 153.985 41.947 153.881 41.9802 153.778C42.0135 153.675 42.0516 153.574 42.0956 153.476C42.5455 152.478 43.2712 152.066 44.2248 151.678V151.677Z" fill="#8285CF"/>
<path d="M25.1641 86.262C28.7837 83.5405 37.006 84.0685 41.3464 84.0901C43.8541 84.1029 46.4576 83.9959 48.9466 84.3109C48.8283 84.996 48.7363 85.6997 48.5808 86.3779L34.0729 86.317C31.1241 86.32 28.104 86.476 25.1641 86.262Z" fill="#EBF0F8"/>
<path d="M25.1637 86.2617C28.1027 86.4757 31.1228 86.3196 34.0725 86.3167L48.5805 86.3775C48.4612 87.3315 48.3536 88.2874 48.2577 89.2443L21.903 89.2306C21.6057 89.1727 21.2457 89.1059 20.9934 88.9303C20.6384 88.6839 20.3538 88.203 20.2824 87.7771C20.2354 87.4944 20.3 87.2196 20.477 86.9929C21.3113 85.9241 23.814 86.4835 25.0375 86.2843C25.0796 86.2774 25.1216 86.2696 25.1647 86.2617H25.1637Z" fill="#C5D8F5"/>
<path d="M21.9026 89.2305L48.2574 89.2442L47.9689 92.3848L23.665 92.3524C20.463 92.3485 16.3299 92.6636 13.209 92.3004C14.9714 91.9579 18.194 92.2072 20.1392 92.215C20.6263 91.1512 21.2473 90.1933 21.9016 89.2305H21.9026Z" fill="#EBF0F8"/>
<path d="M13.2091 92.3008C16.33 92.6639 20.4621 92.3489 23.6651 92.3528L47.969 92.3852C47.9494 95.304 47.9484 98.2228 47.9651 101.142C38.4245 101.264 28.8731 101.16 19.3315 101.152C18.1921 101.106 16.1412 101.423 15.2532 100.613C14.996 100.378 14.8835 100.054 14.8776 99.7097C14.8717 99.3642 14.9803 99.0394 15.2395 98.8038C15.9984 98.1129 18.0797 98.3848 19.0909 98.3965C19.4098 97.4514 19.3168 96.0224 19.4147 95.0096C17.4977 94.9055 14.3368 95.3737 12.6614 94.7269C12.2272 94.5591 12.0091 94.3775 11.8262 93.9526C11.8252 93.5718 11.9083 93.3136 12.0942 92.979C12.3553 92.5089 12.7162 92.4294 13.2101 92.3018L13.2091 92.3008Z" fill="#C5D8F5"/>
<path d="M19.4145 95.0088C22.8992 95.1472 26.4074 95.1001 29.895 95.1079L47.874 95.0893L47.8642 98.4124L28.5551 98.3752C25.4939 98.3742 22.2479 98.1465 19.2131 98.4193L19.0918 98.3948C19.4106 97.4496 19.3177 96.0207 19.4155 95.0078L19.4145 95.0088Z" fill="#EBF0F8"/>
<path d="M19.332 101.151C28.8736 101.159 38.425 101.263 47.9656 101.141C48.4859 110.674 50.7109 121.32 54.7814 129.956C54.3315 129.964 53.8816 129.964 53.4317 129.955C52.9819 129.946 52.532 129.928 52.0831 129.903C51.6341 129.877 51.1852 129.843 50.7373 129.801C50.2894 129.759 49.8424 129.708 49.3964 129.648C48.9504 129.588 48.5054 129.52 48.0624 129.445C47.6194 129.369 47.1773 129.285 46.7372 129.191C46.2971 129.099 45.8589 128.998 45.4217 128.889C44.9855 128.78 44.5503 128.662 44.119 128.538C43.6867 128.412 43.2574 128.279 42.83 128.137C42.4026 127.996 41.9781 127.847 41.5566 127.689C41.1351 127.531 40.7165 127.366 40.3008 127.193C39.8852 127.02 39.4734 126.839 39.0646 126.65C38.6558 126.462 38.2509 126.266 37.8489 126.061C37.447 125.857 37.0499 125.646 36.6567 125.427C36.2635 125.209 35.8733 124.983 35.489 124.749C35.1036 124.516 34.7232 124.275 34.3466 124.028C28.3132 120.11 23.3615 113.887 20.8949 107.104C20.1888 105.163 19.7604 103.167 19.332 101.15V101.151Z" fill="#EBF0F8"/>
<path d="M55.1857 63.8769L55.1025 63.8415C54.8042 63.9358 52.7377 67.1618 52.3162 67.627C51.9885 67.9842 51.6472 68.3258 51.2912 68.6536C50.9352 68.9814 50.5655 69.2925 50.1821 69.5889C49.7997 69.8843 49.4046 70.164 48.9977 70.4261C48.5909 70.6881 48.1742 70.9325 47.7468 71.1582C47.6226 71.223 47.4984 71.2858 47.3732 71.3467C47.248 71.4085 47.1219 71.4674 46.9947 71.5263C46.8676 71.5842 46.7405 71.6411 46.6123 71.6961C46.4842 71.751 46.3551 71.805 46.226 71.857C46.0969 71.909 45.9668 71.9591 45.8358 72.0082C45.7047 72.0572 45.5737 72.1043 45.4426 72.1505C45.3106 72.1966 45.1786 72.2398 45.0455 72.283C44.9125 72.3252 44.7795 72.3664 44.6455 72.4056C44.5115 72.4449 44.3776 72.4822 44.2426 72.5185C44.1076 72.5548 43.9726 72.5892 43.8367 72.6216C43.7008 72.6539 43.5648 72.6854 43.4289 72.7148C43.2929 72.7442 43.156 72.7717 43.0191 72.7982C42.8822 72.8247 42.7452 72.8483 42.6073 72.8718C42.4694 72.8944 42.3315 72.915 42.1936 72.9346C42.0557 72.9543 41.9168 72.9719 41.7789 72.9876C41.6401 73.0033 41.5012 73.0181 41.3633 73.0308C41.2244 73.0436 41.0855 73.0544 40.9466 73.0632C40.8078 73.072 40.6679 73.0799 40.529 73.0858C40.3902 73.0917 40.2503 73.0956 40.1114 73.0985C39.9725 73.1015 39.8327 73.1015 39.6928 73.1005C39.5539 73.1005 39.4141 73.0966 39.2752 73.0927C39.1363 73.0887 38.9965 73.0819 38.8576 73.075C38.7187 73.0671 38.5789 73.0583 38.44 73.0465C38.3011 73.0357 38.1622 73.023 38.0233 73.0083C37.8845 72.9935 37.7466 72.9778 37.6077 72.9602C37.4698 72.9425 37.3309 72.9229 37.194 72.9013C37.0571 72.8797 36.9182 72.8571 36.7813 72.8326C36.6443 72.808 36.5074 72.7815 36.3705 72.7541C36.2336 72.7266 36.0976 72.6971 35.9617 72.6657C35.8257 72.6343 35.6898 72.6019 35.5548 72.5676C35.4198 72.5332 35.2849 72.4969 35.1509 72.4596C35.0169 72.4213 34.8829 72.3821 34.7499 72.3419C34.6061 72.2967 34.4624 72.2496 34.3196 72.2005C34.1768 72.1515 34.035 72.1014 33.8932 72.0484C33.7513 71.9964 33.6105 71.9424 33.4706 71.8865C33.3308 71.8305 33.1909 71.7726 33.0521 71.7137C32.9132 71.6539 32.7753 71.593 32.6384 71.5302C32.5014 71.4674 32.3645 71.4026 32.2295 71.3368C32.0936 71.2701 31.9596 71.2024 31.8256 71.1327C31.6916 71.063 31.5586 70.9914 31.4266 70.9188C31.2946 70.8461 31.1635 70.7715 31.0334 70.695C30.9033 70.6184 30.7733 70.5409 30.6451 70.4614C30.517 70.3819 30.3889 70.3004 30.2627 70.218C30.1366 70.1356 30.0114 70.0512 29.8872 69.9648C29.763 69.8794 29.6397 69.7911 29.5175 69.7027C29.3952 69.6134 29.2749 69.5231 29.1546 69.4309C29.0353 69.3386 28.916 69.2454 28.7986 69.1502C28.6813 69.055 28.5649 68.9588 28.4495 68.8607C28.3341 68.7625 28.2206 68.6634 28.1082 68.5623C27.9957 68.4612 27.8842 68.3591 27.7747 68.2561C27.6641 68.153 27.5556 68.048 27.448 67.941C27.3404 67.8351 27.2348 67.7271 27.1292 67.6182C27.0245 67.5092 26.9208 67.3993 26.8191 67.2874C26.7174 67.1755 26.6167 67.0627 26.5169 66.9488C26.4181 66.835 26.3203 66.7191 26.2235 66.6033C26.1267 66.4865 26.0318 66.3688 25.9389 66.25C25.846 66.1313 25.7541 66.0105 25.6631 65.8898C25.5721 65.7691 25.4841 65.6464 25.3961 65.5228C25.3091 65.3991 25.223 65.2745 25.1389 65.1488C25.0548 65.0232 24.9716 64.8966 24.8905 64.769C24.8093 64.6414 24.7301 64.5129 24.6518 64.3833C24.5736 64.2538 24.4973 64.1232 24.423 63.9917C24.3486 63.8602 24.2753 63.7277 24.2039 63.5942C24.1325 63.4608 24.0631 63.3263 23.9946 63.1918C23.9291 63.0603 23.8655 62.9268 23.8029 62.7934C23.7403 62.6599 23.6797 62.5254 23.621 62.391C23.5623 62.2555 23.5046 62.1201 23.4489 61.9837C23.3931 61.8473 23.3393 61.7099 23.2865 61.5725C23.2347 61.435 23.1838 61.2967 23.1349 61.1573C23.086 61.0179 23.0391 60.8786 22.9931 60.7382C22.9481 60.5979 22.9041 60.4575 22.862 60.3162C22.82 60.1749 22.7799 60.0335 22.7417 59.8912C22.7036 59.7489 22.6664 59.6056 22.6312 59.4633C22.596 59.32 22.5628 59.1767 22.5315 59.0325C22.5002 58.8882 22.4708 58.7439 22.4425 58.5997C22.4151 58.4554 22.3887 58.3101 22.3642 58.1649C22.3398 58.0196 22.3173 57.8734 22.2967 57.7281C22.2762 57.5819 22.2566 57.4357 22.24 57.2894C22.2234 57.1432 22.2077 56.996 22.1941 56.8497C22.1804 56.7025 22.1686 56.5563 22.1588 56.4091C22.1491 56.2619 22.1412 56.1146 22.1344 55.9674C22.1285 55.8202 22.1236 55.673 22.1217 55.5258C22.1187 55.3785 22.1187 55.2304 22.1197 55.0831C22.1207 54.9359 22.1236 54.7887 22.1285 54.6415C22.1334 54.4943 22.1393 54.347 22.1481 54.1998C22.1569 54.0526 22.1667 53.9054 22.1784 53.7582C22.1901 53.611 22.2038 53.4647 22.2195 53.3175C22.2351 53.1713 22.2527 53.025 22.2713 52.8788C22.2899 52.7326 22.3114 52.5863 22.3339 52.4411C22.3564 52.2958 22.3818 52.1496 22.4082 52.0053C22.4346 51.8601 22.463 51.7158 22.4933 51.5715C22.5236 51.4273 22.5549 51.283 22.5882 51.1397C22.6215 50.9964 22.6567 50.8531 22.6938 50.7108C22.731 50.5685 22.7701 50.4262 22.8102 50.2839C22.8503 50.1425 22.8933 50.0012 22.9374 49.8599C22.9814 49.7195 23.0273 49.5792 23.0743 49.4398C23.1202 49.3024 23.1672 49.165 23.2161 49.0286C23.265 48.8922 23.3158 48.7567 23.3687 48.6213C23.4215 48.4859 23.4753 48.3514 23.531 48.2179C23.5868 48.0844 23.6445 47.951 23.7031 47.8185C23.7618 47.686 23.8225 47.5545 23.8851 47.4239C23.9476 47.2934 24.0112 47.1629 24.0767 47.0343C24.1423 46.9048 24.2098 46.7772 24.2782 46.6496C24.3467 46.522 24.4171 46.3954 24.4895 46.2698C24.5609 46.1441 24.6342 46.0195 24.7095 45.8948C24.7848 45.7712 24.8611 45.6475 24.9394 45.5258C25.0176 45.4041 25.0968 45.2824 25.178 45.1627C25.2592 45.0429 25.3413 44.9232 25.4254 44.8054C25.5095 44.6877 25.5946 44.5709 25.6817 44.4541C25.7687 44.3383 25.8567 44.2234 25.9467 44.1096C26.0367 43.9957 26.1277 43.8839 26.2206 43.772C26.3125 43.6601 26.4064 43.5502 26.5022 43.4412C26.5971 43.3323 26.6939 43.2243 26.7917 43.1174C26.8895 43.0104 26.9883 42.9054 27.0891 42.8013C27.1898 42.6973 27.2915 42.5942 27.3942 42.4922C27.4969 42.3911 27.6015 42.29 27.7072 42.1909C27.8128 42.0917 27.9194 41.9946 28.027 41.8974C28.1346 41.8012 28.2441 41.706 28.3546 41.6128C28.4651 41.5196 28.5766 41.4273 28.6891 41.336C28.8016 41.2448 28.915 41.1554 29.0304 41.0681C29.1449 40.9798 29.2612 40.8934 29.3776 40.808C29.495 40.7226 29.6124 40.6392 29.7317 40.5568C29.851 40.4743 29.9703 40.3938 30.0916 40.3143C30.2129 40.2348 30.3341 40.1573 30.4574 40.0817C30.5806 40.0052 30.7038 39.9306 30.829 39.858C30.9542 39.7853 31.0794 39.7137 31.2056 39.644C31.3317 39.5743 31.4598 39.5056 31.588 39.4389C31.7161 39.3722 31.8452 39.3074 31.9753 39.2436C32.1024 39.1818 32.2315 39.1209 32.3596 39.061C32.4887 39.0022 32.6188 38.9442 32.7489 38.8883C32.8789 38.8324 33.01 38.7784 33.142 38.7254C33.2741 38.6724 33.4061 38.6214 33.5391 38.5713C33.6721 38.5212 33.8061 38.4741 33.9401 38.427C34.0741 38.3809 34.2091 38.3358 34.344 38.2926C34.479 38.2494 34.6149 38.2082 34.7509 38.1679C34.8868 38.1277 35.0237 38.0904 35.1607 38.0541C35.2976 38.0178 35.4355 37.9834 35.5734 37.95C35.7113 37.9167 35.8502 37.8853 35.9881 37.8558C36.126 37.8264 36.2658 37.7979 36.4057 37.7714C36.5446 37.7449 36.6844 37.7204 36.8243 37.6978C36.9641 37.6752 37.105 37.6536 37.2448 37.634C37.3857 37.6144 37.5265 37.5967 37.6673 37.581C37.8082 37.5653 37.949 37.5506 38.0908 37.5378C38.2317 37.5251 38.3735 37.5143 38.5153 37.5055C38.6571 37.4966 38.7989 37.4888 38.9398 37.4829C39.0816 37.477 39.2234 37.4731 39.3652 37.4711C39.507 37.4691 39.6488 37.4682 39.7906 37.4691C39.9324 37.4701 40.0743 37.4731 40.2161 37.478C40.3579 37.4829 40.4997 37.4888 40.6415 37.4966C40.7833 37.5045 40.9242 37.5143 41.066 37.5261C41.2068 37.5378 41.3486 37.5506 41.4895 37.5653C41.6303 37.58 41.7711 37.5967 41.912 37.6154C42.0528 37.634 42.1926 37.6536 42.3335 37.6752C42.4733 37.6968 42.6142 37.7204 42.7531 37.7459C42.8929 37.7714 43.0318 37.7979 43.1707 37.8264C43.3096 37.8548 43.4484 37.8853 43.5863 37.9177C43.7242 37.95 43.8621 37.9834 44 38.0187C44.1379 38.0541 44.2749 38.0914 44.4108 38.1296C44.5477 38.1679 44.6837 38.2082 44.8186 38.2504C44.9546 38.2926 45.0896 38.3358 45.2235 38.3809C52.3357 40.8168 57.4146 48.0059 57.0713 55.5945C57.0214 56.6495 56.8777 57.6918 56.64 58.7214C56.4356 59.5742 55.5769 61.8051 55.614 62.5323C55.618 62.6157 55.6864 62.6825 55.7226 62.7571C55.5661 63.1408 55.4312 63.5461 55.1847 63.8808L55.1857 63.8769Z" fill="#EBF0F8"/>
<path d="M65.0864 47.8252C65.3574 56.0527 65.1539 64.3331 65.1549 72.5684L65.1735 116.47L65.1666 134.145C65.1666 136.995 64.929 140.076 65.2527 142.895C65.4014 144.192 65.9051 145.226 66.8655 146.118C67.0611 146.299 67.2684 146.464 67.4865 146.618C67.7046 146.77 67.9315 146.907 68.1682 147.03C67.2489 147.476 65.8522 146.634 65.0229 147.249C64.3373 146.563 63.7231 145.528 63.1597 144.727C59.8755 140.058 57.2515 135.092 54.781 129.955C50.7105 121.319 48.4855 110.672 47.9652 101.139C47.9476 98.2205 47.9495 95.3016 47.9691 92.3828L48.2576 89.2422C48.3535 88.2853 48.4611 87.3294 48.5804 86.3754C48.7359 85.6982 48.8278 84.9945 48.9461 84.3085C49.3814 82.3358 49.6503 80.3366 50.1354 78.3697C51.3736 73.3497 53.1624 68.6171 55.185 63.8738C55.4324 63.5391 55.5664 63.1338 55.7229 62.75C58.3557 57.4414 61.2888 52.384 65.0874 47.8242L65.0864 47.8252Z" fill="#455A64"/>
<path d="M68.1688 147.03C70.7077 147.885 77.5372 147.496 80.4918 147.491L95.7891 147.476L147.042 147.513L182.54 147.588L193.371 147.575C195.217 147.573 197.142 147.677 198.977 147.536C193.36 153.525 187.835 159.404 181.134 164.215C162.221 177.794 140.003 183.274 116.98 179.402C100.956 176.707 86.1683 168.779 74.3675 157.693C70.9747 154.506 67.7277 151.054 65.0234 147.25C65.8518 146.635 67.2494 147.477 68.1688 147.031V147.03Z" fill="#455A64"/>
<path d="M185.299 37.4945C195.985 33.4961 210.883 34.9369 221.137 39.6409C221.555 39.8323 221.97 40.0296 222.383 40.2318C222.797 40.4339 223.207 40.641 223.614 40.854C224.022 41.066 224.428 41.2839 224.83 41.5057C225.232 41.7285 225.631 41.9552 226.028 42.1878C226.426 42.4204 226.819 42.6579 227.209 42.8993C227.6 43.1418 227.988 43.3881 228.373 43.6403C228.759 43.8926 229.141 44.1487 229.519 44.4098C229.898 44.6708 230.272 44.9368 230.644 45.2077C231.016 45.4786 231.385 45.7534 231.751 46.0331C232.116 46.3128 232.477 46.5974 232.835 46.886C233.194 47.1745 233.548 47.468 233.899 47.7653C234.25 48.0627 234.597 48.365 234.941 48.6712C235.285 48.9774 235.624 49.2876 235.96 49.6026C236.296 49.9177 236.627 50.2356 236.956 50.5585C237.284 50.8814 237.607 51.2083 237.928 51.539C238.248 51.8697 238.563 52.2044 238.875 52.543C239.187 52.8816 239.493 53.2241 239.796 53.5706C240.1 53.917 240.399 54.2674 240.694 54.6207C240.988 54.9741 241.279 55.3323 241.564 55.6925C241.85 56.0536 242.131 56.4178 242.407 56.7858C242.685 57.1539 242.957 57.5258 243.225 57.8997C243.492 58.2747 243.755 58.6525 244.013 59.0333C244.272 59.4151 244.525 59.7988 244.774 60.1865C245.024 60.5742 245.267 60.9648 245.506 61.3584C245.745 61.7519 245.98 62.1484 246.21 62.5479C246.44 62.9473 246.664 63.3497 246.883 63.755C247.102 64.1604 247.316 64.5677 247.526 64.9779C247.735 65.3882 247.939 65.8014 248.139 66.2165C248.338 66.6317 248.533 67.0498 248.722 67.4698C248.91 67.8899 249.094 68.3129 249.273 68.7378C249.452 69.1628 249.624 69.5897 249.792 70.0186C249.96 70.4475 250.123 70.8794 250.281 71.3122C250.438 71.747 250.591 72.1827 250.736 72.6204C250.884 73.0582 251.025 73.4988 251.161 73.9395C251.297 74.3802 251.427 74.8238 251.552 75.2684C251.677 75.713 251.797 76.1595 251.912 76.6071C252.026 77.0546 252.136 77.5041 252.239 77.9536C252.341 78.4041 252.439 78.8556 252.532 79.308C252.625 79.7605 252.711 80.2149 252.792 80.6693C252.874 81.1237 252.951 81.5801 253.021 82.0364C253.091 82.4928 253.156 82.9502 253.215 83.4085C253.274 83.8668 253.328 84.3261 253.375 84.7855C253.423 85.2448 253.466 85.7051 253.502 86.1664C253.54 86.6266 253.572 87.0879 253.596 87.5492C253.622 88.0105 253.642 88.4718 253.657 88.934C253.671 89.3963 253.68 89.8576 253.684 90.3198C253.687 90.7821 253.684 91.2444 253.676 91.7056C253.668 92.1679 253.655 92.6292 253.635 93.0914C253.616 93.5527 253.591 94.015 253.561 94.4753C253.53 94.9365 253.493 95.3968 253.451 95.8571C253.409 96.3174 253.362 96.7768 253.31 97.2361C253.257 97.6954 253.198 98.1537 253.134 98.6111C253.071 99.0684 253 99.5258 252.925 99.9812C252.851 100.438 252.771 100.892 252.685 101.346C252.597 101.801 252.506 102.253 252.409 102.705C252.311 103.156 252.208 103.607 252.1 104.056C251.991 104.506 251.878 104.953 251.759 105.4C251.641 105.846 251.516 106.291 251.386 106.734C251.257 107.178 251.122 107.62 250.981 108.059C250.84 108.499 250.694 108.938 250.543 109.375C250.391 109.811 250.235 110.245 250.073 110.678C249.912 111.111 249.744 111.542 249.571 111.97C249.398 112.398 249.221 112.824 249.038 113.248C248.856 113.672 248.668 114.094 248.475 114.514C243.477 125.483 234.667 134.759 224.221 140.659C222.364 141.708 220.441 142.784 218.437 143.529C217.932 143.716 217.408 143.911 216.87 143.964C216.97 143.86 217.066 143.757 217.136 143.628C217.397 143.16 217.447 142.547 217.483 142.022C217.616 140.008 217.727 126.077 217.393 124.948C217.798 123.614 217.526 110.656 217.524 108.16C217.512 93.1199 217.661 78.0626 217.494 63.0258C217.49 62.6607 217.469 62.3653 217.355 62.0149C217.502 61.5684 217.483 61.0894 217.49 60.6223C217.518 58.9116 217.428 57.199 217.42 55.4883C217.414 53.9072 217.631 52.0974 217.303 50.5487C217.131 49.7322 216.806 48.998 216.215 48.3984C215.624 47.7958 214.844 47.2835 214.014 47.1068C212.143 46.7103 209.789 46.9704 207.868 46.9714H195.154C192.251 43.4175 188.755 40.4879 185.307 37.4906L185.299 37.4945Z" fill="#EBF0F8"/>
<path d="M217.35 62.0195C218.335 62.2305 219.356 62.9166 220.199 63.4662C224.382 66.1956 228.261 69.9732 230.977 74.1826C236.018 81.991 237.919 92.0734 235.959 101.178C234.069 109.97 228.603 118.152 221.034 123.025C219.868 123.775 218.68 124.446 217.387 124.954C217.792 123.62 217.52 110.662 217.518 108.165C217.506 93.1255 217.655 78.0681 217.488 63.0314C217.485 62.6663 217.463 62.3709 217.35 62.0205V62.0195Z" fill="#C5D8F5"/>
<path d="M72.0637 42.2586C73.9904 40.5793 75.7733 38.7941 77.792 37.211C90.7126 27.0776 106.412 20.02 122.818 18.3869C123.514 18.3172 124.209 18.2554 124.905 18.2033C125.602 18.1503 126.299 18.1072 126.996 18.0718C127.694 18.0365 128.392 18.01 129.09 17.9923C129.789 17.9747 130.487 17.9648 131.185 17.9648C131.883 17.9648 132.582 17.9727 133.28 17.9894C133.978 18.0061 134.677 18.0316 135.374 18.0659C136.071 18.1003 136.769 18.1425 137.465 18.1935C138.161 18.2446 138.858 18.3044 139.552 18.3731C140.247 18.4418 140.941 18.5194 141.634 18.6047C142.328 18.6901 143.019 18.7853 143.711 18.8884C144.401 18.9914 145.092 19.1033 145.779 19.2231C146.468 19.3428 147.154 19.4714 147.839 19.6088C148.524 19.7462 149.207 19.8914 149.889 20.0455C150.571 20.1996 151.249 20.3625 151.927 20.5333C152.605 20.7041 153.28 20.8837 153.953 21.0711C154.625 21.2586 155.296 21.4549 155.964 21.659C156.632 21.8631 157.298 22.0761 157.961 22.2969C158.625 22.5178 159.285 22.7464 159.942 22.984C160.599 23.2215 161.253 23.4668 161.905 23.72C162.556 23.9733 163.205 24.2353 163.849 24.5042C164.494 24.7741 165.135 25.0509 165.773 25.3365C166.411 25.6221 167.045 25.9155 167.676 26.2168C168.307 26.5181 168.934 26.8273 169.557 27.1443C170.18 27.4613 170.799 27.7852 171.414 28.1179C172.029 28.4496 172.641 28.7902 173.247 29.1366C173.853 29.4841 174.456 29.8384 175.054 30.2005C175.652 30.5627 176.246 30.9327 176.834 31.3096C177.423 31.6864 178.008 32.0712 178.587 32.4628C179.166 32.8544 179.741 33.2528 180.31 33.6582C180.879 34.0635 181.445 34.4767 182.004 34.8967C182.564 35.3168 183.118 35.7427 183.667 36.1765C184.215 36.6103 184.759 37.05 185.297 37.4976C188.746 40.4949 192.241 43.4235 195.145 46.9783H207.858C209.78 46.9773 212.133 46.7173 214.004 47.1138C214.835 47.2904 215.615 47.8027 216.206 48.4054C216.796 49.005 217.121 49.7391 217.293 50.5557C217.622 52.1044 217.405 53.9142 217.41 55.4953C217.418 57.206 217.508 58.9196 217.481 60.6293C217.473 61.0954 217.493 61.5754 217.346 62.0219C217.459 62.3723 217.481 62.6677 217.485 63.0328C217.651 78.0695 217.502 93.1269 217.514 108.167C217.516 110.664 217.788 123.621 217.383 124.955C217.718 126.084 217.606 140.015 217.473 142.029C217.438 142.554 217.387 143.167 217.127 143.635C217.056 143.764 216.961 143.867 216.861 143.971C216.843 144.577 216.239 145.394 215.814 145.811C215.059 146.553 213.85 147.032 212.825 147.241C211.817 147.447 210.713 147.403 209.686 147.426C207.341 147.474 204.995 147.495 202.65 147.486C201.451 147.488 200.157 147.391 198.974 147.54C197.138 147.681 195.213 147.576 193.368 147.579L182.536 147.592L147.039 147.517L95.7856 147.48L80.4884 147.495C77.5338 147.5 70.7042 147.889 68.1653 147.034C67.9286 146.911 67.7017 146.774 67.4836 146.622C67.2655 146.469 67.0582 146.303 66.8626 146.122C65.9022 145.229 65.3985 144.196 65.2498 142.899C64.9271 140.08 65.1638 136.998 65.1638 134.149L65.1706 116.474L65.152 72.5725C65.152 64.3372 65.3554 56.0567 65.0836 47.8292C65.198 46.3237 65.7183 44.9958 66.8098 43.9309C68.3277 42.4509 70.047 42.2389 72.0608 42.2595L72.0637 42.2586Z" fill="#2F57C4"/>
<path d="M147.255 48.789L191.884 48.8125L205.176 48.8273C207.584 48.8253 210.044 48.7223 212.45 48.8459C213.035 48.8763 214.253 48.8911 214.683 49.3308C215.127 49.7881 215.418 50.428 215.516 51.0581C215.778 52.7648 215.577 54.8003 215.581 56.5434C215.587 59.366 215.739 62.2858 215.575 65.0996C215.559 65.3784 215.487 65.6002 215.332 65.8338C213.708 65.6375 211.855 65.8063 210.211 65.8102L199.403 65.8063L163.91 65.7484C159.72 65.7327 155.51 65.8465 151.323 65.7356C149.604 65.6905 148.317 65.4039 147.1 64.1172C147.539 63.0906 147.257 50.9433 147.256 48.788L147.255 48.789Z" fill="#E8543F"/>
<path d="M168.111 57.3433C167.384 56.8457 166.576 56.3049 166.378 55.3775C166.255 54.8004 166.504 54.1222 166.826 53.6511C166.867 53.5903 166.911 53.5324 166.958 53.4754C167.005 53.4195 167.055 53.3655 167.106 53.3145C167.158 53.2634 167.213 53.2153 167.271 53.1692C167.327 53.1241 167.387 53.0809 167.449 53.0416C167.51 53.0024 167.573 52.9661 167.638 52.9327C167.704 52.8993 167.77 52.8699 167.838 52.8434C167.906 52.8169 167.976 52.7943 168.046 52.7747C168.117 52.755 168.188 52.7393 168.259 52.7276C168.343 52.7148 168.426 52.706 168.51 52.7021C168.594 52.6981 168.677 52.6981 168.761 52.703C168.845 52.7079 168.928 52.7168 169.011 52.7305C169.094 52.7443 169.175 52.7619 169.256 52.7845C169.337 52.8071 169.416 52.8336 169.495 52.864C169.573 52.8944 169.649 52.9297 169.724 52.968C169.798 53.0073 169.87 53.0495 169.94 53.0956C170.01 53.1417 170.077 53.1918 170.142 53.2458C170.602 53.6226 170.908 54.1811 170.93 54.7808C170.955 55.455 170.625 56.1587 170.149 56.6229C169.848 56.9164 169.484 57.1578 169.141 57.3983C168.799 57.412 168.453 57.3708 168.113 57.3433H168.111Z" fill="#EDAFB6"/>
<path d="M157.391 57.3813C157.379 57.3499 157.372 57.3175 157.356 57.2881C156.847 56.339 155.339 56.3665 155.775 54.3938C155.907 53.8 156.246 53.2985 156.763 52.9795C157.35 52.6184 158.09 52.5349 158.747 52.7352C159.326 52.9118 159.811 53.3005 160.082 53.8471C160.349 54.3869 160.428 55.1623 160.191 55.7256C159.949 56.3017 159.38 56.8445 158.933 57.2665L158.911 57.3803C158.4 57.4589 157.904 57.4137 157.391 57.3823V57.3813Z" fill="#EDAFB6"/>
<path d="M168.11 57.3438C168.45 57.3702 168.797 57.4125 169.138 57.3987C169.997 57.6716 170.975 57.9208 171.726 58.439C172.2 58.7668 172.647 59.2772 172.721 59.872C172.758 60.1644 172.732 60.2037 172.568 60.4275C170.119 60.7513 166.87 60.4922 164.336 60.4805C164.414 60.187 164.503 59.8935 164.635 59.6197C165.293 58.2535 166.796 57.806 168.11 57.3447V57.3438Z" fill="#FEFEFE"/>
<path d="M180.156 55.7509C182.115 55.7175 189.976 55.3868 191.267 56.1611C191.373 56.3201 191.517 56.4477 191.488 56.6469C191.432 57.0582 191.099 57.3104 190.796 57.5548C189.277 57.5636 180.83 57.8806 180.053 57.4046C179.746 57.2162 179.717 57.0366 179.637 56.7166C179.719 56.2858 179.864 56.0728 180.155 55.7499L180.156 55.7509Z" fill="#FEFEFE"/>
<path d="M153.699 60.4273C153.846 59.9326 153.981 59.4301 154.283 59.0042C155.019 57.9668 156.199 57.588 157.392 57.3809C157.905 57.4123 158.402 57.4574 158.912 57.3789C159.558 57.5408 160.204 57.7558 160.799 58.059C161.487 58.4114 162.221 59.0434 162.437 59.8188C162.516 60.1044 162.478 60.1544 162.346 60.3988C159.817 60.6952 156.285 60.5127 153.7 60.4263L153.699 60.4273Z" fill="#FEFEFE"/>
<path d="M195.88 55.7837C198.324 55.7357 200.77 55.7847 203.215 55.7808C204.52 55.7788 205.906 55.6306 207.199 55.8152C207.668 55.8819 208.005 55.9751 208.369 56.2931C208.466 56.5787 208.482 56.7328 208.343 57.0145C208.14 57.4237 207.921 57.4218 207.512 57.5337C205.87 57.6907 204.105 57.57 202.452 57.5749C200.606 57.5808 198.626 57.729 196.797 57.5337C196.321 57.4836 195.556 57.408 195.255 56.9998C195.099 56.7887 195.111 56.7465 195.15 56.5051C195.373 56.2048 195.572 55.9948 195.881 55.7847L195.88 55.7837Z" fill="#FEFEFE"/>
<path d="M72.0654 42.2586C73.9921 40.5793 75.7751 38.7941 77.7937 37.211C90.7143 27.0776 106.414 20.02 122.82 18.3869C123.515 18.3172 124.211 18.2554 124.907 18.2033C125.603 18.1503 126.301 18.1072 126.998 18.0718C127.695 18.0365 128.394 18.01 129.092 17.9923C129.79 17.9747 130.489 17.9648 131.187 17.9648C131.885 17.9648 132.583 17.9727 133.282 17.9894C133.98 18.0061 134.678 18.0316 135.376 18.0659C136.073 18.1003 136.77 18.1425 137.467 18.1935C138.163 18.2446 138.859 18.3044 139.554 18.3731C140.249 18.4418 140.943 18.5194 141.636 18.6047C142.329 18.6901 143.021 18.7853 143.712 18.8884C144.403 18.9914 145.093 19.1033 145.781 19.2231C146.469 19.3428 147.156 19.4714 147.841 19.6088C148.525 19.7462 149.209 19.8914 149.891 20.0455C150.572 20.1996 151.251 20.3625 151.929 20.5333C152.607 20.7041 153.281 20.8837 153.954 21.0711C154.627 21.2586 155.298 21.4549 155.966 21.659C156.634 21.8631 157.3 22.0761 157.963 22.2969C158.626 22.5178 159.286 22.7464 159.944 22.984C160.601 23.2215 161.255 23.4668 161.907 23.72C162.558 23.9733 163.206 24.2353 163.851 24.5042C164.495 24.7741 165.137 25.0509 165.775 25.3365C166.412 25.6221 167.047 25.9155 167.678 26.2168C168.309 26.5181 168.936 26.8273 169.559 27.1443C170.182 27.4613 170.801 27.7852 171.416 28.1179C172.031 28.4496 172.642 28.7902 173.249 29.1366C173.855 29.4841 174.457 29.8384 175.056 30.2005C175.654 30.5627 176.247 30.9327 176.836 31.3096C177.425 31.6864 178.01 32.0712 178.589 32.4628C179.168 32.8544 179.743 33.2528 180.312 33.6582C180.881 34.0635 181.446 34.4767 182.006 34.8967C182.565 35.3168 183.12 35.7427 183.668 36.1765C184.217 36.6103 184.761 37.05 185.299 37.4976C188.747 40.4949 192.243 43.4235 195.147 46.9783L147.146 46.9548C146.883 45.8016 146.399 44.7936 145.563 43.9447C144.741 43.1114 143.603 42.4843 142.438 42.3312C140.229 42.0417 137.76 42.2576 135.531 42.2625L121.568 42.2792L72.0645 42.2605L72.0654 42.2586Z" fill="#455A64"/>
<path d="M70.2507 145.693C69.3607 145.618 68.6086 145.389 67.9699 144.721C67.2951 144.017 67.0193 143.067 66.9508 142.114C66.851 140.727 66.9479 139.279 66.9625 137.887C66.9792 135.86 66.9801 133.833 66.9665 131.806L66.9577 110.503L66.944 49.1457C66.9518 47.5861 66.9596 46.3211 68.1587 45.1669C68.9323 44.422 70.3377 44.2119 71.3744 44.1432C74.7505 43.9195 78.2342 44.1 81.6211 44.101L101.637 44.1089L128.392 44.1246C132.741 44.1256 137.145 43.943 141.487 44.1108C142.983 44.1687 144.292 44.7782 144.985 46.1748C145.887 47.9905 145.493 55.2807 145.459 57.6842C145.439 59.1063 145.301 60.6472 145.741 62.0183C146.014 62.8682 146.504 63.4698 147.098 64.1186C148.315 65.4053 149.603 65.6909 151.321 65.737C155.508 65.8479 159.718 65.734 163.908 65.7497L199.401 65.8077L210.209 65.8116C211.855 65.8086 213.706 65.6398 215.33 65.8351C215.432 65.9931 215.501 66.1011 215.546 66.2856C215.786 67.2788 215.598 74.7074 215.598 76.4347L215.581 106.991L215.608 132.134C215.604 134.871 215.896 140.404 215.381 142.812C215.174 143.78 214.665 144.425 213.836 144.948C213.314 145.278 212.778 145.435 212.167 145.486C209.981 145.67 207.702 145.552 205.506 145.558L193.503 145.609L158.835 145.643C153.685 145.653 148.508 145.569 143.36 145.695C139.496 145.798 135.623 145.727 131.757 145.727L114.242 145.758L70.2487 145.694L70.2507 145.693Z" fill="#FEFEFE"/>
<path d="M129.215 84.8565C130.528 86.7055 131.157 88.6144 130.792 90.9022C130.574 92.2703 129.949 93.5413 128.798 94.349C127.711 95.1116 126.58 95.2421 125.287 95.2706C125.96 92.5431 126.525 89.8324 126.384 87.0058C126.595 86.9872 126.808 86.9626 127.014 86.9185C128.06 86.6947 128.659 85.6769 129.215 84.8555V84.8565Z" fill="#F5A78F"/>
<path d="M85.2367 85.9883C85.7101 86.4908 86.2549 87.0669 86.9913 87.113C87.1605 87.1238 87.1654 87.116 87.3092 87.0934C87.3424 89.9788 87.5566 92.7495 88.3116 95.5446C87.5948 95.5328 86.8378 95.5034 86.1395 95.3326C84.8446 95.0176 83.6788 94.2403 82.9902 93.0812C82.2997 91.9182 82.0934 90.4391 82.4543 89.1328C82.8826 87.5812 83.8861 86.7381 85.2367 85.9883Z" fill="#F5A78F"/>
<path d="M161.518 96.2014C162.545 96.0228 163.719 96.1661 164.766 96.169L171.959 96.1759L184.319 96.169C186.085 96.1671 188.152 95.9561 189.89 96.1985C190.221 96.2446 190.286 96.3722 190.461 96.6382C190.481 97.0484 190.406 97.2516 190.219 97.6137C188.133 97.7541 185.973 97.6471 183.878 97.6461L171.832 97.6432C169.66 97.6471 167.486 97.6618 165.314 97.6893C164.256 97.7001 162.973 97.8375 161.932 97.653C161.602 97.5941 161.538 97.5008 161.359 97.226C161.321 96.8217 161.361 96.5763 161.517 96.2024L161.518 96.2014Z" fill="#B3CDF9"/>
<path d="M161.706 112.29C163.433 112.123 189.511 112.181 190.15 112.432C190.397 112.529 190.419 112.652 190.532 112.875C190.498 113.252 190.342 113.431 190.113 113.722C189.025 113.85 187.84 113.748 186.741 113.744L180.016 113.732L167.218 113.776C165.847 113.782 163.142 114.034 161.897 113.717C161.569 113.633 161.498 113.466 161.355 113.183C161.369 112.779 161.47 112.613 161.706 112.29Z" fill="#B3CDF9"/>
<path d="M161.765 80.1229C166.176 79.9325 170.666 80.1278 175.088 80.1288C179.804 80.1298 184.557 79.9522 189.267 80.0837C189.556 80.0915 189.886 80.119 190.136 80.2819C190.416 80.4635 190.462 80.6078 190.525 80.9208C190.422 81.2751 190.315 81.4145 190.043 81.6579C186.678 81.6501 162.603 81.8689 161.777 81.55C161.453 81.4243 161.387 81.2653 161.277 80.9572C161.359 80.5499 161.467 80.4046 161.765 80.1219V80.1229Z" fill="#B3CDF9"/>
<path d="M161.789 75.0142C167.651 74.7404 174.072 75.0387 179.986 75.0358L196.549 75.0161C198.422 75.0181 203.301 74.7384 204.832 75.235C205.012 75.2929 205.09 75.3263 205.156 75.5216C205.256 75.8101 205.178 76.0172 205.053 76.2704C204.656 76.5364 204.548 76.5433 204.067 76.5727C201.169 76.6532 161.958 76.6365 161.672 76.4971C161.372 76.3519 161.339 76.2057 161.252 75.9024C161.333 75.4705 161.477 75.3145 161.789 75.0142Z" fill="#B3CDF9"/>
<path d="M147.941 128.945C151.837 129.049 155.738 128.99 159.635 128.994L177.997 129.012C181.658 129.004 185.377 128.834 189.033 128.983C189.466 129 189.825 128.979 190.203 129.213C190.41 129.549 190.414 129.612 190.41 130.008C190.203 130.376 190.146 130.407 189.769 130.603H161.225L151.995 130.611C150.891 130.613 149.76 130.705 148.661 130.666C148.149 130.648 147.708 130.482 147.297 130.185C147.113 129.863 147.085 129.86 147.147 129.472C147.41 129.203 147.587 129.074 147.941 128.946V128.945Z" fill="#C5D8F5"/>
<path d="M161.729 91.1016C163.818 90.9681 165.984 91.0839 168.08 91.0888L180.28 91.1055L195.454 91.0604C198.165 91.0496 200.906 90.9465 203.61 91.0623C204.14 91.0849 204.53 91.0839 204.97 91.3921C205.062 91.6561 205.112 91.8514 204.999 92.1242C204.839 92.5031 204.598 92.5335 204.248 92.6503C201.894 92.7612 199.496 92.6797 197.136 92.6817L183.904 92.6915L169.373 92.7004C167.077 92.7023 164.747 92.7956 162.456 92.7121C162.155 92.7013 161.827 92.6719 161.555 92.5345C161.279 92.3951 161.277 92.3078 161.18 92.034C161.27 91.6119 161.444 91.4166 161.729 91.1016Z" fill="#B3CDF9"/>
<path d="M161.774 107.31L191.637 107.391C195.61 107.41 199.697 107.187 203.657 107.405C204.117 107.43 204.602 107.422 204.983 107.705C205.089 107.975 205.124 108.138 205.003 108.418C204.848 108.782 204.611 108.817 204.275 108.942C203.031 109.157 201.54 109.002 200.272 109.001L191.361 108.992L171.112 108.958C168.543 108.957 165.968 109.058 163.401 109.013C162.903 109.005 162.224 108.978 161.771 108.754C161.476 108.609 161.417 108.48 161.318 108.178C161.368 107.763 161.493 107.612 161.774 107.311V107.31Z" fill="#B3CDF9"/>
<path d="M149.953 105.888C151.104 105.777 152.152 105.771 153.208 106.311C154.369 106.904 155.23 108.005 155.608 109.248C155.633 109.328 155.656 109.408 155.677 109.49C155.697 109.57 155.717 109.652 155.733 109.734C155.75 109.816 155.765 109.898 155.777 109.982C155.79 110.064 155.801 110.147 155.809 110.23C155.817 110.313 155.823 110.397 155.827 110.48C155.831 110.564 155.833 110.647 155.833 110.731C155.833 110.816 155.831 110.898 155.826 110.982C155.822 111.065 155.815 111.148 155.808 111.232C155.799 111.315 155.789 111.398 155.776 111.48C155.764 111.563 155.749 111.645 155.732 111.727C155.716 111.808 155.696 111.889 155.676 111.971C155.655 112.051 155.632 112.132 155.607 112.211C155.582 112.291 155.555 112.37 155.526 112.449C155.497 112.527 155.466 112.605 155.433 112.681C155.4 112.758 155.366 112.835 155.328 112.909C155.291 112.985 155.253 113.058 155.212 113.131C154.496 114.416 153.415 115.108 152.04 115.514C150.867 115.702 149.8 115.637 148.727 115.081C147.529 114.46 146.626 113.322 146.226 112.036C146.202 111.961 146.181 111.886 146.161 111.811C146.142 111.735 146.124 111.66 146.109 111.583C146.093 111.507 146.079 111.43 146.066 111.354C146.055 111.277 146.044 111.199 146.036 111.122C146.028 111.044 146.021 110.967 146.018 110.889C146.013 110.812 146.011 110.734 146.01 110.656C146.01 110.578 146.01 110.5 146.014 110.422C146.017 110.345 146.022 110.266 146.029 110.189C146.036 110.111 146.046 110.034 146.057 109.957C146.067 109.879 146.08 109.803 146.095 109.726C146.11 109.65 146.126 109.574 146.145 109.499C146.163 109.423 146.184 109.347 146.205 109.273C146.228 109.198 146.251 109.125 146.278 109.051C146.304 108.977 146.332 108.905 146.361 108.833C146.39 108.762 146.422 108.69 146.455 108.619C146.488 108.549 146.522 108.479 146.558 108.41C147.301 107.001 148.487 106.347 149.953 105.89V105.888Z" fill="#B3CDF9"/>
<path d="M152.776 108.466C153.181 108.631 153.285 108.68 153.487 109.08C153.481 109.458 153.417 109.686 153.239 110.02C152.771 110.9 151.481 112.708 150.509 112.981C150.076 112.821 149.823 112.47 149.523 112.133C149.227 111.846 148.881 111.54 148.661 111.189C148.44 110.836 148.45 110.496 148.551 110.11C148.771 109.9 148.802 109.842 149.121 109.828C149.667 109.804 150.076 110.265 150.458 110.6C151.184 109.847 151.875 109.009 152.776 108.465V108.466Z" fill="#FEFEFE"/>
<path d="M149.977 73.5573C151.069 73.4768 151.967 73.4886 152.977 73.9636C153.054 73.9999 153.13 74.0382 153.204 74.0784C153.279 74.1187 153.353 74.1609 153.425 74.2041C153.498 74.2482 153.569 74.2934 153.639 74.3405C153.71 74.3876 153.779 74.4367 153.847 74.4877C153.914 74.5387 153.982 74.5908 154.046 74.6447C154.112 74.6987 154.175 74.7547 154.238 74.8116C154.301 74.8685 154.361 74.9274 154.422 74.9882C154.482 75.0491 154.539 75.1109 154.596 75.1737C154.653 75.2375 154.707 75.3013 154.761 75.3681C154.815 75.4338 154.867 75.5015 154.917 75.5702C154.967 75.6389 155.016 75.7086 155.062 75.7793C155.108 75.8499 155.153 75.9226 155.196 75.9962C155.24 76.0698 155.281 76.1434 155.321 76.219C155.36 76.2945 155.398 76.3701 155.433 76.4476C155.469 76.5252 155.503 76.6027 155.535 76.6812C155.566 76.7597 155.596 76.8402 155.624 76.9197C155.65 76.9973 155.675 77.0748 155.698 77.1533C155.721 77.2318 155.742 77.3103 155.761 77.3898C155.779 77.4693 155.797 77.5488 155.812 77.6293C155.826 77.7098 155.839 77.7903 155.851 77.8707C155.862 77.9522 155.87 78.0327 155.877 78.1141C155.884 78.1956 155.889 78.2771 155.892 78.3585C155.895 78.44 155.896 78.5214 155.894 78.6029C155.893 78.6844 155.889 78.7658 155.884 78.8473C155.879 78.9287 155.871 79.0102 155.862 79.0907C155.853 79.1721 155.841 79.2526 155.827 79.3331C155.814 79.4136 155.799 79.4941 155.781 79.5736C155.764 79.6531 155.745 79.7325 155.724 79.8111C155.702 79.8896 155.679 79.9681 155.654 80.0456C155.629 80.1232 155.602 80.1997 155.573 80.2763C155.544 80.3528 155.513 80.4284 155.48 80.503C155.448 80.5776 155.413 80.6512 155.376 80.7248C154.64 82.1999 153.408 82.9546 151.899 83.466C150.659 83.57 149.588 83.5592 148.465 82.9595C148.395 82.9222 148.326 82.882 148.258 82.8418C148.191 82.8005 148.123 82.7583 148.058 82.7132C147.992 82.669 147.928 82.6229 147.864 82.5748C147.801 82.5277 147.738 82.4786 147.677 82.4276C147.616 82.3766 147.556 82.3245 147.497 82.2715C147.439 82.2176 147.382 82.1626 147.326 82.1067C147.271 82.0497 147.216 81.9918 147.163 81.9329C147.11 81.8741 147.058 81.8132 147.008 81.7514C146.959 81.6895 146.91 81.6267 146.863 81.5629C146.816 81.4991 146.771 81.4334 146.727 81.3667C146.683 81.2999 146.641 81.2332 146.601 81.1645C146.561 81.0958 146.521 81.0271 146.484 80.9564C146.447 80.8857 146.412 80.8151 146.379 80.7425C146.345 80.6708 146.313 80.5972 146.284 80.5236C146.253 80.45 146.226 80.3754 146.2 80.3008C146.173 80.2252 146.149 80.1497 146.126 80.0741C146.102 79.9926 146.08 79.9112 146.06 79.8297C146.04 79.7473 146.022 79.6648 146.006 79.5824C145.99 79.499 145.976 79.4165 145.964 79.3321C145.952 79.2487 145.942 79.1643 145.934 79.0809C145.925 78.9974 145.92 78.9121 145.916 78.8277C145.912 78.7432 145.91 78.6588 145.91 78.5744C145.91 78.49 145.913 78.4056 145.917 78.3212C145.921 78.2368 145.928 78.1524 145.936 78.069C145.944 77.9846 145.954 77.9012 145.967 77.8177C145.98 77.7343 145.993 77.6509 146.01 77.5685C146.027 77.486 146.045 77.4036 146.066 77.3211C146.086 77.2397 146.109 77.1582 146.133 77.0768C146.158 76.9953 146.184 76.9158 146.212 76.8363C146.241 76.7568 146.271 76.6783 146.302 76.5998C146.335 76.5213 146.369 76.4437 146.404 76.3682C146.44 76.2916 146.477 76.216 146.517 76.1414C147.274 74.738 148.495 74.0048 149.977 73.5593V73.5573Z" fill="#F5A78F"/>
<path d="M153.21 76.2627C153.403 76.3638 153.626 76.4629 153.762 76.6406C153.919 76.8457 153.975 77.0528 153.917 77.3079C153.665 78.4091 151.545 80.1787 150.648 80.8539C149.875 80.2199 149.211 79.4122 148.533 78.679C148.265 78.4356 147.875 78.1392 147.741 77.7957C147.604 77.4434 147.601 77.1175 147.737 76.7701L148.071 76.6307C149.159 76.8251 149.928 78.0774 150.624 78.8665C151.487 77.9959 152.256 77.039 153.209 76.2617L153.21 76.2627Z" fill="#FEFEFE"/>
<path d="M150.369 89.5379C151.454 89.4898 152.41 89.5938 153.385 90.1081C153.461 90.1483 153.534 90.1896 153.607 90.2337C153.68 90.2779 153.752 90.323 153.823 90.3702C153.893 90.4173 153.962 90.4663 154.031 90.5174C154.099 90.5684 154.166 90.6204 154.231 90.6754C154.297 90.7294 154.361 90.7853 154.424 90.8432C154.487 90.9001 154.548 90.959 154.608 91.0199C154.668 91.0807 154.726 91.1426 154.783 91.2054C154.84 91.2692 154.895 91.3339 154.948 91.3997C155.002 91.4654 155.054 91.5332 155.104 91.6019C155.154 91.6706 155.203 91.7403 155.249 91.8119C155.296 91.8835 155.34 91.9552 155.383 92.0288C155.426 92.1024 155.467 92.177 155.506 92.2526C155.545 92.3281 155.582 92.4047 155.618 92.4822C155.653 92.5598 155.688 92.6383 155.719 92.7168C155.75 92.7963 155.78 92.8758 155.808 92.9563C155.835 93.0367 155.861 93.1182 155.884 93.1997C155.908 93.2782 155.929 93.3577 155.948 93.4372C155.967 93.5167 155.984 93.5971 156 93.6776C156.015 93.7581 156.028 93.8396 156.04 93.92C156.052 94.0015 156.06 94.083 156.068 94.1644C156.076 94.2459 156.081 94.3283 156.084 94.4098C156.087 94.4922 156.089 94.5737 156.088 94.6561C156.088 94.7386 156.084 94.82 156.079 94.9025C156.074 94.9839 156.067 95.0664 156.058 95.1478C156.05 95.2293 156.038 95.3107 156.025 95.3922C156.012 95.4737 155.997 95.5541 155.98 95.6346C155.963 95.7151 155.944 95.7946 155.923 95.8741C155.902 95.9536 155.879 96.0321 155.854 96.1106C155.829 96.1891 155.802 96.2667 155.774 96.3432C155.745 96.4198 155.714 96.4963 155.682 96.5719C155.65 96.6475 155.614 96.7211 155.578 96.7947C155.542 96.8683 155.504 96.9409 155.464 97.0126C154.643 98.5034 153.387 99.2797 151.797 99.74C150.578 99.8068 149.421 99.6095 148.365 98.9647C147.175 98.2384 146.262 97.043 145.959 95.668C145.671 94.3568 145.964 92.9602 146.689 91.8394C147.562 90.4909 148.846 89.8569 150.371 89.5369L150.369 89.5379Z" fill="#069FA6"/>
<path d="M153.547 92.0898C153.703 92.1517 153.881 92.2135 154.02 92.3087C154.302 92.5021 154.347 92.6434 154.389 92.9663C153.893 93.773 151.249 96.8155 150.481 97.1148C150.023 96.95 149.755 96.5819 149.436 96.2296C149.048 95.8331 148.603 95.4641 148.418 94.9282C148.503 94.5317 148.561 94.516 148.849 94.2559C149.89 94.0194 149.729 94.884 150.478 95.0411C151.653 94.2647 152.387 92.9241 153.546 92.0908L153.547 92.0898Z" fill="#FEFEFE"/>
<path d="M147.493 123.397C150.545 123.263 153.66 123.397 156.717 123.397L175.059 123.388L194.038 123.379C197.253 123.376 200.519 123.254 203.728 123.384C204.174 123.402 204.594 123.417 204.954 123.709C205.064 123.954 205.134 124.119 205.042 124.389C204.911 124.777 204.739 124.817 204.393 124.964C199.592 125.098 194.743 124.944 189.938 124.927L165.856 124.932L153.385 124.935C151.704 124.937 149.659 125.174 148.015 124.892C147.586 124.818 147.421 124.688 147.188 124.33C147.179 123.908 147.257 123.742 147.492 123.398L147.493 123.397Z" fill="#B3CDF9"/>
<path d="M99.1884 108.48C103.233 110.199 107.155 110.986 111.468 109.66C112.571 109.321 113.614 108.609 114.72 108.346C114.782 108.331 114.845 108.318 114.906 108.305L115.53 114.039L115.634 115.248C116.908 115.533 118.164 115.891 119.423 116.237C118.029 119.727 115.995 122.516 112.525 124.137C109.449 125.574 105.994 125.652 102.83 124.453C98.7219 122.899 96.3874 119.978 94.6465 116.066C95.9385 115.706 97.2236 115.402 98.541 115.146C98.7747 113.474 99.0046 111.808 99.1336 110.124L99.1894 108.478L99.1884 108.48Z" fill="#F8CCB6"/>
<path d="M99.1886 108.48C103.233 110.199 107.156 110.986 111.469 109.66C112.571 109.321 113.614 108.609 114.721 108.346C114.782 108.331 114.845 108.318 114.906 108.305L115.53 114.039C109.615 114.638 104.116 113.429 99.1328 110.125L99.1886 108.479V108.48Z" fill="#F5A78F"/>
<path d="M82.5487 61.0567C85.5513 57.7197 89.5005 54.9629 93.6816 53.3484C100.453 50.7338 108.781 50.246 115.509 53.2836C118.863 54.797 120.417 56.8767 121.681 60.246C122.882 60.4619 124.071 60.8123 125.169 61.3491C127.99 62.7281 130.027 65.2975 131.043 68.2477C132.869 73.5465 131.578 79.9259 129.214 84.8557C128.659 85.6772 128.06 86.695 127.014 86.9187C126.807 86.9629 126.594 86.9874 126.384 87.0061C126.37 86.9786 126.355 86.9511 126.343 86.9227C125.923 85.9883 126.115 84.4877 126.01 83.4631C125.523 78.704 123.925 72.2039 119.08 70.1733C118.465 69.9152 117.627 69.6963 116.985 69.9486C116.288 70.2234 113.896 72.199 113.038 72.7663C108.739 75.6046 103.884 77.2436 98.8211 78.0082C97.0841 78.2702 95.2709 78.4763 93.5124 78.5048C91.9221 78.5303 89.8966 78.2182 88.367 78.5706C87.9797 78.6599 87.7489 78.8189 87.6139 79.2026C86.9137 81.193 88.0902 85.3141 87.3068 87.0954C87.163 87.1189 87.1582 87.1258 86.989 87.115C86.2525 87.0679 85.7078 86.4928 85.2344 85.9903C82.8549 81.4904 81.7898 76.2004 82.5155 71.1322C81.4172 72.1333 80.6749 73.15 79.9061 74.4053C79.8807 73.5956 79.8592 72.7653 79.9374 71.9586C80.3687 67.5165 82.8969 64.1659 86.2359 61.4208C84.9958 61.3482 83.7771 61.2274 82.5458 61.0576L82.5487 61.0567Z" fill="#2F3575"/>
<path d="M87.3086 87.0944C88.093 85.3131 86.9154 81.192 87.6157 79.2016C87.7507 78.8179 87.9815 78.6589 88.3688 78.5696C89.8974 78.2172 91.9239 78.5293 93.5141 78.5038C95.2726 78.4753 97.0859 78.2702 98.8228 78.0072C103.886 77.2427 108.741 75.6036 113.039 72.7653C113.897 72.199 116.288 70.2224 116.987 69.9476C117.629 69.6953 118.466 69.9142 119.082 70.1723C123.927 72.2039 125.525 78.704 126.012 83.4621C126.117 84.4867 125.924 85.9863 126.344 86.9217C126.357 86.9501 126.372 86.9766 126.385 87.0051C126.526 89.8316 125.96 92.5424 125.288 95.2698C123.874 99.3841 121.732 103.217 118.31 105.997C117.296 106.82 115.802 107.46 114.908 108.307C114.847 108.321 114.784 108.334 114.723 108.349C113.616 108.611 112.573 109.323 111.471 109.663C107.158 110.989 103.234 110.202 99.1906 108.483C98.6664 108.211 98.15 107.926 97.6404 107.626C93.2354 104.998 89.5913 100.582 88.312 95.5466C87.557 92.7515 87.3438 89.9808 87.3096 87.0954L87.3086 87.0944Z" fill="#F8CCB6"/>
<path d="M97.1302 86.4979C97.3796 86.4813 97.6427 86.4587 97.8911 86.4999C98.3567 86.5774 98.7782 86.8787 99.0374 87.2703C99.3112 87.6845 99.3689 88.1919 99.2369 88.6669C99.0491 89.3441 98.6051 89.6366 98.0281 89.9507C97.8364 89.9732 97.6672 89.985 97.4745 89.9566C96.9816 89.8829 96.4877 89.6651 96.1894 89.248C95.9038 88.8495 95.849 88.3254 95.9654 87.8553C96.1356 87.1683 96.5718 86.8532 97.1302 86.4989V86.4979Z" fill="#2F3575"/>
<path d="M115.234 86.5121C115.542 86.4777 115.854 86.4434 116.162 86.4954C116.661 86.5798 117.11 86.888 117.391 87.309C117.421 87.3532 117.449 87.3983 117.474 87.4454C117.499 87.4925 117.522 87.5406 117.542 87.5897C117.563 87.6388 117.581 87.6888 117.596 87.7399C117.612 87.7909 117.625 87.8429 117.635 87.8949C117.646 87.947 117.653 87.9999 117.658 88.0529C117.663 88.1059 117.666 88.1589 117.665 88.2129C117.665 88.2659 117.662 88.3189 117.656 88.3719C117.65 88.4249 117.642 88.4779 117.631 88.5299C117.495 89.2081 117.091 89.5516 116.556 89.9226C116.351 89.9569 116.139 89.9942 115.931 89.9923C115.413 89.9874 114.821 89.692 114.501 89.2847C114.204 88.9068 114.092 88.4004 114.175 87.9293C114.296 87.2452 114.707 86.8958 115.233 86.5121H115.234Z" fill="#2F3575"/>
<path d="M115.105 81.8102C116.431 81.7219 118.124 81.6434 119.304 82.3529C119.699 82.5914 119.929 82.8319 120.048 83.2784C119.973 83.5699 119.98 83.6759 119.708 83.8408C119.365 84.0489 118.94 83.9704 118.573 83.8968C116.894 83.46 115.333 83.9144 113.688 83.6455C113.431 83.4944 113.374 83.3177 113.264 83.0566C113.284 82.9173 113.276 82.7759 113.359 82.6591C113.778 82.0605 114.438 81.9447 115.106 81.8102H115.105Z" fill="#2F3575"/>
<path d="M96.5378 81.706C97.4728 81.6186 98.5007 81.6265 99.377 81.9975C99.7506 82.1555 100.273 82.4313 100.411 82.8464C100.479 83.0535 100.408 83.0987 100.326 83.2881C99.378 83.9417 98.4 83.6915 97.3378 83.5609C96.2649 83.5806 94.9945 84.0723 93.9764 83.876C93.6644 83.6659 93.592 83.5668 93.457 83.2155C93.4922 82.9249 93.4874 82.7787 93.6839 82.5353C94.2228 81.8669 95.726 81.813 96.5368 81.706H96.5378Z" fill="#2F3575"/>
<path d="M112.202 96.0117C112.267 96.0137 112.333 96.0127 112.397 96.0186C112.741 96.049 112.819 96.1256 113.024 96.3915C113.041 96.6497 113.028 96.8067 112.898 97.0363C112.204 98.2641 110.459 99.0463 109.159 99.3712C107.069 99.8943 105.1 99.5145 103.276 98.4035C103.162 98.2926 103.047 98.1827 102.94 98.0669C102.648 97.7538 102.441 97.3926 102.479 96.949C102.499 96.7193 102.536 96.7468 102.696 96.6084C103.552 96.4475 103.933 97.0962 104.621 97.4525C105.144 97.7234 105.918 97.8804 106.5 97.9579C108.782 98.2641 110.45 97.3563 112.202 96.0117Z" fill="#F5A78F"/>
<path d="M107.174 88.3633C107.561 88.4055 107.92 88.4712 108.279 88.6332C108.36 88.6685 108.437 88.7078 108.513 88.7509C108.589 88.7941 108.663 88.8412 108.733 88.8923C108.804 88.9433 108.872 88.9973 108.938 89.0562C109.003 89.1151 109.066 89.1759 109.124 89.2397C109.183 89.3035 109.239 89.3712 109.292 89.4419C109.343 89.5126 109.392 89.5852 109.436 89.6607C109.481 89.7363 109.521 89.8139 109.559 89.8934C109.595 89.9728 109.628 90.0543 109.655 90.1367C109.681 90.2153 109.702 90.2948 109.72 90.3752C109.738 90.4557 109.75 90.5372 109.759 90.6186C109.768 90.7001 109.772 90.7825 109.772 90.865C109.772 90.9474 109.768 91.0299 109.759 91.1113C109.75 91.1938 109.738 91.2742 109.721 91.3547C109.703 91.4352 109.683 91.5147 109.657 91.5932C109.632 91.6717 109.603 91.7483 109.568 91.8239C109.535 91.8994 109.497 91.9721 109.456 92.0437C109.012 92.8132 108.334 93.1468 107.522 93.3794C107.021 93.3049 106.559 93.246 106.109 92.9898C105.501 92.6443 105.031 92.0584 104.857 91.3753C104.837 91.2968 104.821 91.2173 104.809 91.1368C104.798 91.0564 104.79 90.9759 104.787 90.8944C104.784 90.813 104.785 90.7325 104.79 90.651C104.795 90.5696 104.804 90.4891 104.819 90.4096C104.833 90.3301 104.851 90.2506 104.874 90.1731C104.896 90.0955 104.923 90.018 104.953 89.9434C104.983 89.8678 105.018 89.7952 105.056 89.7236C105.094 89.6519 105.136 89.5832 105.182 89.5155C105.674 88.7922 106.361 88.5291 107.173 88.3633H107.174Z" fill="#F5A78F"/>
<path d="M79.7545 123.958C83.4074 120.705 87.8985 118.564 92.3945 116.781C94.0806 121.018 97.3462 124.77 101.55 126.585C101.766 126.678 101.985 126.766 102.205 126.849C102.426 126.931 102.649 127.009 102.873 127.08C103.098 127.151 103.324 127.217 103.552 127.277C103.78 127.337 104.008 127.392 104.239 127.44C104.47 127.489 104.702 127.531 104.935 127.568C105.167 127.606 105.401 127.637 105.635 127.662C105.87 127.687 106.104 127.707 106.339 127.72C106.574 127.734 106.81 127.742 107.045 127.744C107.281 127.746 107.517 127.742 107.751 127.732C107.987 127.722 108.222 127.707 108.457 127.685C108.691 127.664 108.925 127.636 109.158 127.603C109.391 127.569 109.623 127.53 109.854 127.485C110.085 127.44 110.316 127.389 110.545 127.333C110.773 127.276 111 127.214 111.226 127.146C111.452 127.079 111.676 127.005 111.898 126.925C112.12 126.846 112.34 126.762 112.558 126.672C117.009 124.855 119.936 121.207 121.765 116.865C122.324 117.046 122.877 117.241 123.426 117.448C123.975 117.656 124.519 117.877 125.057 118.11C125.596 118.344 126.128 118.591 126.656 118.85C127.182 119.11 127.702 119.382 128.216 119.667C128.729 119.951 129.236 120.249 129.735 120.558C130.235 120.867 130.726 121.188 131.21 121.521C131.694 121.853 132.17 122.198 132.637 122.553C133.105 122.909 133.563 123.275 134.013 123.653C138.922 127.763 143.011 134.115 143.621 140.609C143.78 142.291 143.778 144.049 143.361 145.693C139.497 145.796 135.624 145.724 131.759 145.724L114.243 145.755L70.2501 145.692C70.2501 143.652 70.1777 141.577 70.298 139.542C70.657 133.483 75.4062 127.811 79.7535 123.957L79.7545 123.958Z" fill="#E8543F"/>
<path d="M133.861 145.674C133.865 143.025 133.599 124.506 134.013 123.652C138.922 127.762 143.011 134.114 143.621 140.608C143.78 142.29 143.778 144.048 143.361 145.692C139.497 145.795 135.624 145.723 131.759 145.723L114.243 145.754L70.2501 145.691C70.2501 143.651 70.1777 141.576 70.298 139.541C70.657 133.483 75.4062 127.81 79.7535 123.956C80.1281 124.659 79.8543 143.564 79.8425 145.674H133.86H133.861Z" fill="#E8543F"/>
</svg>
